<?xml version="1.0" encoding="utf-8"?>
<!-- Generator: Adobe Illustrator 26.5.0, SVG Export Plug-In . SVG Version: 6.00 Build 0)  -->
<svg version="1.1" id="Layer_1" xmlns="http://www.w3.org/2000/svg" xmlns:xlink="http://www.w3.org/1999/xlink" x="0px" y="0px"
	 viewBox="0 0 820.5 909" style="enable-background:new 0 0 820.5 909;" xml:space="preserve">
<style type="text/css">
	.st0{fill:#EFE1F9;}
	.st1{opacity:0.3;fill:url(#SVGID_1_);enable-background:new    ;}
	.st2{fill:#DDBDFF;}
	.st3{fill:#C9AAF2;}
	.st4{fill:#E4CCFF;}
	.st5{fill:#E1C6FF;}
	.st6{fill:#D1B2F9;}
	.st7{opacity:0.3;fill:#26486A;enable-background:new    ;}
	.st8{fill:#725FA3;}
	.st9{fill:#1B1E33;}
	.st10{display:none;}
	.st11{display:inline;}
	.st12{clip-path:url(#SVGID_00000081607907579095344590000012032205945476680320_);}
	.st13{fill:#72100C;}
	.st14{fill:url(#SVGID_00000063629940509134787750000014592822224258352278_);}
	.st15{fill:url(#SVGID_00000068642621452619854220000013463200226603599036_);}
	.st16{fill:url(#SVGID_00000160148956452815653170000007652683486086540432_);}
	.st17{fill:url(#SVGID_00000098933186248861406730000005745053959674155660_);}
	.st18{fill-rule:evenodd;clip-rule:evenodd;fill:#130D14;}
	.st19{fill-rule:evenodd;clip-rule:evenodd;fill:#BEBDBB;}
	.st20{fill-rule:evenodd;clip-rule:evenodd;fill:#82744F;}
	.st21{fill-rule:evenodd;clip-rule:evenodd;fill:#BBBCA8;}
	.st22{fill-rule:evenodd;clip-rule:evenodd;fill:url(#SVGID_00000168097834301137394470000005897044490260330925_);}
	.st23{fill-rule:evenodd;clip-rule:evenodd;fill:#786444;}
	.st24{fill-rule:evenodd;clip-rule:evenodd;fill:url(#SVGID_00000125573362947262630310000003342697120674742682_);}
	.st25{fill-rule:evenodd;clip-rule:evenodd;fill:url(#SVGID_00000043456336890570648080000012476308321793497749_);}
	.st26{fill-rule:evenodd;clip-rule:evenodd;fill:url(#SVGID_00000173861530883933057640000002124130056503270047_);}
	.st27{fill-rule:evenodd;clip-rule:evenodd;fill:url(#SVGID_00000049918335188707304800000005067745531438565012_);}
	.st28{fill-rule:evenodd;clip-rule:evenodd;fill:url(#SVGID_00000016064553149588874230000003507407322580089251_);}
	.st29{fill:#3E2620;}
	.st30{fill:#020102;}
	.st31{fill:#BFBFB6;}
	.st32{fill:#7F8182;}
	.st33{fill:#C0C0C0;}
	.st34{fill:#4D4A4B;}
	.st35{fill:#807C7C;}
	.st36{fill:#1B0E0C;}
	.st37{fill:#656364;}
	.st38{fill:#646368;}
	.st39{fill:#BBB8BB;}
	.st40{fill-rule:evenodd;clip-rule:evenodd;fill:#847777;}
	.st41{fill-rule:evenodd;clip-rule:evenodd;fill:#B6B5B3;}
	.st42{fill-rule:evenodd;clip-rule:evenodd;fill:#393138;}
	.st43{fill-rule:evenodd;clip-rule:evenodd;fill:#080000;}
	.st44{fill-rule:evenodd;clip-rule:evenodd;fill:#8B8790;}
	.st45{fill-rule:evenodd;clip-rule:evenodd;fill:#020000;}
	.st46{fill-rule:evenodd;clip-rule:evenodd;fill:#9C9C9D;}
	.st47{fill-rule:evenodd;clip-rule:evenodd;fill:#100405;}
	.st48{fill-rule:evenodd;clip-rule:evenodd;fill:#958B81;}
	.st49{fill-rule:evenodd;clip-rule:evenodd;fill:#514132;}
	.st50{fill-rule:evenodd;clip-rule:evenodd;fill:#BFC0B6;}
	.st51{fill-rule:evenodd;clip-rule:evenodd;fill:#796763;}
	.st52{fill-rule:evenodd;clip-rule:evenodd;fill:#867B6E;}
	.st53{fill-rule:evenodd;clip-rule:evenodd;fill:#1A0103;}
	.st54{fill:#746F69;}
	.st55{fill:#948D85;}
	.st56{fill:#9F9E9C;}
	.st57{fill-rule:evenodd;clip-rule:evenodd;fill:#BEBFBD;}
	.st58{fill:#878690;}
	.st59{fill:#A7A7A7;}
	.st60{fill:#88807D;}
	.st61{fill-rule:evenodd;clip-rule:evenodd;fill:#C0C0C0;}
	.st62{fill:url(#SVGID_00000170240278182152926480000008896987184878011280_);}
	.st63{fill:#42056B;}
	.st64{fill:#FF9843;}
	.st65{fill:#EF6E4B;}
	.st66{fill:#FF8B66;}
	.st67{fill:#630099;}
	.st68{fill:#351E6A;}
	.st69{stroke:#000000;stroke-width:1.3832;stroke-miterlimit:10;}
	.st70{opacity:0.5;fill:#846EBD;enable-background:new    ;}
	.st71{fill:#D4EFFC;}
	.st72{clip-path:url(#SVGID_00000106852276253405752710000013120457735920428216_);}
	.st73{fill:none;stroke:#FFFFFF;stroke-width:1.4539;stroke-miterlimit:10;}
	.st74{opacity:0.2;fill:none;stroke:#000000;stroke-width:1.437;stroke-miterlimit:10;enable-background:new    ;}
	.st75{fill:url(#SVGID_00000061441523432374396650000003397034394497386413_);}
	.st76{opacity:0.5;fill:#D7D5F7;enable-background:new    ;}
	.st77{fill:none;stroke:#000000;stroke-width:1.437;stroke-miterlimit:10;}
	.st78{stroke:#000000;stroke-width:1.4452;stroke-miterlimit:10;}
	.st79{fill:#EBEBEB;}
	.st80{fill:none;stroke:#231F20;stroke-width:1.437;stroke-miterlimit:10;}
	.st81{fill:url(#SVGID_00000098914281198448902110000009157845814030688674_);}
	.st82{clip-path:url(#SVGID_00000052104557116293457050000001353081559020801953_);}
	.st83{fill:#292929;}
	.st84{fill:#EBEBEB;stroke:#000000;stroke-width:1.437;stroke-miterlimit:10;}
	.st85{fill:none;stroke:#FFFFFF;stroke-width:1.2335;stroke-miterlimit:10;}
	.st86{opacity:0.1;enable-background:new    ;}
	.st87{opacity:0.1;}
	.st88{clip-path:url(#SVGID_00000038401861995473087810000017551600041559171001_);}
	.st89{opacity:0.2;}
	.st90{fill:none;stroke:#DFA301;stroke-width:1.5976;stroke-miterlimit:10;}
	.st91{opacity:0.2;fill:none;stroke:#000000;stroke-width:1.4832;stroke-miterlimit:10;enable-background:new    ;}
	.st92{clip-path:url(#SVGID_00000164498732509226222050000005137635402018617225_);}
	.st93{fill:#FFFFFF;}
	.st94{fill:#0060BF;}
	.st95{fill:#843427;}
	.st96{fill:#1A4850;}
	.st97{fill:#DB614D;}
	.st98{fill:url(#SVGID_00000019653047733287659970000000376450791107100043_);}
	.st99{fill:url(#SVGID_00000116940057866195854880000005402339512884203672_);}
	.st100{fill:url(#SVGID_00000086669526389515816900000015686456922976112307_);}
	.st101{fill:url(#SVGID_00000157993467598917319690000015853660939908350878_);}
	.st102{fill:url(#SVGID_00000080892151980590227410000006028585853680180128_);}
	.st103{opacity:0.8;fill:url(#SVGID_00000073697863693974235820000006937736671934070708_);enable-background:new    ;}
	.st104{opacity:0.8;fill:url(#SVGID_00000073695361476883015090000016982927278166747794_);enable-background:new    ;}
	.st105{opacity:0.3;}
	.st106{fill:url(#SVGID_00000137853432242504671290000012452288776683485066_);}
	.st107{fill:url(#SVGID_00000080177806575138212790000011679605820354149042_);}
</style>
<g>
	<path class="st0" d="M0.1,909c139.1,0,529.6,0,671,0c113.2-84.4,116.8-283.2-2-416.2C534.7,342.2,679.5,223.4,546.7,97.5
		C383.1-57.4,0.1,18.7,0.1,18.7V909z"/>
	
		<linearGradient id="SVGID_1_" gradientUnits="userSpaceOnUse" x1="0.1" y1="112.0419" x2="613.8" y2="112.0419" gradientTransform="matrix(1 0 0 -1 0 1017.9839)">
		<stop  offset="0" style="stop-color:#000000;stop-opacity:0"/>
		<stop  offset="2.428084e-02" style="stop-color:#040208;stop-opacity:3.798962e-02"/>
		<stop  offset="0.1445" style="stop-color:#160C2B;stop-opacity:0.226"/>
		<stop  offset="0.2663" style="stop-color:#231447;stop-opacity:0.4166"/>
		<stop  offset="0.3888" style="stop-color:#2D1A5A;stop-opacity:0.6083"/>
		<stop  offset="0.5125" style="stop-color:#331D66;stop-opacity:0.8018"/>
		<stop  offset="0.6391" style="stop-color:#351E6A"/>
		<stop  offset="0.675" style="stop-color:#291751;stop-opacity:0.9006"/>
		<stop  offset="0.7279" style="stop-color:#1A0F34;stop-opacity:0.7542"/>
		<stop  offset="0.784" style="stop-color:#0E081D;stop-opacity:0.5985"/>
		<stop  offset="0.8443" style="stop-color:#06040D;stop-opacity:0.4315"/>
		<stop  offset="0.9116" style="stop-color:#020103;stop-opacity:0.2451"/>
		<stop  offset="1" style="stop-color:#000000;stop-opacity:0"/>
	</linearGradient>
	<rect x="0.1" y="902.9" class="st1" width="613.7" height="6.1"/>
	<g>
		<g>
			<rect x="581" y="244.3" class="st2" width="14.4" height="653.5"/>
			<path class="st2" d="M608.5,908.3h-40.7V754.7c0-10.6,8.5-19.4,19.4-19.4h1.3c11.1,0,20,9,20,20V908.3z"/>
			<path class="st2" d="M607.3,385.2h-37.7c-8.8,0-15.7-6.9-15.7-15.7V198.1c0-8.8,6.9-15.7,15.7-15.7h37.7
				c8.8,0,15.7,6.9,15.7,15.7v171.4C622.8,378,615.7,385.2,607.3,385.2z"/>
			<path class="st3" d="M562.2,281.8c0-14.7,11.9-26.6,26.6-26.6c14.7,0,26.6,11.9,26.6,26.6s-11.9,26.6-26.6,26.6
				S562.2,296.6,562.2,281.8z"/>
			<path class="st3" d="M562.2,341.9c0-14.7,11.9-26.6,26.6-26.6c14.7,0,26.6,11.9,26.6,26.6s-11.9,26.6-26.6,26.6
				S562.2,356.5,562.2,341.9z"/>
			<path class="st3" d="M562.2,221.1c0-14.7,11.9-26.6,26.6-26.6c14.7,0,26.6,11.9,26.6,26.6c0,14.7-11.9,26.6-26.6,26.6
				C574.1,247.7,562.2,235.8,562.2,221.1z"/>
		</g>
		<path class="st3" d="M820.2,909c0,0,8.4-55.8-70-58.7c-62.7-2.3-74.3-72.1-110.5-70.1c-55.2,3.2-28.3,91.8-71.1,80.3
			c-49.5-13.3-61.1,48.5-61.1,48.5H820.2z"/>
		<path class="st4" d="M546.5,909c0,0,5.1-30.1,36.9-30.8c26.9-0.6,24.4-27.6,48.8-19.6c19.7,6.4,29.2,46.4,44.5,29.7
			c18-19.6,31.2,20.7,31.2,20.7L546.5,909L546.5,909z"/>
		<g>
			<path class="st2" d="M468.4,98.9c10.3,0,184.2,1.1,195.2,0.8c0.8,0,1.2-1.2,0.4-1.6c-6.9-3.4-14.7-2.7-21.9-5.1
				c-4.2-1.4-6.8-4.2-9.7-7.3c-2.5-2.7-5.5-4.8-9-5.9c-3.2-1-6.6-1.1-9.9-0.3c-3.5,0.8-6.6,2.9-10,4.1c-8.4,3.2-16.5,0.2-22.4-6
				c-4.9-5.1-9.8-9.9-16.4-12.6c-5.6-2.3-11.8-2.8-17.4-0.2c-6.4,2.9-10.8,8.7-16.7,12.2c-7.1,4.2-15.6,3.2-23.4,4.4
				c-7.9,1.3-13.9,7.9-20.7,11.7c-2.4,1.3-4.8,2.4-7.5,2.3c-1.5,0-3-0.5-4.6-0.6c-2.4-0.3-4.6-0.2-6.2,1.8
				C467.6,96.9,467.7,98.9,468.4,98.9z"/>
			<path class="st4" d="M2.6,49.4c7.5,0,134.5,0.8,142.5,0.6c0.6,0,0.9-0.9,0.3-1.1c-5-2.5-10.7-2-16-3.8c-3.1-1-5-3-7.1-5.4
				c-1.8-2-4-3.5-6.6-4.3c-2.3-0.7-4.8-0.8-7.2-0.2c-2.6,0.6-4.8,2.1-7.3,3c-6.1,2.3-12,0.1-16.4-4.4c-3.6-3.7-7.1-7.2-12-9.2
				c-4.1-1.7-8.6-2-12.7-0.2c-4.7,2.1-7.9,6.4-12.2,8.9c-5.2,3-11.4,2.3-17.1,3.2c-5.7,0.9-10.1,5.7-15.1,8.5
				c-1.7,1-3.5,1.7-5.5,1.7c-1.1,0-2.2-0.3-3.3-0.5C5.2,46,3.5,46,2.4,47.5C2.1,47.9,2.1,49.4,2.6,49.4z"/>
			<path class="st4" d="M281.2,166.6c7.5,0,134.5,0.8,142.5,0.6c0.6,0,0.9-0.9,0.3-1.1c-5-2.5-10.7-2-16-3.8c-3.1-1-5-3-7.1-5.4
				c-1.8-2-4-3.5-6.6-4.3c-2.3-0.7-4.8-0.8-7.2-0.2c-2.6,0.6-4.8,2.1-7.3,3c-6.1,2.3-12,0.1-16.4-4.4c-3.6-3.7-7.1-7.2-12-9.2
				c-4.1-1.7-8.6-2-12.7-0.2c-4.7,2.1-7.9,6.4-12.2,8.9c-5.2,3-11.4,2.3-17.1,3.2s-10.1,5.7-15.1,8.5c-1.7,1-3.5,1.7-5.5,1.7
				c-1.1,0-2.2-0.3-3.3-0.5c-1.7-0.2-3.4-0.2-4.5,1.3C280.7,165.1,280.8,166.6,281.2,166.6z"/>
			<path class="st5" d="M647.3,180.1c7.5,0,134.5,0.8,142.5,0.6c0.6,0,0.9-0.9,0.3-1.1c-5-2.5-10.7-2-16-3.8c-3.1-1-5-3-7.1-5.4
				c-1.8-2-4-3.5-6.6-4.3c-2.3-0.7-4.8-0.8-7.2-0.2c-2.6,0.6-4.8,2.1-7.3,3c-6.1,2.3-12,0.1-16.4-4.4c-3.6-3.7-7.1-7.2-12-9.2
				c-4.1-1.7-8.6-2-12.7-0.2c-4.7,2.1-7.9,6.4-12.2,8.9c-5.2,3-11.4,2.3-17.1,3.2s-10.1,5.7-15.1,8.5c-1.7,1-3.5,1.7-5.5,1.7
				c-1.1,0-2.2-0.3-3.3-0.5c-1.7-0.2-3.4-0.2-4.5,1.3C646.7,178.6,646.8,180.1,647.3,180.1z"/>
			<path class="st2" d="M145.2,81.2c0.1,0.4,200.1,0,197.6,0c-1.2,0,1.7-1.7,0.6-2.3c-6.5-3.2-13.6-3.3-20.7-4
				c-4.1-0.4-8.4-1-12.1-2.9c-3.8-2-6.1-5.4-8.8-8.6c-8.3-9.8-21.4-14.9-34.1-12.9c-14.2,2.2-25.4,13.1-39.7,15
				c-8.6,1.2-16.6-2.1-25-3.3c-6.9-1-12.6,0.4-18.8,3.4c-4.5,2.2-8.7,4.1-13.8,4.5c-3.9,0.3-7.8-0.2-11.8-0.2
				c-6.3-0.1-12.5,2.7-17.3,6.9C140.7,77.4,138.7,81.2,145.2,81.2z"/>
		</g>
		<g>
			<g>
				<g>
					<rect x="167.5" y="105.9" class="st4" width="67.4" height="353.1"/>
					<g>
						<rect x="211.4" y="117.4" class="st2" width="13.1" height="13.5"/>
						<rect x="194.7" y="117.4" class="st2" width="13.1" height="13.5"/>
						<rect x="211.4" y="140.4" class="st2" width="13.1" height="13.5"/>
						<rect x="194.7" y="140.4" class="st2" width="13.1" height="13.5"/>
						<rect x="211.4" y="163.2" class="st2" width="13.1" height="13.5"/>
						<rect x="194.7" y="163.2" class="st2" width="13.1" height="13.5"/>
						<rect x="211.4" y="186.1" class="st2" width="13.1" height="13.5"/>
						<rect x="194.7" y="186.1" class="st2" width="13.1" height="13.5"/>
						<rect x="211.4" y="209" class="st2" width="13.1" height="13.5"/>
						<rect x="194.7" y="209" class="st2" width="13.1" height="13.5"/>
						<rect x="211.4" y="231.9" class="st2" width="13.1" height="13.5"/>
						<rect x="194.7" y="231.9" class="st2" width="13.1" height="13.5"/>
						<rect x="211.4" y="254.7" class="st2" width="13.1" height="13.5"/>
						<rect x="194.7" y="254.7" class="st2" width="13.1" height="13.5"/>
						<rect x="211.4" y="277.6" class="st2" width="13.1" height="13.5"/>
						<rect x="194.7" y="277.6" class="st2" width="13.1" height="13.5"/>
						<rect x="211.4" y="300.5" class="st2" width="13.1" height="13.5"/>
						<rect x="194.7" y="300.5" class="st2" width="13.1" height="13.5"/>
						<rect x="211.4" y="323.5" class="st2" width="13.1" height="13.5"/>
						<rect x="194.7" y="323.5" class="st2" width="13.1" height="13.5"/>
						<rect x="211.4" y="346.3" class="st2" width="13.1" height="13.5"/>
						<rect x="194.7" y="346.3" class="st2" width="13.1" height="13.5"/>
						<rect x="211.4" y="369.2" class="st2" width="13.1" height="13.5"/>
						<rect x="194.7" y="369.2" class="st2" width="13.1" height="13.5"/>
						<rect x="211.4" y="392.1" class="st2" width="13.1" height="13.5"/>
						<rect x="194.7" y="392.1" class="st2" width="13.1" height="13.5"/>
						<rect x="211.4" y="415" class="st2" width="13.1" height="13.5"/>
						<rect x="178" y="415" class="st2" width="13.1" height="13.5"/>
						<rect x="178" y="392.1" class="st2" width="13.1" height="13.5"/>
						<rect x="178" y="369.2" class="st2" width="13.1" height="13.5"/>
						<rect x="178" y="346.3" class="st2" width="13.1" height="13.5"/>
						<rect x="178" y="323.4" class="st2" width="13.1" height="13.5"/>
						<rect x="178" y="300.6" class="st2" width="13.1" height="13.5"/>
						<rect x="178" y="277.7" class="st2" width="13.1" height="13.5"/>
						<rect x="178" y="254.8" class="st2" width="13.1" height="13.5"/>
						<rect x="178" y="231.9" class="st2" width="13.1" height="13.5"/>
						<rect x="178" y="209" class="st2" width="13.1" height="13.5"/>
						<rect x="178" y="186.1" class="st2" width="13.1" height="13.5"/>
						<rect x="178" y="163.2" class="st2" width="13.1" height="13.5"/>
						<rect x="178" y="140.3" class="st2" width="13.1" height="13.5"/>
						<rect x="178" y="117.5" class="st2" width="13.1" height="13.5"/>
						<rect x="194.7" y="415" class="st2" width="13.1" height="13.5"/>
					</g>
				</g>
				<g>
					<rect x="114.5" y="105.9" class="st2" width="53.1" height="353.1"/>
					<g>
						<rect x="120" y="415" class="st5" width="10.8" height="13.5"/>
						<rect x="133.8" y="415" class="st5" width="10.8" height="13.5"/>
						<rect x="120" y="392.1" class="st5" width="10.8" height="13.5"/>
						<rect x="133.8" y="392.1" class="st5" width="10.8" height="13.5"/>
						<rect x="120" y="369.2" class="st5" width="10.8" height="13.5"/>
						<rect x="133.8" y="369.2" class="st5" width="10.8" height="13.5"/>
						<rect x="120" y="346.3" class="st5" width="10.8" height="13.5"/>
						<rect x="133.8" y="346.3" class="st5" width="10.8" height="13.5"/>
						<rect x="120" y="323.4" class="st5" width="10.8" height="13.5"/>
						<rect x="133.8" y="323.4" class="st5" width="10.8" height="13.5"/>
						<rect x="120" y="300.6" class="st5" width="10.8" height="13.5"/>
						<rect x="133.8" y="300.6" class="st5" width="10.8" height="13.5"/>
						<rect x="120" y="277.7" class="st5" width="10.8" height="13.5"/>
						<rect x="133.8" y="277.7" class="st5" width="10.8" height="13.5"/>
						<rect x="120" y="254.8" class="st5" width="10.8" height="13.5"/>
						<rect x="133.8" y="254.8" class="st5" width="10.8" height="13.5"/>
						<rect x="120" y="231.9" class="st5" width="10.8" height="13.5"/>
						<rect x="133.8" y="231.9" class="st5" width="10.8" height="13.5"/>
						<rect x="120" y="209" class="st5" width="10.8" height="13.5"/>
						<rect x="133.8" y="209" class="st5" width="10.8" height="13.5"/>
						<rect x="120" y="186.1" class="st5" width="10.8" height="13.5"/>
						<rect x="133.8" y="186.1" class="st5" width="10.8" height="13.5"/>
						<rect x="120" y="163.2" class="st5" width="10.8" height="13.5"/>
						<rect x="133.8" y="163.2" class="st5" width="10.8" height="13.5"/>
						<rect x="120" y="140.3" class="st5" width="10.8" height="13.5"/>
						<rect x="133.8" y="140.3" class="st5" width="10.8" height="13.5"/>
						<rect x="120" y="117.5" class="st5" width="10.8" height="13.5"/>
						<rect x="147.5" y="117.4" class="st5" width="10.8" height="13.5"/>
						<rect x="147.5" y="140.4" class="st5" width="10.8" height="13.5"/>
						<rect x="147.5" y="163.2" class="st5" width="10.8" height="13.5"/>
						<rect x="147.5" y="186.1" class="st5" width="10.8" height="13.5"/>
						<rect x="147.5" y="209" class="st5" width="10.8" height="13.5"/>
						<rect x="147.5" y="231.9" class="st5" width="10.8" height="13.5"/>
						<rect x="147.5" y="254.7" class="st5" width="10.8" height="13.5"/>
						<rect x="147.5" y="277.6" class="st5" width="10.8" height="13.5"/>
						<rect x="147.5" y="300.5" class="st5" width="10.8" height="13.5"/>
						<rect x="147.5" y="323.5" class="st5" width="10.8" height="13.5"/>
						<rect x="147.5" y="346.3" class="st5" width="10.8" height="13.5"/>
						<rect x="147.5" y="369.2" class="st5" width="10.8" height="13.5"/>
						<rect x="147.5" y="392.1" class="st5" width="10.8" height="13.5"/>
						<rect x="147.5" y="415" class="st5" width="10.8" height="13.5"/>
						<rect x="133.8" y="117.5" class="st5" width="10.8" height="13.5"/>
					</g>
				</g>
			</g>
			<g>
				<rect x="67.4" y="163.2" class="st4" width="42.4" height="50.1"/>
				<rect x="40.6" y="163.3" class="st2" width="26.9" height="51.9"/>
				<rect x="38.8" y="185.4" class="st4" width="26.7" height="29.8"/>
				<rect x="22.2" y="185.4" class="st5" width="16.6" height="29.8"/>
				<g>
					<rect x="57.6" y="210.1" class="st2" width="68.5" height="249"/>
					<g>
						<rect x="96.8" y="220.8" class="st6" width="21.5" height="8.8"/>
						<rect x="69.2" y="220.8" class="st6" width="21.5" height="8.8"/>
						<rect x="96.8" y="235.7" class="st6" width="21.5" height="8.8"/>
						<rect x="69.2" y="235.7" class="st6" width="21.5" height="8.8"/>
						<rect x="96.8" y="250.7" class="st6" width="21.5" height="8.8"/>
						<rect x="69.2" y="250.7" class="st6" width="21.5" height="8.8"/>
						<rect x="96.8" y="265.6" class="st6" width="21.5" height="8.8"/>
						<rect x="69.2" y="265.6" class="st6" width="21.5" height="8.8"/>
						<rect x="96.8" y="280.6" class="st6" width="21.5" height="8.8"/>
						<rect x="69.2" y="280.6" class="st6" width="21.5" height="8.8"/>
						<rect x="96.8" y="295.4" class="st6" width="21.5" height="8.8"/>
						<rect x="69.2" y="295.4" class="st6" width="21.5" height="8.8"/>
						<rect x="96.8" y="310.4" class="st6" width="21.5" height="8.8"/>
						<rect x="69.2" y="310.4" class="st6" width="21.5" height="8.8"/>
						<rect x="96.8" y="325.3" class="st6" width="21.5" height="8.8"/>
						<rect x="69.2" y="325.3" class="st6" width="21.5" height="8.8"/>
						<rect x="96.8" y="340.3" class="st6" width="21.5" height="8.8"/>
						<rect x="69.2" y="340.3" class="st6" width="21.5" height="8.8"/>
						<rect x="96.8" y="355.2" class="st6" width="21.5" height="8.8"/>
						<rect x="69.2" y="355.2" class="st6" width="21.5" height="8.8"/>
						<rect x="96.8" y="370.2" class="st6" width="21.5" height="8.8"/>
						<rect x="69.2" y="370.2" class="st6" width="21.5" height="8.8"/>
						<rect x="96.8" y="385.1" class="st6" width="21.5" height="8.8"/>
						<rect x="69.2" y="385.1" class="st6" width="21.5" height="8.8"/>
						<rect x="96.8" y="400.1" class="st6" width="21.5" height="8.8"/>
						<rect x="69.2" y="400.1" class="st6" width="21.5" height="8.8"/>
						<rect x="96.8" y="415.1" class="st6" width="21.5" height="8.8"/>
						<rect x="69.2" y="415.1" class="st6" width="21.5" height="8.8"/>
					</g>
				</g>
				<g>
					<rect x="2.1" y="210.1" class="st5" width="55.5" height="249"/>
					<g>
						<rect x="7.6" y="415" class="st2" width="17.7" height="8.8"/>
						<rect x="30.3" y="415" class="st2" width="17.7" height="8.8"/>
						<rect x="7.6" y="400.1" class="st2" width="17.7" height="8.8"/>
						<rect x="30.3" y="400.1" class="st2" width="17.7" height="8.8"/>
						<rect x="7.6" y="385.2" class="st2" width="17.7" height="8.8"/>
						<rect x="30.3" y="385.2" class="st2" width="17.7" height="8.8"/>
						<rect x="7.6" y="370.2" class="st2" width="17.7" height="8.8"/>
						<rect x="30.3" y="370.2" class="st2" width="17.7" height="8.8"/>
						<rect x="7.6" y="355.3" class="st2" width="17.7" height="8.8"/>
						<rect x="30.3" y="355.3" class="st2" width="17.7" height="8.8"/>
						<rect x="7.6" y="340.3" class="st2" width="17.7" height="8.8"/>
						<rect x="30.3" y="340.3" class="st2" width="17.7" height="8.8"/>
						<rect x="7.6" y="325.4" class="st2" width="17.7" height="8.8"/>
						<rect x="30.3" y="325.4" class="st2" width="17.7" height="8.8"/>
						<rect x="7.6" y="310.4" class="st2" width="17.7" height="8.8"/>
						<rect x="30.3" y="310.4" class="st2" width="17.7" height="8.8"/>
						<rect x="7.6" y="295.5" class="st2" width="17.7" height="8.8"/>
						<rect x="30.3" y="295.5" class="st2" width="17.7" height="8.8"/>
						<rect x="7.6" y="280.5" class="st2" width="17.7" height="8.8"/>
						<rect x="30.3" y="280.5" class="st2" width="17.7" height="8.8"/>
						<rect x="7.6" y="265.6" class="st2" width="17.7" height="8.8"/>
						<rect x="30.3" y="265.6" class="st2" width="17.7" height="8.8"/>
						<rect x="7.6" y="250.6" class="st2" width="17.7" height="8.8"/>
						<rect x="30.3" y="250.6" class="st2" width="17.7" height="8.8"/>
						<rect x="7.6" y="235.7" class="st2" width="17.7" height="8.8"/>
						<rect x="30.3" y="235.7" class="st2" width="17.7" height="8.8"/>
						<rect x="7.6" y="220.7" class="st2" width="17.7" height="8.8"/>
						<rect x="30.3" y="220.7" class="st2" width="17.7" height="8.8"/>
					</g>
				</g>
			</g>
			<g>
				<g>
					<rect x="258.6" y="296.7" class="st5" width="80.8" height="162.3"/>
					<g>
						<rect x="312.4" y="310.9" class="st4" width="14.3" height="9.9"/>
						<rect x="312.4" y="332.1" class="st4" width="14.3" height="9.9"/>
						<rect x="312.4" y="353.3" class="st4" width="14.3" height="9.9"/>
						<rect x="312.4" y="374.6" class="st4" width="14.3" height="9.9"/>
						<rect x="312.4" y="395.8" class="st4" width="14.3" height="9.9"/>
						<rect x="312.4" y="417" class="st4" width="14.3" height="9.9"/>
						<rect x="312.4" y="438.3" class="st4" width="14.3" height="9.9"/>
						<rect x="291.8" y="310.9" class="st4" width="14.3" height="9.9"/>
						<rect x="291.8" y="332.1" class="st4" width="14.3" height="9.9"/>
						<rect x="291.8" y="353.3" class="st4" width="14.3" height="9.9"/>
						<rect x="291.8" y="374.6" class="st4" width="14.3" height="9.9"/>
						<rect x="291.8" y="395.8" class="st4" width="14.3" height="9.9"/>
						<rect x="291.8" y="417" class="st4" width="14.3" height="9.9"/>
						<rect x="291.8" y="438.3" class="st4" width="14.3" height="9.9"/>
						<rect x="271.3" y="310.9" class="st4" width="14.3" height="9.9"/>
						<rect x="271.3" y="332.1" class="st4" width="14.3" height="9.9"/>
						<rect x="271.3" y="353.3" class="st4" width="14.3" height="9.9"/>
						<rect x="271.3" y="374.6" class="st4" width="14.3" height="9.9"/>
						<rect x="271.3" y="395.8" class="st4" width="14.3" height="9.9"/>
						<rect x="271.3" y="417" class="st4" width="14.3" height="9.9"/>
						<rect x="271.3" y="438.3" class="st4" width="14.3" height="9.9"/>
					</g>
					<rect x="258.6" y="279.9" class="st4" width="53.8" height="16.9"/>
					<rect x="258.6" y="269.4" class="st2" width="34.1" height="10.5"/>
				</g>
				<g>
					<rect x="201.9" y="296.7" class="st4" width="56.7" height="162.3"/>
					<g>
						<rect x="207.7" y="436.7" class="st5" width="11.6" height="9.9"/>
						<rect x="207.7" y="415.4" class="st5" width="11.6" height="9.9"/>
						<rect x="207.7" y="394.2" class="st5" width="11.6" height="9.9"/>
						<rect x="207.7" y="373" class="st5" width="11.6" height="9.9"/>
						<rect x="207.7" y="351.7" class="st5" width="11.6" height="9.9"/>
						<rect x="207.7" y="330.5" class="st5" width="11.6" height="9.9"/>
						<rect x="207.7" y="309.2" class="st5" width="11.6" height="9.9"/>
						<rect x="224.4" y="436.7" class="st5" width="11.6" height="9.9"/>
						<rect x="224.4" y="415.4" class="st5" width="11.6" height="9.9"/>
						<rect x="224.4" y="394.2" class="st5" width="11.6" height="9.9"/>
						<rect x="224.4" y="373" class="st5" width="11.6" height="9.9"/>
						<rect x="224.4" y="351.7" class="st5" width="11.6" height="9.9"/>
						<rect x="224.4" y="330.5" class="st5" width="11.6" height="9.9"/>
						<rect x="224.4" y="309.2" class="st5" width="11.6" height="9.9"/>
						<rect x="241.1" y="436.7" class="st5" width="11.6" height="9.9"/>
						<rect x="241.1" y="415.4" class="st5" width="11.6" height="9.9"/>
						<rect x="241.1" y="394.2" class="st5" width="11.6" height="9.9"/>
						<rect x="241.1" y="373" class="st5" width="11.6" height="9.9"/>
						<rect x="241.1" y="351.7" class="st5" width="11.6" height="9.9"/>
						<rect x="241.1" y="330.5" class="st5" width="11.6" height="9.9"/>
						<rect x="241.1" y="309.2" class="st5" width="11.6" height="9.9"/>
					</g>
					<rect x="210.4" y="279.9" class="st5" width="48.1" height="16.9"/>
					<rect x="232.5" y="269.4" class="st4" width="26.1" height="10.5"/>
				</g>
			</g>
		</g>
	</g>
	<g>
		<path d="M358.9,909h99.2c8.2,0,14.8-6.6,14.8-14.8V702.6H344v191.5C344,902.4,350.7,909,358.9,909z"/>
		<path class="st7" d="M0.8,427.2c157.7-2,336.5,17.4,336.5,17.4c-22.9-69.8-35.1-112.4-61.7-134C251.4,290.9,0.1,289.3,0.1,289.3
			L0.8,427.2z"/>
		<path class="st8" d="M75.4,472.1l140.5,8.4L205,396.7c-1.5-11.6-12.7-20.3-26.1-20.3h-66.5c-13.4,0-24.6,8.7-26.1,20.3L75.4,472.1
			z"/>
		<path class="st9" d="M311,289.3c-12.5-12.2-90.2-18.4-164.8-21.6S0.1,264.4,0.1,264.4v187.1c25.4-0.3,50.5-0.2,74.9,0.2
			c91.7,1.6,174.6,8,232.6,13.7c52.4,5.1,84.6,9.7,84.6,9.7C362.2,380.2,332.2,322.4,311,289.3z M0.8,427.2L0.1,289.3
			c0,0,251.3,1.6,275.6,21.3c26.6,21.6,38.8,64.2,61.7,134C337.4,444.6,158.5,425.2,0.8,427.2z"/>
		<g class="st10">
			<g class="st11">
				<defs>
					<rect id="SVGID_00000000905192548041439190000009699499957256948117_" x="0.2" y="209.5" width="326.9" height="326.9"/>
				</defs>
				<clipPath id="SVGID_00000170279666878410475510000015135255324349858967_">
					<use xlink:href="#SVGID_00000000905192548041439190000009699499957256948117_"  style="overflow:visible;"/>
				</clipPath>
				<g style="clip-path:url(#SVGID_00000170279666878410475510000015135255324349858967_);">
					<g>
						<g>
							<path class="st13" d="M68.6,386.7c0,0,8.4,9.3,5.1,16.3c-3.2,7-8.3,8.1-13.2,7.3c-4.9-0.8-10.3-6.1-12.1-8.4
								c-1.8-2.3-3.7-1.7-3.9,0.7c-0.1,2.4,1.2,21.8,15.1,33.6c12.3,10.5,19.1,13,25.5,14.7c6.4,1.6,17,2.4,22.8,8.7
								c5.7,6.3,7.2,12.5,8.6,18s4.8,18.8,18.7,27.6s29.3,7.2,42.8-0.4c13.5-7.6,27.8-24.6,35.5-36.6c7.7-12.1,21.4-38,17.6-52
								c-3.8-14-11.7-28.3-31.9-33.7c-20.1-5.4-28.2,4.7-39.5-3.7c-11.3-8.5-10.6-16.6-19.1-23.9c-8.4-7.3-17.9-12.9-26.3-13.5
								s-16.2,0.5-18,1.2s-2.5,1.2,0.1,2.9c2.6,1.7,7.7,5.7,6.4,13.7c-1.3,8-9.7,17.5-27.3,5.1C72.6,370.9,68.6,386.7,68.6,386.7z"
								/>
							
								<linearGradient id="SVGID_00000013889596217113205170000008402568672786017982_" gradientUnits="userSpaceOnUse" x1="672.0994" y1="844.8116" x2="848.7474" y2="844.8116" gradientTransform="matrix(-0.822 -0.5695 -0.5695 0.822 1224.174 189.5137)">
								<stop  offset="0" style="stop-color:#72100C"/>
								<stop  offset="0.1021" style="stop-color:#761512"/>
								<stop  offset="0.236" style="stop-color:#812422"/>
								<stop  offset="0.3876" style="stop-color:#943C3D"/>
								<stop  offset="0.551" style="stop-color:#AD5E63"/>
								<stop  offset="0.6011" style="stop-color:#B66A70"/>
								<stop  offset="0.8058" style="stop-color:#B67076"/>
								<stop  offset="1" style="stop-color:#B67B80"/>
							</linearGradient>
							<path style="fill:url(#SVGID_00000013889596217113205170000008402568672786017982_);" d="M59.6,436.1
								c12.3,10.5,19.1,13,25.5,14.7c6.4,1.6,17,2.4,22.8,8.7c5.7,6.3,7.2,12.5,8.6,18s4.8,18.8,18.7,27.6
								c13.9,8.8,29.3,7.2,42.8-0.4c11.9-6.7,24.4-20.7,32.4-32.1c-9.2,11.8-22.4,25.1-36.9,28.8c-27.8,7.1-45.3-10.4-48.9-27.1
								s-12.6-23.6-18-26s-30.1-7.3-38.5-12.8c-8.1-5.3-20.4-15.9-21.9-34.9c-0.9-0.1-1.6,0.7-1.7,2.1
								C44.4,404.9,45.8,424.3,59.6,436.1z"/>
							
								<linearGradient id="SVGID_00000125578658908966002450000004848786581215235767_" gradientUnits="userSpaceOnUse" x1="824.9027" y1="793.5933" x2="837.3455" y2="771.6201" gradientTransform="matrix(-0.822 -0.5695 -0.5695 0.822 1224.174 189.5137)">
								<stop  offset="0" style="stop-color:#72100C"/>
								<stop  offset="0.1515" style="stop-color:#771815"/>
								<stop  offset="0.3985" style="stop-color:#862F2D"/>
								<stop  offset="0.7083" style="stop-color:#9D5355"/>
								<stop  offset="1" style="stop-color:#B67B80"/>
							</linearGradient>
							<path style="fill:url(#SVGID_00000125578658908966002450000004848786581215235767_);" d="M82.6,367.9
								c3.8,2.5,9.7,5.1,15.7,1.9c10.1-5.3,10.5-14.3,7.6-20.2c-2-4-7.4-5.2-10.7-5.6c0.3,0.3,0.7,0.6,1.3,1
								c2.6,1.7,7.7,5.7,6.4,13.7C101.8,365.7,95.4,373.6,82.6,367.9z"/>
							
								<linearGradient id="SVGID_00000156561229596925079090000003201860776832607420_" gradientUnits="userSpaceOnUse" x1="711.2473" y1="754.6999" x2="840.7426" y2="754.6999" gradientTransform="matrix(-0.822 -0.5695 -0.5695 0.822 1224.174 189.5137)">
								<stop  offset="0" style="stop-color:#72100C"/>
								<stop  offset="0.1021" style="stop-color:#761512"/>
								<stop  offset="0.236" style="stop-color:#812422"/>
								<stop  offset="0.3876" style="stop-color:#943C3D"/>
								<stop  offset="0.551" style="stop-color:#AD5E63"/>
								<stop  offset="0.6011" style="stop-color:#B66A70"/>
								<stop  offset="0.8058" style="stop-color:#B67076"/>
								<stop  offset="1" style="stop-color:#B67B80"/>
							</linearGradient>
							<path style="fill:url(#SVGID_00000156561229596925079090000003201860776832607420_);" d="M149.2,373.6
								c5.2,7.8,17.4,9.8,23.4,9.5c5.4-0.3,27.4-5.6,45.6,9.5c-4.7-4.5-10.9-8.2-19-10.3c-20.1-5.4-28.2,4.7-39.5-3.7
								c-11.3-8.5-10.6-16.6-19.1-23.9c-8.4-7.3-17.9-12.9-26.3-13.5s-16.2,0.5-18,1.2c-1.1,0.5-1.8,0.8-1.5,1.5
								c7.5,0.3,20.5,1.6,30.5,7.2C140.1,359.2,144,365.8,149.2,373.6z"/>
							
								<linearGradient id="SVGID_00000118375162937549128470000010666541428169717947_" gradientUnits="userSpaceOnUse" x1="822.9583" y1="833.4203" x2="838.5778" y2="844.5393" gradientTransform="matrix(-0.822 -0.5695 -0.5695 0.822 1224.174 189.5137)">
								<stop  offset="0" style="stop-color:#72100C"/>
								<stop  offset="0.1021" style="stop-color:#761512"/>
								<stop  offset="0.236" style="stop-color:#812422"/>
								<stop  offset="0.3876" style="stop-color:#943C3D"/>
								<stop  offset="0.551" style="stop-color:#AD5E63"/>
								<stop  offset="0.6011" style="stop-color:#B66A70"/>
								<stop  offset="0.8058" style="stop-color:#B67076"/>
								<stop  offset="1" style="stop-color:#B67B80"/>
							</linearGradient>
							<path style="fill:url(#SVGID_00000118375162937549128470000010666541428169717947_);" d="M49.1,407.9
								c1.5,4.3,15.2,14.7,23.7,4.8c6-7.1,3.1-14.1,0.9-17.6c0.9,2.6,1.2,5.3,0.1,7.8c-3.2,7-8.3,8.1-13.2,7.3
								c-4.9-0.8-10.3-6.1-12.1-8.4c-0.3-0.4-0.6-0.7-0.9-0.9C47.6,403.3,48.3,405.7,49.1,407.9z"/>
						</g>
						<g>
							<path class="st18" d="M131.9,453.1c0,0-8.7-9.8-23.7-20.7c-15-10.9-26.3-11.6-32.5-12.6c0,0,2.9-2.7,4.7-7.9
								c2.1-6.4-2.8-12.6-3.3-19.6c1.8-2.6,12.3-17.9,12.3-17.9s4.6-1,9.2-1.1s10.7-0.7,14.6-6.3c3.9-5.6,1.6-11.5-1.4-15.2
								c3.2,0.5,17.9,2.7,26.8,13.6c8.9,10.9,9.1,13.4,14,16.9c5,3.5,10.8,6.3,22.8,8c-0.9,3.9-0.3,7.9-8.9,13.6
								c-8.5,5.7-15,11-19.9,21.2C140.1,438.6,143.2,449.1,131.9,453.1z"/>
							<path class="st19" d="M132.1,452.9c-0.1-0.1-8.9-9.9-23.7-20.7c-13.6-9.9-24.4-11.4-30.8-12.3l-1.9-0.3l0.2,0.6
								c0.1-0.1,3-2.8,4.8-8.1c1.3-3.9,0-7.8-1.3-11.8c-0.9-2.6-1.8-5.2-2-7.9l-0.1,0.2l12.3-17.9l-0.2,0.2c0,0,4.7-1,9.2-1.1
								c5.2-0.2,11.1-1,14.9-6.5c4.6-6.7,0.6-13.2-1.4-15.7l-0.3,0.6h0.1c14.6,2.3,22.5,8.6,26.5,13.5c3.5,4.3,5.7,7.4,7.3,9.6
								c2.5,3.5,3.8,5.2,6.8,7.4c5,3.6,10.8,6.3,22.9,8.1l-0.3-0.4c-0.1,0.6-0.2,1.1-0.3,1.7c-0.6,3.4-1.2,6.9-8.4,11.7
								c-9.1,6-15.3,11.5-20.1,21.3c-2.3,4.8-3.4,9.2-4.4,13.1c-1.7,7-3,12.1-10.1,14.6L132.1,452.9z M146.9,425.4
								c4.7-9.7,10.8-15.1,19.8-21c7.5-5,8.1-8.8,8.7-12.2c0.1-0.6,0.2-1.1,0.3-1.6l0.1-0.4l-0.4-0.1c-11.9-1.8-17.7-4.5-22.6-8
								c-2.9-2.1-4.2-3.8-6.6-7.2c-1.6-2.2-3.8-5.3-7.4-9.6c-4.1-5-12-11.4-26.9-13.7h-0.1l-0.9-0.1l0.6,0.7
								c1.9,2.4,5.7,8.5,1.4,14.8c-3.6,5.1-9,6-14.3,6.2c-4.6,0.1-9.3,1.1-9.3,1.1h-0.1l-0.1,0.1l-12.3,17.9l-0.1,0.1v0.1
								c0.2,2.8,1.1,5.5,2,8.1c1.3,3.9,2.6,7.6,1.3,11.3c-1.7,5.1-4.6,7.7-4.6,7.7l-0.6,0.5l0.8,0.1l1.9,0.3
								c6.3,0.9,17,2.4,30.5,12.2c14.8,10.8,23.5,20.5,23.6,20.6l0.2,0.2l0.2-0.1c7.5-2.7,8.9-8.2,10.6-15.1
								C143.5,434.5,144.6,430.1,146.9,425.4z"/>
						</g>
					</g>
					<g>
						<g>
							<path class="st20" d="M-105.5,228.6c0.2-0.3,0.6-0.4,0.9-0.2l2.3,1.6c0.3,0.2,0.4,0.6,0.2,0.9l0,0c-0.2,0.3-0.6,0.4-0.9,0.2
								l-2.3-1.6C-105.6,229.3-105.7,228.9-105.5,228.6L-105.5,228.6z"/>
							<path class="st20" d="M-102.3,230.3c0,0,0.4-0.1,1-0.2c0.6-0.1,1-0.3,1.4-0.9c0.4-0.5,1.1-1.7,1.6-2.1c0.4-0.4,1.3-1,1.2-1.4
								c-0.1-0.3-0.9-1.3-1.3-1.9c-0.4-0.6-0.8-1.1-2-1.6c-1.3-0.5-1.9-0.7-2.1-0.1c-0.3,0.6-0.9,1.3-1.1,1.6s-0.7,1.3-0.9,1.7
								c-0.2,0.5-0.6,0.9-0.4,2c0.3,1.1,0.5,1.3,0.5,1.3S-102.9,230.3-102.3,230.3z"/>
							<path class="st21" d="M-102.6,222.3c-0.3,0.6-0.9,1.3-1.1,1.6s-0.7,1.3-0.9,1.7c-0.1,0.3-0.3,0.5-0.4,1
								c0.1,1.2,0.6,1.5,1.1,1.8c0.7,0.4,1.6,0.1,2.4-0.6c0.8-0.7,1.9-2,2.5-2.9c0.4-0.5-0.3-1.5-0.9-2.2c-0.2-0.1-0.4-0.2-0.6-0.3
								C-101.7,221.9-102.3,221.7-102.6,222.3z"/>
							
								<linearGradient id="SVGID_00000124163934342113685070000013859113430157745840_" gradientUnits="userSpaceOnUse" x1="1067.9503" y1="792.0441" x2="1069.4745" y2="792.0441" gradientTransform="matrix(-0.822 -0.5695 -0.5695 0.822 1224.174 189.5137)">
								<stop  offset="0" style="stop-color:#7F7570"/>
								<stop  offset="6.156121e-02" style="stop-color:#796E67"/>
								<stop  offset="0.1619" style="stop-color:#6A5A4F"/>
								<stop  offset="0.2879" style="stop-color:#513A27"/>
								<stop  offset="0.3371" style="stop-color:#462C16"/>
								<stop  offset="0.4888" style="stop-color:#462C16"/>
								<stop  offset="0.6629" style="stop-color:#B4A990"/>
								<stop  offset="1" style="stop-color:#787065"/>
							</linearGradient>
							
								<polygon style="fill-rule:evenodd;clip-rule:evenodd;fill:url(#SVGID_00000124163934342113685070000013859113430157745840_);" points="
								-104.6,229.4 -103.3,230.2 -106.3,234.5 -107.5,233.6 							"/>
							<path class="st23" d="M-105.1,229.7l2,1.4c0.3,0.2,0.7,0.1,0.9-0.2c0.2-0.3,0.1-0.7-0.2-0.9l-1.9-1.3h-0.1
								C-104.3,228.7-104.5,229.6-105.1,229.7z"/>
						</g>
						<g>
							<path class="st20" d="M-95,237c0.2-0.3,0.6-0.4,0.9-0.2l2.3,1.6c0.3,0.2,0.4,0.6,0.2,0.9l0,0c-0.2,0.3-0.6,0.4-0.9,0.2
								l-2.3-1.6C-95.2,237.7-95.2,237.3-95,237L-95,237z"/>
							<path class="st20" d="M-91.9,238.7c0,0,0.4-0.1,1-0.2c0.6-0.1,1-0.3,1.4-0.9c0.4-0.5,1.1-1.7,1.6-2.1c0.4-0.4,1.3-1,1.2-1.4
								c-0.1-0.3-0.9-1.3-1.3-1.9c-0.4-0.6-0.8-1.1-2-1.6c-1.3-0.5-1.9-0.7-2.1-0.1c-0.3,0.6-0.9,1.3-1.1,1.6s-0.7,1.3-0.9,1.7
								c-0.2,0.5-0.6,0.9-0.4,2c0.3,1.1,0.5,1.3,0.5,1.3S-92.4,238.7-91.9,238.7z"/>
							<path class="st21" d="M-92.2,230.6c-0.3,0.6-0.9,1.3-1.1,1.6s-0.7,1.3-0.9,1.7c-0.1,0.3-0.3,0.5-0.4,1
								c0.1,1.2,0.6,1.5,1.1,1.8c0.7,0.4,1.6,0.1,2.4-0.6c0.8-0.7,1.9-2,2.5-2.9c0.4-0.5-0.3-1.5-0.9-2.2c-0.2-0.1-0.4-0.2-0.6-0.3
								C-91.3,230.2-91.9,230-92.2,230.6z"/>
							
								<linearGradient id="SVGID_00000121979908298062719220000017705066628231732134_" gradientUnits="userSpaceOnUse" x1="1054.5809" y1="792.9697" x2="1056.1051" y2="792.9697" gradientTransform="matrix(-0.822 -0.5695 -0.5695 0.822 1224.174 189.5137)">
								<stop  offset="0" style="stop-color:#7F7570"/>
								<stop  offset="6.156121e-02" style="stop-color:#796E67"/>
								<stop  offset="0.1619" style="stop-color:#6A5A4F"/>
								<stop  offset="0.2879" style="stop-color:#513A27"/>
								<stop  offset="0.3371" style="stop-color:#462C16"/>
								<stop  offset="0.4888" style="stop-color:#462C16"/>
								<stop  offset="0.6629" style="stop-color:#B4A990"/>
								<stop  offset="1" style="stop-color:#787065"/>
							</linearGradient>
							
								<polygon style="fill-rule:evenodd;clip-rule:evenodd;fill:url(#SVGID_00000121979908298062719220000017705066628231732134_);" points="
								-94.1,237.7 -92.9,238.6 -95.8,242.8 -97.1,242 							"/>
							<path class="st23" d="M-94.6,238l2,1.4c0.3,0.2,0.7,0.1,0.9-0.2c0.2-0.3,0.1-0.7-0.2-0.9l-1.9-1.3h-0.1
								C-93.8,237.1-94,237.9-94.6,238z"/>
						</g>
						<g>
							<path class="st20" d="M-84.3,244.7c0.2-0.3,0.6-0.4,0.9-0.2l2.3,1.6c0.3,0.2,0.4,0.6,0.2,0.9l0,0c-0.2,0.3-0.6,0.4-0.9,0.2
								l-2.3-1.6C-84.4,245.4-84.5,245-84.3,244.7L-84.3,244.7z"/>
							<path class="st20" d="M-81.2,246.4c0,0,0.4-0.1,1-0.2c0.6-0.1,1-0.3,1.4-0.9c0.4-0.5,1.1-1.7,1.6-2.1c0.4-0.4,1.3-1,1.2-1.4
								c-0.1-0.3-0.9-1.3-1.3-1.9c-0.4-0.6-0.8-1.1-2-1.6c-1.3-0.5-1.9-0.7-2.1-0.1c-0.3,0.6-0.9,1.3-1.1,1.6s-0.7,1.3-0.9,1.7
								c-0.2,0.5-0.6,0.9-0.4,2c0.3,1.1,0.5,1.3,0.5,1.3S-81.7,246.5-81.2,246.4z"/>
							<path class="st21" d="M-81.4,238.4c-0.3,0.6-0.9,1.3-1.1,1.6s-0.7,1.3-0.9,1.7c-0.1,0.3-0.3,0.5-0.4,1
								c0.1,1.2,0.6,1.5,1.1,1.8c0.7,0.4,1.6,0.1,2.4-0.6c0.8-0.7,1.9-2,2.5-2.9c0.4-0.5-0.3-1.5-0.9-2.2c-0.2-0.1-0.4-0.2-0.6-0.3
								C-80.5,238-81.1,237.8-81.4,238.4z"/>
							
								<linearGradient id="SVGID_00000121246756839243542470000016798197785967161752_" gradientUnits="userSpaceOnUse" x1="1041.3441" y1="793.246" x2="1042.8668" y2="793.246" gradientTransform="matrix(-0.822 -0.5695 -0.5695 0.822 1224.174 189.5137)">
								<stop  offset="0" style="stop-color:#7F7570"/>
								<stop  offset="6.156121e-02" style="stop-color:#796E67"/>
								<stop  offset="0.1619" style="stop-color:#6A5A4F"/>
								<stop  offset="0.2879" style="stop-color:#513A27"/>
								<stop  offset="0.3371" style="stop-color:#462C16"/>
								<stop  offset="0.4888" style="stop-color:#462C16"/>
								<stop  offset="0.6629" style="stop-color:#B4A990"/>
								<stop  offset="1" style="stop-color:#787065"/>
							</linearGradient>
							
								<polygon style="fill-rule:evenodd;clip-rule:evenodd;fill:url(#SVGID_00000121246756839243542470000016798197785967161752_);" points="
								-83.4,245.5 -82.1,246.4 -85.1,250.6 -86.3,249.7 							"/>
							<path class="st23" d="M-83.9,245.8l2,1.4c0.3,0.2,0.7,0.1,0.9-0.2c0.2-0.3,0.1-0.7-0.2-0.9l-1.9-1.3h-0.1
								C-83.1,244.9-83.3,245.7-83.9,245.8z"/>
						</g>
						<g>
							<path class="st20" d="M-120.5,258.2c-0.2,0.3-0.6,0.4-0.9,0.2l-2.3-1.6c-0.3-0.2-0.4-0.6-0.2-0.9l0,0
								c0.2-0.3,0.6-0.4,0.9-0.2l2.3,1.6C-120.3,257.5-120.3,257.9-120.5,258.2L-120.5,258.2z"/>
							<path class="st20" d="M-123.6,256.5c0,0-0.4,0.1-1,0.2s-1,0.3-1.4,0.9c-0.4,0.5-1.1,1.7-1.6,2.1c-0.4,0.4-1.3,1-1.2,1.4
								c0.1,0.3,0.9,1.3,1.3,1.9s0.8,1.1,2,1.6c1.3,0.5,1.9,0.7,2.1,0.1c0.3-0.6,0.9-1.3,1.1-1.6c0.2-0.3,0.7-1.3,0.9-1.7
								c0.2-0.5,0.6-0.9,0.4-2c-0.3-1.1-0.5-1.3-0.5-1.3S-123.1,256.5-123.6,256.5z"/>
							<path class="st21" d="M-123.4,264.5c0.3-0.6,0.9-1.3,1.1-1.6c0.2-0.3,0.7-1.3,0.9-1.7c0.1-0.3,0.3-0.5,0.4-1
								c-0.1-1.2-0.6-1.5-1.1-1.8c-0.7-0.4-1.6-0.1-2.4,0.6s-1.9,2-2.5,2.9c-0.4,0.5,0.3,1.5,0.9,2.2c0.2,0.1,0.4,0.2,0.6,0.3
								C-124.2,264.9-123.6,265.1-123.4,264.5z"/>
							
								<linearGradient id="SVGID_00000036222485213889241680000001759718090502723487_" gradientUnits="userSpaceOnUse" x1="491.0173" y1="327.164" x2="492.5398" y2="327.164" gradientTransform="matrix(0.822 0.5695 0.5695 -0.822 -711.0914 243.7327)">
								<stop  offset="0" style="stop-color:#7F7570"/>
								<stop  offset="6.156121e-02" style="stop-color:#796E67"/>
								<stop  offset="0.1619" style="stop-color:#6A5A4F"/>
								<stop  offset="0.2879" style="stop-color:#513A27"/>
								<stop  offset="0.3371" style="stop-color:#462C16"/>
								<stop  offset="0.4888" style="stop-color:#462C16"/>
								<stop  offset="0.6629" style="stop-color:#B4A990"/>
								<stop  offset="1" style="stop-color:#787065"/>
							</linearGradient>
							
								<polygon style="fill-rule:evenodd;clip-rule:evenodd;fill:url(#SVGID_00000036222485213889241680000001759718090502723487_);" points="
								-121.4,257.4 -122.6,256.6 -119.7,252.3 -118.5,253.2 							"/>
							<path class="st23" d="M-120.9,257.1l-2-1.4c-0.3-0.2-0.7-0.1-0.9,0.2c-0.2,0.3-0.1,0.7,0.2,0.9l1.9,1.3h0.1
								C-121.7,258.1-121.5,257.2-120.9,257.1z"/>
						</g>
						<g>
							<path class="st20" d="M-109.7,265.4c-0.2,0.3-0.6,0.4-0.9,0.2l-2.3-1.6c-0.3-0.2-0.4-0.6-0.2-0.9l0,0
								c0.2-0.3,0.6-0.4,0.9-0.2l2.3,1.6C-109.5,264.7-109.5,265.1-109.7,265.4L-109.7,265.4z"/>
							<path class="st20" d="M-112.8,263.7c0,0-0.4,0.1-1,0.2s-1,0.3-1.4,0.9c-0.4,0.5-1.1,1.7-1.6,2.1c-0.4,0.4-1.3,1-1.2,1.4
								c0.1,0.3,0.9,1.3,1.3,1.9s0.8,1.1,2,1.6c1.3,0.5,1.9,0.7,2.1,0.1c0.3-0.6,0.9-1.3,1.1-1.6c0.2-0.3,0.7-1.3,0.9-1.7
								c0.2-0.5,0.6-0.9,0.4-2c-0.3-1.1-0.5-1.3-0.5-1.3S-112.3,263.6-112.8,263.7z"/>
							<path class="st21" d="M-112.6,271.7c0.3-0.6,0.9-1.3,1.1-1.6c0.2-0.3,0.7-1.3,0.9-1.7c0.1-0.3,0.3-0.5,0.4-1
								c-0.1-1.2-0.6-1.5-1.1-1.8c-0.7-0.4-1.6-0.1-2.4,0.6s-1.9,2-2.5,2.9c-0.4,0.5,0.3,1.5,0.9,2.2c0.2,0.1,0.4,0.2,0.6,0.3
								C-113.4,272.1-112.8,272.3-112.6,271.7z"/>
							
								<linearGradient id="SVGID_00000031201709653015209010000015913316075322585219_" gradientUnits="userSpaceOnUse" x1="503.9894" y1="327.4091" x2="505.5119" y2="327.4091" gradientTransform="matrix(0.822 0.5695 0.5695 -0.822 -711.0914 243.7327)">
								<stop  offset="0" style="stop-color:#7F7570"/>
								<stop  offset="6.156121e-02" style="stop-color:#796E67"/>
								<stop  offset="0.1619" style="stop-color:#6A5A4F"/>
								<stop  offset="0.2879" style="stop-color:#513A27"/>
								<stop  offset="0.3371" style="stop-color:#462C16"/>
								<stop  offset="0.4888" style="stop-color:#462C16"/>
								<stop  offset="0.6629" style="stop-color:#B4A990"/>
								<stop  offset="1" style="stop-color:#787065"/>
							</linearGradient>
							
								<polygon style="fill-rule:evenodd;clip-rule:evenodd;fill:url(#SVGID_00000031201709653015209010000015913316075322585219_);" points="
								-110.6,264.6 -111.8,263.7 -108.9,259.5 -107.7,260.4 							"/>
							<path class="st23" d="M-110.1,264.3l-2-1.4c-0.3-0.2-0.7-0.1-0.9,0.2c-0.2,0.3-0.1,0.7,0.2,0.9l1.9,1.3h0.1
								C-110.9,265.2-110.7,264.4-110.1,264.3z"/>
						</g>
						<g>
							<path class="st20" d="M-99.1,273c-0.2,0.3-0.6,0.4-0.9,0.2l-2.3-1.6c-0.3-0.2-0.4-0.6-0.2-0.9l0,0c0.2-0.3,0.6-0.4,0.9-0.2
								l2.3,1.6C-99,272.3-98.9,272.7-99.1,273L-99.1,273z"/>
							<path class="st20" d="M-102.3,271.3c0,0-0.4,0.1-1,0.2s-1,0.3-1.4,0.9c-0.4,0.5-1.1,1.7-1.6,2.1c-0.4,0.4-1.3,1-1.2,1.4
								c0.1,0.3,0.9,1.3,1.3,1.9s0.8,1.1,2,1.6c1.3,0.5,1.9,0.7,2.1,0.1c0.3-0.6,0.9-1.3,1.1-1.6c0.2-0.3,0.7-1.3,0.9-1.7
								c0.2-0.5,0.6-0.9,0.4-2c-0.3-1.1-0.5-1.3-0.5-1.3S-101.8,271.2-102.3,271.3z"/>
							<path class="st21" d="M-102,279.3c0.3-0.6,0.9-1.3,1.1-1.6c0.2-0.3,0.7-1.3,0.9-1.7c0.1-0.3,0.3-0.5,0.4-1
								c-0.1-1.2-0.6-1.5-1.1-1.8c-0.7-0.4-1.6-0.1-2.4,0.6s-1.9,2-2.5,2.9c-0.4,0.5,0.3,1.5,0.9,2.2c0.2,0.1,0.4,0.2,0.6,0.3
								C-102.9,279.7-102.3,279.9-102,279.3z"/>
							
								<linearGradient id="SVGID_00000165919013347229259410000001158739124051468936_" gradientUnits="userSpaceOnUse" x1="516.9617" y1="327.1419" x2="518.4844" y2="327.1419" gradientTransform="matrix(0.822 0.5695 0.5695 -0.822 -711.0914 243.7327)">
								<stop  offset="0" style="stop-color:#7F7570"/>
								<stop  offset="6.156121e-02" style="stop-color:#796E67"/>
								<stop  offset="0.1619" style="stop-color:#6A5A4F"/>
								<stop  offset="0.2879" style="stop-color:#513A27"/>
								<stop  offset="0.3371" style="stop-color:#462C16"/>
								<stop  offset="0.4888" style="stop-color:#462C16"/>
								<stop  offset="0.6629" style="stop-color:#B4A990"/>
								<stop  offset="1" style="stop-color:#787065"/>
							</linearGradient>
							
								<polygon style="fill-rule:evenodd;clip-rule:evenodd;fill:url(#SVGID_00000165919013347229259410000001158739124051468936_);" points="
								-100.1,272.2 -101.3,271.3 -98.4,267.1 -97.1,268 							"/>
							<path class="st23" d="M-99.6,271.9l-2-1.4c-0.3-0.2-0.7-0.1-0.9,0.2c-0.2,0.3-0.1,0.7,0.2,0.9l1.9,1.3h0.1
								C-100.4,272.8-100.2,272-99.6,271.9z"/>
						</g>
					</g>
					<polygon class="st29" points="-68.2,266.1 90,374.4 76.9,393.4 -78,280.3 					"/>
					<path class="st30" d="M-78,280.3c0,0-8.1-6.7-15.9-5.4c-8.2-6.4-22.6-17.3-39.5-25.9c2.6-3.1,4.2-7.5,4.6-10.5
						c0.4-3.1,3.4-3.9,3.4-3.9s-0.8-1.7,1.8-3.6c2.5-1.9,5.6-3.5,8.3-8.3c3,2.5,25.4,21.1,38.7,30.3c0.2,2.7,1.5,8.3,8.5,13.1
						L-78,280.3z"/>
					<g>
						<path class="st31" d="M-79.1,279.5c0.7,0.5,1.1,0.8,1.1,0.8l9.9-14.2c-0.4-0.3-0.7-0.5-1.1-0.8L-79.1,279.5z"/>
						<polygon class="st32" points="48.7,372.8 49.7,373.5 62.3,355.4 61.3,354.7 						"/>
						<polygon class="st32" points="43.8,369.2 44.8,369.9 57.2,352 56.2,351.3 						"/>
						<polygon class="st32" points="53.2,376.1 54.2,376.8 66.8,358.5 65.8,357.8 						"/>
						<polygon class="st32" points="27.4,357.3 28.4,358 40.5,340.5 39.5,339.9 						"/>
						<polygon class="st32" points="33.2,361.5 34.2,362.2 46.4,344.6 45.4,343.9 						"/>
						<polygon class="st32" points="38.7,365.5 39.7,366.2 52,348.4 51,347.7 						"/>
						<polygon class="st32" points="86.9,372.3 85.9,371.6 72.9,390.4 73.9,391.2 						"/>
						<polygon class="st32" points="69.3,387.8 70.3,388.5 83.2,369.8 82.2,369.1 						"/>
						<polygon class="st32" points="65.7,385.2 66.7,385.9 79.6,367.3 78.6,366.6 						"/>
						<polygon class="st32" points="61.7,382.3 62.7,383 75.5,364.5 74.5,363.8 						"/>
						<polygon class="st32" points="57.6,379.3 58.6,380 71.3,361.6 70.3,360.9 						"/>
						<polygon class="st32" points="-44,305.2 -43,305.9 -32.4,290.6 -33.4,289.9 						"/>
						<polygon class="st32" points="-34,312.4 -33,313.2 -22.2,297.6 -23.2,296.9 						"/>
						<polygon class="st32" points="-24.8,319.1 -23.8,319.9 -12.8,304 -13.8,303.3 						"/>
						<polygon class="st32" points="-15.9,325.7 -14.9,326.4 -3.7,310.3 -4.7,309.6 						"/>
						<polygon class="st32" points="-54.8,297.3 -53.8,298 -43.5,283 -44.5,282.3 						"/>
						<polygon class="st32" points="21,352.6 22,353.3 34,336.1 33,335.4 						"/>
						<polygon class="st32" points="-66.1,289 -65.1,289.8 -55,275.2 -56,274.5 						"/>
						<polygon class="st32" points="14.7,348 15.7,348.7 27.5,331.6 26.5,331 						"/>
						<polygon class="st32" points="7.5,342.7 8.5,343.4 20.1,326.6 19.1,325.9 						"/>
						<polygon class="st32" points="0.2,337.4 1.2,338.2 12.8,321.5 11.7,320.8 						"/>
						<polygon class="st32" points="-7.5,331.8 -6.5,332.5 4.9,316.1 3.9,315.4 						"/>
					</g>
					<g>
						<polygon class="st33" points="-43.8,286.6 -50.8,296.7 -44.3,299.2 -39.5,292.2 						"/>
						<polygon class="st33" points="-23.6,301.1 -30.5,311.1 -24.3,313.3 -19.4,306.2 						"/>
						<polygon class="st33" points="-12.6,324.4 -4.8,313.1 -1.6,317.9 -7.1,325.8 						"/>
						<polygon class="st33" points="3.6,335.7 11.3,324.7 14.4,329.2 8.9,337.1 						"/>
						<polygon class="st33" points="32.8,339 24.4,351.1 28.7,351.6 34.8,342.8 						"/>
						<polygon class="st33" points="46.1,364 52.5,354.8 50.4,351.7 42.3,363.4 						"/>
						<polygon class="st33" points="51.7,371.7 61.2,358 62.4,360.8 54.8,371.8 						"/>
						<polygon class="st33" points="63.7,378.2 60.8,378.1 70.3,364.4 71.7,366.9 						"/>
						<polygon class="st33" points="78.3,370.1 68.9,383.6 71.6,383.7 79.3,372.7 						"/>
					</g>
					<g>
						<g>
							<path class="st34" d="M147.1,409.2c1-1.5,3-1.9,4.5-0.9l0.1,0.1c1.5,1,1.9,3,0.9,4.5l-17.3,25.9c-1,1.5-3,1.9-4.5,0.9
								l-0.1-0.1c-1.5-1-1.9-3-0.9-4.5L147.1,409.2z"/>
							<path class="st35" d="M131.7,436.9c0.2-0.3,0.6-0.4,1-0.2c0.3,0.2,0.4,0.6,0.2,1c-0.2,0.3-0.6,0.4-1,0.2
								C131.6,437.7,131.5,437.2,131.7,436.9z"/>
							<path class="st35" d="M149.2,410.8c0.2-0.3,0.6-0.4,1-0.2c0.3,0.2,0.4,0.6,0.2,1c-0.2,0.3-0.6,0.4-1,0.2
								C149,411.5,149,411.1,149.2,410.8z"/>
						</g>
						<g>
							<g>
								<path class="st36" d="M133.6,431.4c0.1-0.2,0.4-0.3,0.6-0.1l2.6,1.8c0.2,0.1,0.3,0.4,0.1,0.6l-1,1.5
									c-0.1,0.2-0.4,0.3-0.6,0.1l-2.6-1.8c-0.2-0.1-0.3-0.4-0.1-0.6L133.6,431.4z"/>
								<path class="st37" d="M135.4,431.7c0.1-0.2,0.4-0.3,0.6-0.1l0,0c0.2,0.1,0.3,0.4,0.1,0.6l-1.8,2.7c-0.1,0.2-0.4,0.3-0.6,0.1
									l0,0c-0.2-0.1-0.3-0.4-0.1-0.6L135.4,431.7z"/>
							</g>
							<g>
								<path class="st36" d="M135.9,428c0.1-0.2,0.4-0.3,0.6-0.1l2.6,1.8c0.2,0.1,0.3,0.4,0.1,0.6l-1,1.5c-0.1,0.2-0.4,0.3-0.6,0.1
									l-2.6-1.8c-0.2-0.1-0.3-0.4-0.1-0.6L135.9,428z"/>
								<path class="st37" d="M137.6,428.3c0.1-0.2,0.4-0.3,0.6-0.1l0,0c0.2,0.1,0.3,0.4,0.1,0.6l-1.8,2.7c-0.1,0.2-0.4,0.3-0.6,0.1
									l0,0c-0.2-0.1-0.3-0.4-0.1-0.6L137.6,428.3z"/>
							</g>
							<g>
								<path class="st36" d="M138.5,424.5c0.1-0.2,0.4-0.3,0.6-0.1l2.6,1.8c0.2,0.1,0.3,0.4,0.1,0.6l-1,1.5
									c-0.1,0.2-0.4,0.3-0.6,0.1l-2.6-1.8c-0.2-0.1-0.3-0.4-0.1-0.6L138.5,424.5z"/>
								<path class="st37" d="M140.3,424.7c0.1-0.2,0.4-0.3,0.6-0.1l0,0c0.2,0.1,0.3,0.4,0.1,0.6l-1.8,2.7c-0.1,0.2-0.4,0.3-0.6,0.1
									l0,0c-0.2-0.1-0.3-0.4-0.1-0.6L140.3,424.7z"/>
							</g>
							<g>
								<path class="st36" d="M140.4,420.8c0.1-0.2,0.4-0.3,0.6-0.1l2.6,1.8c0.2,0.1,0.3,0.4,0.1,0.6l-1,1.5
									c-0.1,0.2-0.4,0.3-0.6,0.1l-2.6-1.8c-0.2-0.1-0.3-0.4-0.1-0.6L140.4,420.8z"/>
								<path class="st37" d="M142.2,421.1c0.1-0.2,0.4-0.3,0.6-0.1l0,0c0.2,0.1,0.3,0.4,0.1,0.6l-1.8,2.7c-0.1,0.2-0.4,0.3-0.6,0.1
									l0,0c-0.2-0.1-0.3-0.4-0.1-0.6L142.2,421.1z"/>
							</g>
							<g>
								<path class="st36" d="M142.8,417.3c0.1-0.2,0.4-0.3,0.6-0.1l2.6,1.8c0.2,0.1,0.3,0.4,0.1,0.6l-1,1.5
									c-0.1,0.2-0.4,0.3-0.6,0.1l-2.6-1.8c-0.2-0.1-0.3-0.4-0.1-0.6L142.8,417.3z"/>
								<path class="st37" d="M144.6,417.6c0.1-0.2,0.4-0.3,0.6-0.1l0,0c0.2,0.1,0.3,0.4,0.1,0.6l-1.8,2.7c-0.1,0.2-0.4,0.3-0.6,0.1
									l0,0c-0.2-0.1-0.3-0.4-0.1-0.6L144.6,417.6z"/>
							</g>
							<g>
								<path class="st36" d="M145.1,413.2c0.1-0.2,0.4-0.3,0.6-0.1l2.6,1.8c0.2,0.1,0.3,0.4,0.1,0.6l-1,1.5
									c-0.1,0.2-0.4,0.3-0.6,0.1l-2.6-1.8c-0.2-0.1-0.3-0.4-0.1-0.6L145.1,413.2z"/>
								<path class="st37" d="M146.9,413.5c0.1-0.2,0.4-0.3,0.6-0.1l0,0c0.2,0.1,0.3,0.4,0.1,0.6l-1.8,2.7c-0.1,0.2-0.4,0.3-0.6,0.1
									l0,0c-0.2-0.1-0.3-0.4-0.1-0.6L146.9,413.5z"/>
							</g>
						</g>
					</g>
					<g>
						<path class="st38" d="M98.7,378.1c0.3-0.5,1-0.6,1.5-0.3l11,7.6c0.5,0.3,0.6,1,0.3,1.5l-15.2,21.9c-0.3,0.5-1,0.6-1.5,0.3
							l-11-7.6c-0.5-0.3-0.6-1-0.3-1.5L98.7,378.1z"/>
						<g>
							<path class="st39" d="M87.7,399.1c0.4-0.5,1.1-0.7,1.6-0.3c0.5,0.4,0.7,1.1,0.3,1.6c-0.4,0.5-1.1,0.7-1.6,0.3
								C87.4,400.3,87.3,399.6,87.7,399.1z"/>
							<path class="st39" d="M90,395.7c0.4-0.5,1.1-0.7,1.6-0.3c0.5,0.4,0.7,1.1,0.3,1.6c-0.4,0.5-1.1,0.7-1.6,0.3
								C89.8,396.9,89.7,396.2,90,395.7z"/>
							<path class="st39" d="M92.4,392.2c0.4-0.5,1.1-0.7,1.6-0.3c0.5,0.4,0.7,1.1,0.3,1.6c-0.4,0.5-1.1,0.7-1.6,0.3
								C92.2,393.5,92.1,392.7,92.4,392.2z"/>
							<path class="st39" d="M94.8,388.8c0.4-0.5,1.1-0.7,1.6-0.3c0.5,0.4,0.7,1.1,0.3,1.6c-0.4,0.5-1.1,0.7-1.6,0.3
								C94.6,390,94.4,389.3,94.8,388.8z"/>
							<path class="st39" d="M97.2,385.3c0.4-0.5,1.1-0.7,1.6-0.3c0.5,0.4,0.7,1.1,0.3,1.6c-0.4,0.5-1.1,0.6-1.6,0.3
								C97,386.6,96.8,385.9,97.2,385.3z"/>
							<path class="st39" d="M99.6,381.9c0.4-0.5,1.1-0.7,1.6-0.3c0.5,0.4,0.7,1.1,0.3,1.6c-0.4,0.5-1.1,0.7-1.6,0.3
								C99.3,383.1,99.2,382.4,99.6,381.9z"/>
						</g>
					</g>
					<g>
						<path class="st38" d="M129.7,399.7c0.3-0.5,1-0.6,1.5-0.3l11,7.6c0.5,0.3,0.6,1,0.3,1.5l-15.2,21.9c-0.3,0.5-1,0.6-1.5,0.3
							l-11-7.6c-0.5-0.3-0.6-1-0.3-1.5L129.7,399.7z"/>
						<g>
							<path class="st39" d="M118.7,420.7c0.4-0.5,1.1-0.7,1.6-0.3c0.5,0.4,0.7,1.1,0.3,1.6c-0.4,0.5-1.1,0.7-1.6,0.3
								C118.4,421.9,118.3,421.2,118.7,420.7z"/>
							<path class="st39" d="M121,417.2c0.4-0.5,1.1-0.7,1.6-0.3c0.5,0.4,0.7,1.1,0.3,1.6c-0.4,0.5-1.1,0.7-1.6,0.3
								C120.8,418.5,120.7,417.8,121,417.2z"/>
							<path class="st39" d="M123.4,413.8c0.4-0.5,1.1-0.7,1.6-0.3c0.5,0.4,0.7,1.1,0.3,1.6c-0.4,0.5-1.1,0.7-1.6,0.3
								C123.2,415,123.1,414.3,123.4,413.8z"/>
							<path class="st39" d="M125.8,410.4c0.4-0.5,1.1-0.7,1.6-0.3c0.5,0.4,0.7,1.1,0.3,1.6s-1.1,0.7-1.6,0.3
								C125.6,411.6,125.4,410.9,125.8,410.4z"/>
							<path class="st39" d="M128.2,406.9c0.4-0.5,1.1-0.7,1.6-0.3c0.5,0.4,0.7,1.1,0.3,1.6s-1.1,0.7-1.6,0.3
								C127.9,408.2,127.8,407.5,128.2,406.9z"/>
							<path class="st39" d="M130.6,403.5c0.4-0.5,1.1-0.7,1.6-0.3c0.5,0.4,0.7,1.1,0.3,1.6s-1.1,0.7-1.6,0.3
								C130.3,404.7,130.2,404,130.6,403.5z"/>
						</g>
					</g>
					<g>
						<path class="st40" d="M142.7,450.9c1.4,1,3,1.5,4.2,1.4l1-1.5l1-1.5l17.7-24.8l1.5-2.1l1.5-2.1c-0.2-1.3-1.1-2.6-2.4-3.5
							c-1.3-0.9-2.8-1.3-4.2-1.1l-1.5,2.1l-1.5,2.1l-17.5,24.5l-1.2,1.7l-1.2,1.7C140.6,448.9,141.4,450,142.7,450.9"/>
						<polygon class="st41" points="164.2,423 165.2,423.8 148.6,447 147.6,446.2 						"/>
						<polygon class="st42" points="163.1,421.4 164,421.9 146.9,445.9 146.1,445.3 						"/>
						<polygon class="st43" points="144.8,445.4 164.6,417.7 162.7,416.4 161.6,417.8 160.1,419.9 142.9,444 						"/>
						<path class="st42" d="M142.2,446.1c1-1.3,2.8-1.7,4.1-0.7c1.3,0.9,1.6,2.8,0.7,4.1c-1,1.3-2.8,1.7-4.1,0.7
							C141.6,449.3,141.3,447.4,142.2,446.1"/>
						<path class="st44" d="M142.4,446.9c0.8-1.1,2.3-1.3,3.5-0.5s1.5,2.3,0.7,3.4s-2.3,1.3-3.5,0.5S141.6,448,142.4,446.9"/>
						<path class="st42" d="M146.2,446.8c-0.1-0.1-0.2-0.2-0.4-0.3c-0.1-0.1-0.3-0.2-0.4-0.3l-2.7,3.8c0.1,0.1,0.2,0.2,0.4,0.3
							c0.1,0.1,0.3,0.2,0.4,0.3L146.2,446.8z"/>
						<path class="st42" d="M162.5,418.4c1-1.3,2.8-1.7,4.1-0.7c1.3,0.9,1.6,2.8,0.7,4.1c-1,1.3-2.8,1.7-4.1,0.7
							C161.8,421.6,161.5,419.8,162.5,418.4"/>
						<path class="st44" d="M162.6,419.2c0.8-1.1,2.3-1.3,3.5-0.5s1.5,2.3,0.7,3.4s-2.3,1.3-3.5,0.5
							C162.2,421.8,161.9,420.3,162.6,419.2"/>
						<path class="st42" d="M166.5,419.1c-0.1-0.1-0.2-0.2-0.4-0.3c-0.1-0.1-0.3-0.2-0.4-0.3l-2.7,3.8c0.1,0.1,0.2,0.2,0.4,0.3
							c0.1,0.1,0.3,0.2,0.4,0.3L166.5,419.1z"/>
					</g>
					<g>
						<g>
							<g>
								<path class="st45" d="M201.8,428.7c1.7-2.5,5.1-3.1,7.6-1.4s3.1,5.1,1.4,7.6c-1.7,2.5-5.1,3.1-7.6,1.4
									C200.7,434.6,200.1,431.2,201.8,428.7z"/>
								<path class="st46" d="M203.7,430.1c1.1-1.6,3.4-2.1,5-0.9c1.6,1.1,2.1,3.4,0.9,5c-1.1,1.6-3.4,2.1-5,0.9
									C203,434,202.6,431.8,203.7,430.1z"/>
							</g>
							<g>
								<path class="st45" d="M189.9,414.1c1.7-2.5,5.1-3.1,7.6-1.4s3.1,5.1,1.4,7.6c-1.7,2.5-5.1,3.1-7.6,1.4
									S188.2,416.6,189.9,414.1z"/>
								<path class="st46" d="M191.8,415.6c1.1-1.6,3.4-2.1,5-0.9c1.6,1.1,2.1,3.4,0.9,5c-1.1,1.6-3.4,2.1-5,0.9
									C191.1,419.5,190.7,417.2,191.8,415.6z"/>
							</g>
							<g>
								<path class="st45" d="M212.6,416.4c1.7-2.5,5.1-3.1,7.6-1.4s3.1,5.1,1.4,7.6c-1.7,2.5-5.1,3.1-7.6,1.4
									S210.9,418.9,212.6,416.4z"/>
								<path class="st46" d="M214.5,417.9c1.1-1.6,3.4-2.1,5-0.9c1.6,1.1,2.1,3.4,0.9,5c-1.1,1.6-3.4,2.1-5,0.9
									C213.8,421.7,213.4,419.5,214.5,417.9z"/>
							</g>
							<g>
								<path class="st45" d="M199.1,399.7c1.7-2.5,5.1-3.1,7.6-1.4s3.1,5.1,1.4,7.6c-1.7,2.5-5.1,3.1-7.6,1.4
									C198,405.5,197.4,402.1,199.1,399.7z"/>
								<path class="st46" d="M201,401.1c1.1-1.6,3.4-2.1,5-0.9c1.6,1.1,2.1,3.4,0.9,5c-1.1,1.6-3.4,2.1-5,0.9
									C200.3,405,199.9,402.7,201,401.1z"/>
							</g>
						</g>
						<g>
							<path class="st47" d="M176.5,396.2c2.1-3,6.3-3.8,9.3-1.7c3,2.1,3.8,6.3,1.7,9.3s-6.3,3.8-9.3,1.7
								C175.1,403.4,174.3,399.3,176.5,396.2z"/>
							<path class="st48" d="M179.1,398.1c1.1-1.6,3.2-2,4.8-0.9s2,3.2,0.9,4.8c-1.1,1.6-3.2,2-4.8,0.9
								C178.4,401.8,178.1,399.6,179.1,398.1z"/>
							<path class="st49" d="M179.9,398.6c0.8-1.1,2.3-1.4,3.4-0.6c1.1,0.8,1.4,2.3,0.6,3.4c-0.8,1.1-2.3,1.4-3.4,0.6
								C179.4,401.3,179.2,399.7,179.9,398.6z"/>
							<path class="st50" d="M180.7,399.5c0.5-0.7,1.5-0.9,2.3-0.4c0.7,0.5,0.9,1.5,0.4,2.3c-0.5,0.7-1.5,0.9-2.3,0.4
								C180.4,401.3,180.2,400.3,180.7,399.5z"/>
						</g>
						<g>
							<path class="st51" d="M211.9,439.4c1.1-1.5,3.1-1.9,4.7-0.8c1.5,1.1,1.9,3.1,0.8,4.7c-1.1,1.5-3.1,1.9-4.7,0.8
								C211.2,443.1,210.8,441,211.9,439.4z"/>
							<polygon class="st52" points="216.3,439.4 217.2,441.8 215.5,443.8 213,443.3 212.1,440.9 213.8,438.9 							"/>
							<path class="st53" d="M213.6,440.6c0.4-0.6,1.2-0.8,1.8-0.3c0.6,0.4,0.8,1.2,0.3,1.8c-0.4,0.6-1.2,0.8-1.8,0.3
								C213.3,442,213.1,441.2,213.6,440.6z"/>
						</g>
					</g>
					<g>
						<g>
							<path class="st54" d="M-100.2,263.8c1.4-1.1,3.3-0.8,4.4,0.6s0.8,3.3-0.6,4.4s-3.3,0.8-4.4-0.6S-101.6,264.9-100.2,263.8"/>
							<polygon class="st55" points="-99.3,263.5 -96.8,263.9 -95.9,266.3 -97.5,268.3 -100.1,267.9 -101,265.5 							"/>
						</g>
						<g>
							<path class="st54" d="M-111,255.8c1.4-1.1,3.3-0.8,4.4,0.6s0.8,3.3-0.6,4.4s-3.3,0.8-4.4-0.6
								C-112.6,258.8-112.4,256.8-111,255.8"/>
							<polygon class="st55" points="-110.1,255.5 -107.6,255.9 -106.7,258.3 -108.3,260.3 -110.8,259.8 -111.7,257.4 							"/>
						</g>
						<g>
							<path class="st54" d="M-121.9,248.5c1.4-1.1,3.3-0.8,4.4,0.6c1.1,1.4,0.8,3.3-0.6,4.4c-1.4,1.1-3.3,0.8-4.4-0.6
								C-123.5,251.5-123.3,249.6-121.9,248.5"/>
							<polygon class="st55" points="-121,248.2 -118.5,248.7 -117.6,251.1 -119.2,253 -121.7,252.6 -122.6,250.2 							"/>
						</g>
						<g>
							<path class="st54" d="M-89.9,248.5c1.4-1.1,3.3-0.8,4.4,0.6c1.1,1.4,0.8,3.3-0.6,4.4c-1.4,1.1-3.3,0.8-4.4-0.6
								C-91.5,251.5-91.3,249.5-89.9,248.5"/>
							<polygon class="st55" points="-89,248.2 -86.5,248.6 -85.6,251 -87.2,253 -89.7,252.6 -90.6,250.2 							"/>
						</g>
						<g>
							<path class="st54" d="M-100.6,240.7c1.4-1.1,3.3-0.8,4.4,0.6c1.1,1.4,0.8,3.3-0.6,4.4c-1.4,1.1-3.3,0.8-4.4-0.6
								C-102.2,243.7-102,241.7-100.6,240.7"/>
							<polygon class="st55" points="-99.7,240.4 -97.2,240.8 -96.3,243.2 -97.9,245.2 -100.4,244.8 -101.3,242.4 							"/>
						</g>
						<g>
							<path class="st54" d="M-110.9,232.6c1.4-1.1,3.3-0.8,4.4,0.6c1.1,1.4,0.8,3.3-0.6,4.4c-1.4,1.1-3.3,0.8-4.4-0.6
								C-112.5,235.6-112.3,233.6-110.9,232.6"/>
							<polygon class="st55" points="-110,232.3 -107.5,232.7 -106.6,235.1 -108.2,237.1 -110.7,236.6 -111.6,234.2 							"/>
						</g>
					</g>
					<g>
						<g>
							<path class="st56" d="M146.6,440.6l-11.6-7.5L-77.4,279L-99,264.5l-0.3,0.4l21.6,14.5l212.4,154.1l11.6,7.5L146.6,440.6z"/>
						</g>
						<g>
							<path class="st56" d="M149,437.2l-11.7-7.8L-75.9,276.7l-34-20.2l-0.2,0.4l34,20.2l213.2,152.6l11.7,7.8L149,437.2z"/>
						</g>
						<g>
							<path class="st56" d="M151.7,433.8l-11.6-7.8L-74.1,274.4l0,0l0,0l-46.8-24.9l-0.2,0.4l46.8,24.9l0,0l214.2,151.7l11.6,7.8
								L151.7,433.8z"/>
						</g>
						<g>
							<polygon class="st56" points="154.1,430.5 142,422.2 -72.8,271.7 -72.8,271.7 -110.3,234.3 -110.6,234.6 -73,272 -73,272 
								-73,272 141.8,422.6 153.9,430.8 							"/>
						</g>
						<g>
							<polygon class="st56" points="156.5,426.9 144.4,418.4 -70.7,269.4 -70.7,269.4 -100.2,242.4 -100.4,242.6 -70.9,269.6 
								-70.9,269.6 -70.9,269.6 144.2,418.7 156.3,427.1 							"/>
						</g>
						<g>
							<path class="st56" d="M159.1,423.2l-12.4-8.4L-69,267.2l-20.8-17.3l-0.2,0.2l20.8,17.3L146.4,415l12.4,8.4L159.1,423.2z"/>
						</g>
					</g>
					<g>
						<g>
							<path class="st57" d="M-118.1,234.1c0,0.1,0,0.1-0.1,0.1c-0.1,0.1-0.1,0.1-0.2,0.1c-0.2,0-0.4-0.2-0.5-0.3s-0.2-0.2-0.3-0.3
								c-0.1-0.1-0.1-0.1-0.2-0.2c-0.2-0.2-0.4-0.2-0.5-0.1c-0.1,0.1-0.3,0.3-0.3,0.5c0.7,0.5,1.3,1.1,1.9,1.5
								c0.1,0.1,0.1,0.3,0,0.5c-0.2,0.2-0.5,0.2-0.6,0c-0.3-0.3-0.7-0.6-1.1-0.9c-0.1-0.1-0.2-0.3-0.1-0.4c-0.1-0.1-0.2-0.1-0.3-0.2
								c-0.3,0.3-0.2,0.8-0.2,1.1c0.1,0.3,0.1,0.5,0.1,0.6c-0.1,0.1-0.2,0.1-0.3,0.1c-0.1-0.1-0.2-0.2-0.2-0.2
								c-0.1,0.2-0.6,1.1-0.5,1.6c0,1.2,1.5,0.6,1.6,0.6s0.2-0.1,0.3-0.1c0.1,0,0.3,0.1,0.3,0.2c0,0.1,0,0.2,0,0.3
								c-0.1,0.2-0.4,0.1-0.5,0.1h-0.1c0,0-0.1,0.1-0.1,0.2c0,0.1-0.2,0.5-0.2,0.5l-0.1,0.1c-0.1,0-0.2,0-0.3-0.1l-0.1-0.1
								c-0.1-0.1-0.1-0.1-0.2-0.2l-0.1-0.1c-0.1-0.1-0.4-0.4-0.6-0.4c-0.1,0-0.2,0-0.3,0.1c-0.1,0.1-0.1,0.2-0.2,0.3
								c0,0.1-0.1,0.1,0,0.2c0,0.1,0.1,0.1,0.1,0.1l0.2,0.2l0.1-0.2c0.1,0,0.1,0,0.2,0.1c0.3,0.3,0.7,0.6,1,0.8
								c0.1,0.1,0.4,0.3,0.4,0.5c0,0.3-0.4,0.5-0.6,0.3c-0.1-0.1-0.2-0.2-0.3-0.2c-0.2-0.1-0.3-0.3-0.5-0.4
								c-0.2-0.2-0.4-0.3-0.6-0.5c-0.4-0.3-2-1.6-2.4-2c-0.1,0.4-0.2,0.6-0.3,0.8c0.1,0.1,0.2,0.2,0.4,0.3c0.2,0.2,0.4,0.4,0.7,0.5
								c0.3,0.2,0.5,0.4,0.8,0.6c0.2,0.2,0.4,0.3,0.6,0.5c0.3,0.3,0.7,0.6,0.9,0.9c0,0.1,0.1,0.1,0.1,0.2c0.1,0.1,0.1,0.2,0.1,0.3
								s-0.1,0.2-0.2,0.3c-0.2,0.1-0.3,0-0.4-0.1s-0.2-0.2-0.3-0.3c-0.2-0.2-0.5-0.4-0.7-0.6c-0.1,0-0.1-0.1-0.2-0.1l-0.3,0.7
								c0.1,0.1,0.2,0.2,0.3,0.3c0.1,0.1,0.3,0.2,0.4,0.3c0.2,0.1,0.3,0.3,0.5,0.5c0.1,0.2,0.3,0.4,0.3,0.6c0,0.1,0,0.2-0.1,0.2
								s-0.2,0-0.3-0.1l-1.3-1.1l-0.3,0.7c0.2,0.2,0.5,0.4,0.9,0.8c1.1,0.9,0.7,1.5,0.5,1.7c-0.7-0.5-2.1-1.7-2.9-2.4
								c-0.5-0.4-0.6-0.7-0.2-1.2c0.2-0.2,0.2-0.2,0.4,0c0.3,0.2,0.5,0.4,0.8,0.6c0.1-0.3,0.2-0.6,0.4-1c-0.4-0.3-0.6-0.5-0.9-0.7
								c-0.7-0.6-1.1,0.6-1.3,0.9c-0.1,0.3-0.5,1.3,0,1.7c0.2,0.1,2.9,2.4,3.6,2.9c0.2,0.1,0.5,0.2,0.7,0c0.4-0.5,0.1-1.5,0.7-1.2
								l1.9,1.6l0.3-0.9l-1.6-1.3c-0.3-0.2-0.6-0.5-0.7-0.9c0,0,0-0.2,0-0.3c0-0.2,0.1-0.2,0.2-0.2s0.4,0,0.5,0
								c0.1-0.1,0.1-0.2,0.1-0.3s0-0.2-0.1-0.3s-0.2-0.4-0.1-0.5s0-0.1,0.1-0.1c0.2-0.1,0.2,0,0.4,0.1c0.2-0.4,0.4-0.9,0.4-1
								c0.1-0.2,0.1-0.4,0.2-0.6c0-0.2,0.1-0.5,0-0.7c0-0.1-0.1-0.1-0.1-0.2c0-0.1,0-0.2,0.1-0.2c0.1-0.1,0.1-0.1,0.2-0.1
								c0,0,0.1,0.1,0.3,0.2c0.1-0.1,0,0,0.1-0.1v-0.1v-0.1c0-0.1,0.1-0.2,0.1-0.3c0.1-0.2,0.2-0.3,0.2-0.5c0-0.1,0.1-0.2,0.1-0.4
								c0-0.3,0-0.6-0.2-0.8c0,0-0.4-0.3-1.1-0.1c-0.2,0.1-0.4,0.2-0.6,0.2s-0.3,0-0.3-0.2c0-0.1,0.1-0.2,0.1-0.2
								c0.1-0.1,0.2-0.1,0.3-0.1c0.1,0,0.1,0,0.2,0s0.1,0,0.2,0c0.1-0.1,0-0.2,0-0.2c0-0.1,0-0.2,0-0.3s0.1-0.2,0.2-0.2
								s0.3,0.2,0.4,0.3c0.2,0.1,0.2,0.2,0.3,0.3c0.9,0.7,1.5-0.5,1.6-1.7c0-0.1,0-0.2,0-0.4c0-0.1,0-0.2,0-0.3s0.1-0.1,0.1-0.2
								c0.1,0,0.1,0,0.2,0.1l0.1,0.1c0.1-0.4,0.2-0.5,0.3-0.8c-0.1-0.1-0.4-0.3-0.5-0.4c-0.4-0.4-0.6-0.5-1-0.8
								c-0.1-0.2,0.1-0.4,0.3-0.3c0.4,0.4,1.6,1.3,2.4,1.9c0.2,0.2,0.4,0.3,0.6,0.5c0.1,0.1,0.3,0.1,0.5,0.1c0,0,0.1,0,0.1-0.1
								c0.2-0.1,0.3-0.3,0.3-0.5c0.1-0.3,0.1-0.6-0.1-0.8c0-0.1-0.1-0.1-0.1-0.2c-0.2-0.1-0.2-0.2-0.3-0.3c0,0-0.1,0.2-0.1,0.3
								l0.1,0.1c0.1,0.1,0.1,0.1,0.2,0.2v0.1c0,0,0,0.1-0.1,0.1c-0.2,0.2-0.3,0-0.4,0c-0.2-0.2-2.6-2.1-2.8-2.3
								c-0.2-0.2-0.5-0.4-0.6-0.5s0,0-0.1-0.1s-0.2,0.1-0.2,0.2c0,0.1-0.3,1-0.4,0.9c0,0-0.1,0-0.1-0.1c-0.1-0.1-0.3,0.3-0.3,0.5
								c0,0.1-0.1,0.2-0.1,0.2s0.1,0.1,0.2,0.1c0.2,0.1,0.3,0.3,0.5,0.4c0.2,0.2,0.4,0.3,0.5,0.5c0,0.1,0.1,0.1,0.1,0.2
								c0.1,0.1,0.1,0.2,0.2,0.3C-118.1,234-118.1,234.1-118.1,234.1"/>
							<polygon class="st58" points="-98,256.6 -96.8,254.8 -99.9,249 -101.2,249.4 -100.4,250.6 -100.8,250.8 -101.8,249.3 
								-103.2,247.2 -103.4,248.2 -101.7,250.7 -102.1,250.9 -103.5,248.8 -106,248.6 -105,251.3 -102.9,252.1 -102.9,252.5 
								-105.4,251.5 -106.2,252.1 -104.2,253 -102.6,253.6 -102.6,253.9 -103.8,253.5 -103.8,255.1 							"/>
						</g>
						<g>
							<g>
								<g>
									<path class="st59" d="M-73,267.1L-73,267.1c0,0,0.1,1.3-2,2.9l-0.1,0.1l0.1,0.2c0.6,0.9,0.7,1.5,0.1,2.2
										c-0.5,0.6-1,0.5-1.5,0.5c-0.1,0-0.2,0-0.4,0H-77v0.2c-0.1,0.9-0.4,2.5-1.7,3.2l0.3,0.1c-0.7-1.2-2-3-5.3-5.8
										c-1.2-1-2.5-1.9-3.6-2.8c-2-1.5-3.7-2.8-4.2-3.7c-0.7-1.2-0.5-2.4-0.5-3c0-0.1,0-0.1,0-0.1c0-0.2-0.1-0.4-0.3-0.6
										c-0.2-0.2-0.4-0.4-0.4-0.9c0-0.6,0.4-1.2,1.1-1.2c0.2,0,0.3,0,0.5,0c0.3,0.1,0.5,0.1,1.2-0.3c0.5-0.3,2.3-0.4,3.5,0.3
										c0.6,0.4,1.6,1.2,2.5,2s2,1.7,3,2.5c1.9,1.3,5,3.6,8,4.5L-73,267.1z M-80.6,262.4c-1-0.7-2.1-1.6-3-2.4
										c-1-0.9-1.9-1.6-2.6-2.1c-1.3-0.8-3.3-0.7-3.9-0.3c-0.5,0.3-0.6,0.3-0.8,0.2c-0.1,0-0.3-0.1-0.6-0.1
										c-0.8,0.1-1.4,0.8-1.4,1.6c0,0.6,0.3,1,0.5,1.2c0.1,0.1,0.2,0.2,0.2,0.3v0.1c-0.1,0.6-0.2,1.9,0.5,3.2
										c0.6,1,2.2,2.3,4.3,3.9c1.1,0.8,2.4,1.8,3.6,2.8c3.3,2.7,4.5,4.5,5.2,5.7l0.1,0.2l0.2-0.1c1.4-0.8,1.8-2.5,1.9-3.5
										l-0.2,0.2c0.1,0,0.2,0,0.3,0c0.5,0.1,1.2,0.2,1.8-0.6c0.9-1,0.4-2-0.1-2.7v0.3c2.2-1.8,2.1-3.2,2.1-3.3v-0.1h-0.1
										C-75.6,266-78.7,263.7-80.6,262.4z"/>
								</g>
								<path class="st60" d="M-76.7,271.3c0.2-0.4,0.7-0.5,1.1-0.2c0.4,0.2,0.5,0.7,0.3,1.1s-0.7,0.5-1.1,0.2
									C-76.8,272.2-76.9,271.7-76.7,271.3z"/>
								<path class="st60" d="M-92.3,259.2c0.2-0.4,0.7-0.5,1.1-0.2c0.4,0.2,0.5,0.7,0.3,1.1s-0.7,0.5-1.1,0.2
									C-92.4,260.1-92.6,259.6-92.3,259.2z"/>
							</g>
							<g>
								<path class="st61" d="M-85.1,264.9c-0.5,0.7-1,0.7-1.4,0.4c-0.3-0.2-0.4-0.5-0.5-0.7l0,0l-0.3,0.5l0,0
									c0.1,0,0.1,0.1,0.2,0.2s0.2,0.2,0.5,0.4c0.8,0.5,1.6,0.3,2.1-0.4c0.5-0.8,0.4-1.6-0.3-2.1c-0.3-0.2-0.6-0.4-0.9-0.5
									l-0.6,0.9c-0.1,0.1-0.1,0.2-0.2,0.2l0,0l0.6,0.4l0,0c0-0.1,0-0.1,0.1-0.3l0.4-0.6c0.1,0,0.2,0,0.3,0.1
									C-84.7,263.8-84.7,264.4-85.1,264.9L-85.1,264.9z"/>
								<path class="st61" d="M-82.5,265.3c0.3,0.2,0.4,0.5,0.4,0.8l0,0l0.4-0.6l0,0c-0.1,0-0.1-0.1-0.2-0.2s-0.2-0.2-0.4-0.4
									c-0.8-0.5-1.2-0.2-1.4,0.1c-0.6,0.8,0.6,1.6,0.3,2c-0.1,0.2-0.4,0.2-0.6,0.1c-0.3-0.2-0.4-0.4-0.4-0.6l0,0l-0.3,0.5l0,0
									c0.1,0,0.1,0.1,0.2,0.2s0.1,0.2,0.4,0.3c0.3,0.2,0.9,0.4,1.3-0.1c0.5-0.8-0.6-1.5-0.3-2C-83,265.1-82.7,265.2-82.5,265.3
									L-82.5,265.3z"/>
							</g>
						</g>
					</g>
					<g>
						<path class="st54" d="M-100,264.3c0.6-0.5,1.4-0.3,1.9,0.2c0.5,0.6,0.3,1.4-0.2,1.9c-0.6,0.5-1.4,0.3-1.9-0.2
							C-100.7,265.6-100.6,264.8-100,264.3"/>
						<path class="st54" d="M-110.8,256.3c0.6-0.5,1.4-0.3,1.9,0.2c0.5,0.6,0.3,1.4-0.2,1.9c-0.6,0.5-1.4,0.3-1.9-0.2
							C-111.5,257.6-111.4,256.8-110.8,256.3"/>
						<path class="st54" d="M-121.7,249.1c0.6-0.5,1.4-0.3,1.9,0.2c0.5,0.6,0.3,1.4-0.2,1.9c-0.6,0.5-1.4,0.3-1.9-0.2
							C-122.4,250.4-122.3,249.5-121.7,249.1"/>
						<path class="st54" d="M-89.7,249c0.6-0.5,1.4-0.3,1.9,0.2c0.5,0.6,0.3,1.4-0.2,1.9c-0.6,0.5-1.4,0.3-1.9-0.2
							C-90.4,250.3-90.3,249.5-89.7,249"/>
						<path class="st54" d="M-100.4,241.2c0.6-0.5,1.4-0.3,1.9,0.2c0.5,0.6,0.3,1.4-0.2,1.9c-0.6,0.5-1.4,0.3-1.9-0.2
							C-101.1,242.5-101,241.7-100.4,241.2"/>
						<path class="st54" d="M-110.7,233.1c0.6-0.5,1.4-0.3,1.9,0.2c0.5,0.6,0.3,1.4-0.2,1.9c-0.6,0.5-1.4,0.3-1.9-0.2
							C-111.4,234.4-111.3,233.6-110.7,233.1"/>
					</g>
				</g>
			</g>
		</g>
		
			<linearGradient id="SVGID_00000119112182543256261530000005904519537426407857_" gradientUnits="userSpaceOnUse" x1="185.55" y1="702.0372" x2="185.55" y2="590.7585" gradientTransform="matrix(1 0 0 -1 0 1017.9839)">
			<stop  offset="0" style="stop-color:#1C1F38"/>
			<stop  offset="1" style="stop-color:#0F1228"/>
		</linearGradient>
		<path style="fill:url(#SVGID_00000119112182543256261530000005904519537426407857_);" d="M115.3,443l140.5,8.4l-10.9-83.8
			c-1.5-11.6-12.7-20.3-26.1-20.3h-66.5c-13.4,0-24.6,8.7-26.1,20.3L115.3,443z"/>
		<g>
			<path class="st63" d="M372.4,321.5c3,7.4,24.7,28,44.6,19.8l5.2,13.1c0,0-21.5,20.1-40.3,12.8c-18.8-7.3-22-36.1-22-36.1
				L372.4,321.5z"/>
			<path class="st64" d="M319.2,323.2c11.7-1.7,64.5,27.7,64.5,27.7s74.4,17.8,85.7,30.2c0,0,4.7-0.5-9.5,45.3
				C445.7,472.1,416.7,533,416.7,533s-35.1,6.6-89.5-17.6c-62.1-27.5-104.1-20.9-104.1-20.9S256.6,332.4,319.2,323.2z"/>
			<path class="st65" d="M379,313.3c0,0-2.6,23.8-12.8,28.9c0,0,0.5,17.5,12.6,23.6c14,7.1,25.9-6.6,25.9-6.6s1.4-23.5,12.1-27.2
				L379,313.3z"/>
			<path class="st65" d="M328.7,439.2c0,0-8.5,5.3-25.1,7.4c-0.7,0.1-1.2-0.8-0.9-1.5c1-1.9,6.9-6.5,15.5-9.1
				C325,433.3,328.7,439.2,328.7,439.2z"/>
			<path class="st66" d="M349.6,427.7l-18.1-3.7l-27.2,2.9l-17.8,21.6c3.4,0.7,10.2-3.8,18.7-10.7c6.8-0.6,11.1,6.1,23.5,1.5
				l19.1,9.1L349.6,427.7z"/>
			<path class="st67" d="M418.2,349.7c0,0,5.9,18-36.8,125.3c0,0,72.3,64.7,99.5,49.1c27.2-15.6,15.2-74,0-120.3
				C474.4,384.2,466.2,342.4,418.2,349.7z"/>
			<path class="st63" d="M415,375.4c0,0,15.2-14.1,17.1-27.4c2-13.4-15.1-6.7-15.1-6.7S413.1,362.9,415,375.4z"/>
			<path class="st67" d="M365.4,326.3c0,0-99.2,111.2-150,214.9c0,0-28.1-132.3,16.1-183.8c20.4-23.8,31.6-31.4,57.3-46
				C288.8,311.5,338.6,285.9,365.4,326.3z"/>
			<path class="st63" d="M348.5,346c0,0,0.2-20.7,8.8-31.1c8.6-10.4,15.1,6.7,15.1,6.7S359,338.9,348.5,346z"/>
			<path class="st67" d="M453.8,465.3c0,0-96-46.5-113.3-43.1c-2.5,0.5-4.4,27.7-2.9,29c7.4,6.6,92,63.7,109.8,69.1
				C466.8,526.3,453.8,465.3,453.8,465.3z"/>
		</g>
		<path class="st68" d="M483.4,423.1c-16-4.3-40.5-3.3-55.8-1.4c-15.3,2-20.2,33.7-20.2,33.7c-3.9,0-16.7-30.4-16.7-30.4
			c-36.3-85.2-64.1-141-90.4-167.1c-10.9-10.8-18.7-6.9-18.7-6.9C206.9,229.1,0.1,233.3,0.1,233.3v31.1c0,0,286,0.6,310.9,25l0,0
			c21.2,33.1,51.2,90.9,81.1,185.7c0,0-185.3-26.3-392.1-23.6V883c0,0,355.8-0.8,383.8-0.8s46.4-0.3,53.1-5
			c6.8-4.7,8.4-26.6,8.9-40.4c5.7-9.7,16.2-80.2,17.5-95c7.6-13.8,7.8-25.3,8.6-32.1c0.8-6.8,2.1-54.6,3.9-62.9
			c1.4-6.3,2-34.9,2.2-48.2c0.1-4.5-1.5-8.8-4.4-12.2c-5.7-6.6-15.1-17.4-17.4-19c-3.4-2.3-6-15.7-8.6-24.5s-9.3-27.4-14-34.8
			c-4.7-7.4-13.9-17.1-14.2-23.4c-0.2-3.6,26-10.4,49.4-15.3c12.4-2.6,16.9-4.1,19.2-19C490.5,435.5,492,425.4,483.4,423.1z"/>
		<path class="st69" d="M386.4,470.6"/>
		<path class="st70" d="M449.6,575.1c0,0-12.3,16.8-37.1,25.5c-0.5-2.1-11-9.3-15.8-9.3C396.7,591.2,429.1,587.5,449.6,575.1z"/>
		<path class="st70" d="M0.1,715.9c0,0,367.5,2.3,422,0c28.2-1.2,44.5-9.8,44.5-9.8s-16.4,4.9-44.5,6.1c-54.4,2.3-422,0-422,0V715.9
			z"/>
		<g>
			<path class="st71" d="M285.5,836.1c3.1,5.7,13.6,4.2,28.5,4.2h49.5c0.3,0,8.6-0.1,13.4-7.9c5-8,14.2-28.6,11.5-35.9
				c-1.2-3.3-6.3-6-13.2-7.3c-26.7-0.6-65.9,0.4-73.9,0.5c0,0-7.6-0.7-9.7,10C289.6,810.4,284.2,833.7,285.5,836.1z"/>
			<g>
				<g>
					<defs>
						<path id="SVGID_00000038380933323946394080000014720699576959006082_" d="M285.5,836.1c3.1,5.7,13.6,4.2,28.5,4.2h49.5
							c0.3,0,8.6-0.1,13.4-7.9c5-8,14.2-28.6,11.5-35.9c-1.2-3.3-6.3-6-13.2-7.3c-26.7-0.6-65.9,0.4-73.9,0.5c0,0-7.6-0.7-9.7,10
							C289.6,810.4,284.2,833.7,285.5,836.1z"/>
					</defs>
					<clipPath id="SVGID_00000174567166272756253630000012473777633581367444_">
						<use xlink:href="#SVGID_00000038380933323946394080000014720699576959006082_"  style="overflow:visible;"/>
					</clipPath>
					<g style="clip-path:url(#SVGID_00000174567166272756253630000012473777633581367444_);">
						<g>
							<line class="st73" x1="380.7" y1="790.8" x2="380.7" y2="826.2"/>
							<line class="st73" x1="372.7" y1="789.3" x2="372.7" y2="837.1"/>
							<line class="st73" x1="364.8" y1="789.3" x2="364.8" y2="840.4"/>
							<line class="st73" x1="356.8" y1="789.3" x2="356.8" y2="840.4"/>
							<line class="st73" x1="348.8" y1="789.3" x2="348.8" y2="840.4"/>
							<line class="st73" x1="340.8" y1="789.3" x2="340.8" y2="840.4"/>
							<line class="st73" x1="332.9" y1="789.3" x2="332.9" y2="840.4"/>
							<line class="st73" x1="324.9" y1="789.3" x2="324.9" y2="840.4"/>
							<line class="st73" x1="316.9" y1="789.3" x2="316.9" y2="840.4"/>
							<line class="st73" x1="308.9" y1="789.3" x2="308.9" y2="840.4"/>
							<line class="st73" x1="301" y1="789.3" x2="301" y2="840.4"/>
							<line class="st73" x1="293" y1="796" x2="293" y2="840.4"/>
						</g>
					</g>
				</g>
			</g>
		</g>
		<path class="st74" d="M285.5,836.1c3.1,5.7,13.6,4.2,28.5,4.2h49.5c0.3,0,8.6-0.1,13.4-7.9c5-8,14.2-28.6,11.5-35.9
			c-1.2-3.3-6.3-6-13.2-7.3c-26.7-0.6-65.9,0.4-73.9,0.5c0,0-7.6-0.7-9.7,10C289.6,810.4,284.2,833.7,285.5,836.1z"/>
		<path d="M363.5,840.4h6.6c0.3,0,8.6-0.1,13.4-7.9c5-8,19.1-34.9,17.1-40.6c-0.5-1.6-11.2-2.3-25.5-2.6c6.9,1.4,11.9,4.1,13.2,7.3
			c2.8,7.3-6.5,27.9-11.5,35.9C372.1,840.3,363.8,840.4,363.5,840.4z"/>
		<path class="st9" d="M306.9,463.3c-52.1-5.1-126.6-10.8-209-12.3c24.9-26.4,60.2-42.9,99.3-42.9
			C242.2,408.1,282.1,429.8,306.9,463.3z"/>
		
			<linearGradient id="SVGID_00000052072366435120179480000013815521335206589326_" gradientUnits="userSpaceOnUse" x1="427.3507" y1="648.2419" x2="35.2507" y2="648.2419" gradientTransform="matrix(1 0 0 -1 0 1017.9839)">
			<stop  offset="0" style="stop-color:#FFFFFF"/>
			<stop  offset="5.657613e-02" style="stop-color:#E7EAEE;stop-opacity:0.9434"/>
			<stop  offset="0.1873" style="stop-color:#B4C0CC;stop-opacity:0.8127"/>
			<stop  offset="0.3209" style="stop-color:#889BAE;stop-opacity:0.6791"/>
			<stop  offset="0.4547" style="stop-color:#657D95;stop-opacity:0.5453"/>
			<stop  offset="0.589" style="stop-color:#496682;stop-opacity:0.411"/>
			<stop  offset="0.7241" style="stop-color:#365575;stop-opacity:0.2759"/>
			<stop  offset="0.8604" style="stop-color:#2A4B6D;stop-opacity:0.1396"/>
			<stop  offset="1" style="stop-color:#26486A;stop-opacity:0"/>
		</linearGradient>
		<path style="fill:url(#SVGID_00000052072366435120179480000013815521335206589326_);" d="M311,289.3
			c-12.5-12.2-90.2-18.4-164.8-21.6S0.1,264.4,0.1,264.4v187.1c25.4-0.3,50.5-0.2,74.9,0.2c91.7,1.6,174.6,8,232.6,13.7
			c52.4,5.1,84.6,9.7,84.6,9.7C362.2,380.2,332.2,322.4,311,289.3z"/>
		<path class="st76" d="M310.5,316.1c0,0,48,114.7,56.7,146.3c-10.6,0-42.2,0.1-42.2,0.1l56.4,6.8
			C381.4,469.3,332.1,338.5,310.5,316.1z"/>
		<path d="M392.8,474.8c-30.5-96.3-61-154.2-81.2-185.8l-0.1-0.1c-24.8-24.3-299.7-25.2-311.4-25.2v5.7c2.8,0,283.4,0.9,307.4,23.7
			c18.2,28.2,45.7,79.5,73.7,163.5c1,2.9,0.4,6-1.5,8.3s-4.9,3.5-7.9,3.2c-44.9-5.4-204.2-22.9-371.7-20.8v4.7
			c204.3-2.7,390.1,23.3,392,23.6l1,0.1L392.8,474.8z"/>
		<path d="M0.1,789v52.1h199.6c4.5,0,8.1-3.6,8.1-8.1v-44H0.1z"/>
		<path class="st77" d="M0.1,789.1"/>
		<polygon class="st68" points="0.1,812.7 0.1,816.7 73.2,816.7 73.2,840.4 77.1,840.4 77.1,816.7 155.4,816.7 155.4,840.4 
			159.3,840.4 159.3,816.7 207.1,816.7 207.1,812.7 159.3,812.7 159.3,789.7 155.4,789.7 155.4,812.7 77.1,812.7 77.1,789.7 
			73.2,789.7 73.2,812.7 		"/>
		<g>
			<path class="st78" d="M120.8,661.4c-3.3,8.1-3.2,14.6-20.7,14.7c-17.5,0.2-49.8,1.1-64.5,0C21,675,10.3,674.7,9.6,664
				c-0.7-10.7-0.7-44.6,1-56.6c0,0,1.7-7.3,9-7.3s42.3-1.9,73.4,1.3s33.5,6.3,34.2,18.3C127.9,631.6,124.1,653.3,120.8,661.4z"/>
			<path class="st79" d="M133.2,616.4c-0.8-14.1-3.4-17.8-37.7-21.5s-68.7-1.9-76.7-1.6c-9.5,0.4-13.3,6.1-14.1,9.9
				c-3.3,15.9-1.8,52.7-1,65.2c0.8,12.6,12.6,12.9,28.7,14.2s51.8,0.2,71.1,0s19.2-7.8,22.8-17.3C129.8,655.9,134,630.5,133.2,616.4
				z M120.8,661.4c-3.3,8.1-3.2,14.6-20.7,14.7c-17.5,0.2-49.8,1.1-64.5,0C21,675,10.3,674.7,9.6,664c-0.7-10.7-0.7-44.6,1-56.6
				c0,0,1.7-7.3,9-7.3s42.3-1.9,73.4,1.3s33.5,6.3,34.2,18.3C127.9,631.6,124.1,653.3,120.8,661.4z"/>
			<path class="st74" d="M133.2,616.4c-0.8-14.1-3.4-17.8-37.7-21.5s-68.7-1.9-76.7-1.6c-9.5,0.4-13.3,6.1-14.1,9.9
				c-3.3,15.9-1.8,52.7-1,65.2c0.8,12.6,12.6,12.9,28.7,14.2s51.8,0.2,71.1,0s19.2-7.8,22.8-17.3C129.8,655.9,134,630.5,133.2,616.4
				z M120.8,661.4c-3.3,8.1-3.2,14.6-20.7,14.7c-17.5,0.2-49.8,1.1-64.5,0C21,675,10.3,674.7,9.6,664c-0.7-10.7-0.7-44.6,1-56.6
				c0,0,1.7-7.3,9-7.3s42.3-1.9,73.4,1.3s33.5,6.3,34.2,18.3C127.9,631.6,124.1,653.3,120.8,661.4z"/>
			<path class="st77" d="M120.8,661.4c-3.3,8.1-3.2,14.6-20.7,14.7c-17.5,0.2-49.8,1.1-64.5,0C21,675,10.3,674.7,9.6,664
				c-0.7-10.7-0.7-44.6,1-56.6c0,0,1.7-7.3,9-7.3s42.3-1.9,73.4,1.3s33.5,6.3,34.2,18.3C127.9,631.6,124.1,653.3,120.8,661.4z"/>
			<line class="st80" x1="19.6" y1="600" x2="19.3" y2="674.2"/>
			<line class="st80" x1="33.2" y1="599.7" x2="32.9" y2="675.9"/>
			<line class="st80" x1="46.8" y1="599.5" x2="46.5" y2="676.6"/>
			<line class="st80" x1="60.4" y1="599.5" x2="60.1" y2="676.6"/>
			<line class="st80" x1="74" y1="599.9" x2="73.7" y2="676.5"/>
			<line class="st80" x1="87.6" y1="600.8" x2="87.3" y2="676.3"/>
			<line class="st80" x1="101.2" y1="602.2" x2="100.9" y2="676.1"/>
			<line class="st80" x1="114.8" y1="604.6" x2="114.5" y2="672.8"/>
		</g>
		<g>
			
				<linearGradient id="SVGID_00000000196117920873326790000009377217285122949251_" gradientUnits="userSpaceOnUse" x1="431.7721" y1="382.8419" x2="365.5669" y2="382.8419" gradientTransform="matrix(1 0 0 -1 0 1017.9839)">
				<stop  offset="0.1735" style="stop-color:#F15A24"/>
				<stop  offset="0.2959" style="stop-color:#F26026"/>
				<stop  offset="0.4601" style="stop-color:#F4712A"/>
				<stop  offset="0.647" style="stop-color:#F78D32"/>
				<stop  offset="0.8337" style="stop-color:#FBB03B"/>
			</linearGradient>
			<path style="fill:url(#SVGID_00000000196117920873326790000009377217285122949251_);" d="M356.3,673.4
				c26.4-0.5,42.4-0.8,42.4-0.8s16.7,1.4,19.9-7.5c3.1-8.9-1.9-32.9-1.9-32.9s-2.1-28.3-21.2-32.6c-4.6-1-19.9-1.9-40.5-2.7
				c12,8.6,19.9,22.8,19.9,38.8C374.9,651,367.6,664.7,356.3,673.4z"/>
			<path class="st77" d="M169.1,592.9c0,0,207.3,2.3,226.4,6.7s21.2,32.6,21.2,32.6s4.5,23.9,1.9,32.9c-2.2,7.5-19.8,7.5-19.8,7.5
				s-54.3,1.1-127.6,2.4s-106,2.1-111-1s-7.6-6.8-4.2-22.2C159.3,636.3,169.1,592.9,169.1,592.9z"/>
			<path class="st78" d="M160.1,673.9c5,3.1,37.6,2.3,111,1c9.8-0.2,19.3-0.3,28.4-0.5c3.3,0,6.6-0.1,9.8-0.2
				c13.6-0.3,26.2-0.5,37.3-0.7c3.4-0.1,6.6-0.1,9.8-0.2c11.3-8.7,18.6-22.4,18.6-37.8c0-16-7.8-30.1-19.9-38.8
				c-3.5-0.1-185.9-3.9-185.9-3.9s-9.8,43.5-13.2,58.9C152.6,667.1,155.2,670.8,160.1,673.9z"/>
			<line class="st80" x1="167.2" y1="601.3" x2="357.7" y2="601.3"/>
			<line class="st80" x1="165.5" y1="610.9" x2="357.7" y2="610.9"/>
			<line class="st80" x1="162.9" y1="620.5" x2="357.7" y2="620.5"/>
			<line class="st80" x1="160.8" y1="630.1" x2="357.7" y2="630.1"/>
			<line class="st80" x1="158.6" y1="639.7" x2="357.7" y2="639.7"/>
			<line class="st80" x1="156.5" y1="649.2" x2="357.7" y2="649.2"/>
			<line class="st80" x1="154.7" y1="658.8" x2="357.7" y2="658.8"/>
			<line class="st80" x1="155.2" y1="668.4" x2="357.7" y2="668.4"/>
			<g>
				<g>
					<defs>
						<path id="SVGID_00000114069679911528912470000013539134107117831863_" d="M169.1,592.9c0,0,182.4,3.8,185.9,3.9l42.5,1.8
							l3.4,112.9l-261.6-20.1L169.1,592.9z"/>
					</defs>
					<clipPath id="SVGID_00000139973091357624780030000016805988689246676116_">
						<use xlink:href="#SVGID_00000114069679911528912470000013539134107117831863_"  style="overflow:visible;"/>
					</clipPath>
					<g style="clip-path:url(#SVGID_00000139973091357624780030000016805988689246676116_);">
						<path class="st83" d="M301.6,595.2c7.4-4.7,16.1-7.4,25.5-7.4c10.4,0,20.1,3.3,27.9,9c12,8.6,19.9,22.8,19.9,38.8
							c0,15.4-7.3,29.1-18.6,37.8c-8.1,6.2-18.2,9.9-29.1,9.9c-10.3,0-19.9-3.3-27.7-8.9c-12.1-8.6-20.1-22.8-20.1-38.9
							C279.4,618.5,288.3,603.6,301.6,595.2z M309.2,674.3c5.4,2.5,11.5,3.9,17.9,3.9c7,0,13.5-1.7,19.4-4.6
							c13.8-7.1,23.3-21.4,23.3-38c0-17.6-10.6-32.6-25.7-39.2c-5.2-2.3-10.9-3.5-17-3.5c-5.1,0-10.1,0.9-14.6,2.6
							c-16.4,6-28,21.7-28,40.1C284.5,652.7,294.6,667.5,309.2,674.3z"/>
						<path class="st84" d="M284.5,635.5c0,23.6,19.1,42.7,42.7,42.7s42.7-19.1,42.7-42.7c0-23.6-19.1-42.7-42.7-42.7
							C303.6,592.9,284.5,612,284.5,635.5z"/>
						<path class="st71" d="M284.5,635.5c0,23.6,19.1,42.7,42.7,42.7s42.7-19.1,42.7-42.7c0-23.6-19.1-42.7-42.7-42.7
							C303.6,592.9,284.5,612,284.5,635.5z"/>
						<g>
							<g>
								<line class="st85" x1="363.9" y1="613.9" x2="363.9" y2="657.2"/>
								<line class="st85" x1="357.3" y1="605.3" x2="357.3" y2="665.8"/>
								<line class="st85" x1="350.7" y1="599.9" x2="350.7" y2="671.2"/>
								<line class="st85" x1="344" y1="596.4" x2="344" y2="674.7"/>
								<line class="st85" x1="337.4" y1="594.1" x2="337.4" y2="677"/>
								<line class="st85" x1="330.7" y1="593" x2="330.7" y2="678.1"/>
								<line class="st85" x1="324.1" y1="592.9" x2="324.1" y2="678.1"/>
								<line class="st85" x1="317.5" y1="594" x2="317.5" y2="677.1"/>
								<line class="st85" x1="310.8" y1="596.1" x2="310.8" y2="675"/>
								<line class="st85" x1="304.2" y1="599.6" x2="304.2" y2="671.5"/>
								<line class="st85" x1="297.5" y1="604.8" x2="297.5" y2="666.3"/>
								<line class="st85" x1="290.9" y1="613" x2="290.9" y2="658.1"/>
							</g>
						</g>
						<path class="st77" d="M284.5,635.5c0,23.6,19.1,42.7,42.7,42.7s42.7-19.1,42.7-42.7c0-23.6-19.1-42.7-42.7-42.7
							C303.6,592.9,284.5,612,284.5,635.5z"/>
						<path class="st86" d="M312.4,635.5c0,8.1,6.6,14.7,14.7,14.7s14.7-6.6,14.7-14.7c0-8.1-6.6-14.7-14.7-14.7
							S312.4,627.4,312.4,635.5z"/>
						<g class="st87">
							<path d="M327.2,667.9c9.7,0,18.8-4.3,25-11.8c1.8-2.1,1.5-5.3-0.7-7c-2.1-1.8-5.3-1.5-7,0.7c-4.3,5.2-10.6,8.1-17.3,8.1
								c-6.7,0-13-3-17.3-8.1c-1.8-2.1-4.9-2.4-7-0.7c-2.1,1.8-2.4,4.9-0.7,7C308.4,663.7,317.5,667.9,327.2,667.9z"/>
						</g>
					</g>
				</g>
				<g>
					<defs>
						<path id="SVGID_00000150792781246405975750000012993709075061363375_" d="M169.1,592.9c0,0,182.4,3.8,185.9,3.9l42.5,1.8
							l3.4,112.9l-261.6-20.1L169.1,592.9z"/>
					</defs>
					<clipPath id="SVGID_00000148635365858747350940000015736100606510810793_">
						<use xlink:href="#SVGID_00000150792781246405975750000012993709075061363375_"  style="overflow:visible;"/>
					</clipPath>
					<g style="clip-path:url(#SVGID_00000148635365858747350940000015736100606510810793_);">
						<path class="st83" d="M202.4,595.2c7.4-4.7,16.1-7.4,25.5-7.4c10.4,0,20.1,3.3,27.9,9c12,8.6,19.9,22.8,19.9,38.8
							c0,15.4-7.3,29.1-18.6,37.8c-8.1,6.2-18.2,9.9-29.1,9.9c-10.3,0-19.9-3.3-27.7-8.9c-12.1-8.6-20.1-22.8-20.1-38.9
							C180.1,618.5,189,603.6,202.4,595.2z M210,674.3c5.4,2.5,11.5,3.9,17.9,3.9c7,0,13.5-1.7,19.4-4.6c13.8-7.1,23.3-21.4,23.3-38
							c0-17.6-10.6-32.6-25.7-39.2c-5.2-2.3-10.9-3.5-17-3.5c-5.1,0-10.1,0.9-14.6,2.6c-16.4,6-28,21.7-28,40.1
							C185.2,652.7,195.4,667.5,210,674.3z"/>
						<path class="st84" d="M185.2,635.5c0,23.6,19.1,42.7,42.7,42.7s42.7-19.1,42.7-42.7c0-23.6-19.1-42.7-42.7-42.7
							C204.4,592.9,185.2,612,185.2,635.5z"/>
						<path class="st71" d="M185.2,635.5c0,23.6,19.1,42.7,42.7,42.7s42.7-19.1,42.7-42.7c0-23.6-19.1-42.7-42.7-42.7
							C204.4,592.9,185.2,612,185.2,635.5z"/>
						<g>
							<g>
								<line class="st85" x1="264.7" y1="613.9" x2="264.7" y2="657.2"/>
								<line class="st85" x1="258.1" y1="605.3" x2="258.1" y2="665.8"/>
								<line class="st85" x1="251.4" y1="599.9" x2="251.4" y2="671.2"/>
								<line class="st85" x1="244.8" y1="596.4" x2="244.8" y2="674.7"/>
								<line class="st85" x1="238.1" y1="594.1" x2="238.1" y2="677"/>
								<line class="st85" x1="231.5" y1="593" x2="231.5" y2="678.1"/>
								<line class="st85" x1="224.9" y1="592.9" x2="224.9" y2="678.1"/>
								<line class="st85" x1="218.2" y1="594" x2="218.2" y2="677.1"/>
								<line class="st85" x1="211.6" y1="596.1" x2="211.6" y2="675"/>
								<line class="st85" x1="204.9" y1="599.6" x2="204.9" y2="671.5"/>
								<line class="st85" x1="198.3" y1="604.8" x2="198.3" y2="666.3"/>
								<line class="st85" x1="191.7" y1="613" x2="191.7" y2="658.1"/>
							</g>
						</g>
						<path class="st77" d="M185.2,635.5c0,23.6,19.1,42.7,42.7,42.7s42.7-19.1,42.7-42.7c0-23.6-19.1-42.7-42.7-42.7
							C204.4,592.9,185.2,612,185.2,635.5z"/>
						<path class="st86" d="M213.2,635.5c0,8.1,6.6,14.7,14.7,14.7c8.1,0,14.7-6.6,14.7-14.7c0-8.1-6.6-14.7-14.7-14.7
							C219.8,620.8,213.2,627.4,213.2,635.5z"/>
						<g class="st87">
							<path d="M227.9,667.9c9.7,0,18.8-4.3,25-11.8c1.8-2.1,1.5-5.3-0.7-7c-2.1-1.8-5.3-1.5-7,0.7c-4.3,5.2-10.6,8.1-17.3,8.1
								s-13-3-17.3-8.1c-1.8-2.1-4.9-2.4-7-0.7c-2.1,1.8-2.4,4.9-0.7,7C209.1,663.7,218.2,667.9,227.9,667.9z"/>
						</g>
					</g>
				</g>
			</g>
			<g class="st89">
				<line class="st90" x1="394.2" y1="605.3" x2="377" y2="605.3"/>
				<line class="st90" x1="400.9" y1="615.4" x2="379.4" y2="615.4"/>
				<line class="st90" x1="405.1" y1="625.5" x2="381.7" y2="625.5"/>
				<line class="st90" x1="409.4" y1="635.6" x2="384.1" y2="635.6"/>
				<line class="st90" x1="409.9" y1="644.9" x2="381" y2="644.9"/>
				<line class="st90" x1="410.4" y1="654.2" x2="378" y2="654.2"/>
				<line class="st90" x1="406.4" y1="663.5" x2="374.9" y2="663.5"/>
			</g>
			<path class="st77" d="M160.1,673.9c-5-3.1-7.6-6.8-4.2-22.2c3.4-15.4,13.2-58.9,13.2-58.9s207.3,2.3,226.4,6.7
				s21.2,32.6,21.2,32.6s4.5,23.9,1.9,32.9c-2.2,7.5-19.8,7.5-19.8,7.5"/>
		</g>
		<path class="st70" d="M154.7,582.2c0,0,22.6-116.9,155.8-107.2c0,0-102.6-5.4-135.3,100.1c-0.6,1.9,187.2,15.3,204.2,16.5
			c-79.2-1.2-203.5-6.2-208.2-6.6L154.7,582.2z"/>
		<g>
			<path class="st74" d="M402.1,489.5c0,0,11.4,5.9,8.2,22.7c-3.1,16.8-18,49.7-19.6,59.9s-2,26.5-2,26.5"/>
			<path class="st74" d="M281.5,251c0,0,11.6,10.3,29.5,38.3"/>
			<path class="st74" d="M407.4,455.5c0,0,14.1,8.3,12.8,27.6"/>
			<path class="st74" d="M453.8,578c0,0-12.3,16.8-37.1,25.5"/>
			<path class="st74" d="M472.9,683.7c0,0-34.8,9-120.1,10.2s-352.7,0-352.7,0"/>
			<path class="st74" d="M412.5,691.5c0,0,1.6-8.4,0-20.7"/>
			<path class="st74" d="M472.9,696.6c0,0-22.6,9.7-50.8,11c-54.4,2.3-422,0-422,0"/>
			<path class="st74" d="M472.9,706.7c0,0-22.6,9.7-50.8,11c-54.4,2.3-422,0-422,0"/>
			<path class="st74" d="M464.5,746.8c-9.1,3-24.6,7.1-42.4,7.9c-54.4,2.3-422,0-422,0"/>
			<path class="st74" d="M446,836.8c0,0-27.8,4.3-60.7,5.1S9.7,846.6,0.1,846.6"/>
			<path class="st74" d="M436.3,796.6c0,0-24.3-8.4-65-7.3s-371.2,0-371.2,0"/>
			<path class="st74" d="M0.1,852.1l365.4-2.3c2.3,0,4.3,1.7,4.7,4l1.3,9.4c0.5,3.2-2,6.1-5.3,6.1L0.1,870.9"/>
			<path class="st74" d="M278.6,850.3V861c0,1.6-1.3,2.9-2.9,2.9H0.1"/>
			<path class="st74" d="M157,755.4v-27.6c0-3.2-2.6-5.8-5.8-5.8H0.1"/>
			<path class="st74" d="M152.3,590c0,0,22.3-126.4,158.2-115"/>
			<path class="st74" d="M169.1,592.9c0,0-15.7-3.1-34.5-5.1c-39.5-4.2-134.5-4.2-134.5-4.2"/>
			<polygon class="st68" points="262.3,718.7 288.8,718.7 286.3,700.5 264.9,700.5 			"/>
			<polygon class="st91" points="262.3,718.7 288.8,718.7 286.3,700.5 264.9,700.5 			"/>
		</g>
		<path d="M318.7,467.4c0,0-5-12.5-32.2-17.4c-87.4-15.7-198.6-6-198.6-6v4.6c0,0,131.7-6.7,192.8,8.3c14.1,3.5,23.6,9,23.6,9
			L318.7,467.4z"/>
		<path class="st70" d="M413.8,451.4c0,0,2.8-19.9,18-23.6s49,0,49,0C414.5,428.4,437.2,447.3,413.8,451.4z"/>
		<g>
			<g>
				<defs>
					<rect id="SVGID_00000012459874434822520040000018141697389129075356_" x="0.1" y="544.4" width="24.3" height="39.1"/>
				</defs>
				<clipPath id="SVGID_00000146483053595329955400000012428994993086518679_">
					<use xlink:href="#SVGID_00000012459874434822520040000018141697389129075356_"  style="overflow:visible;"/>
				</clipPath>
				<g style="clip-path:url(#SVGID_00000146483053595329955400000012428994993086518679_);">
					<path class="st77" d="M11.5,563.3c0,2.9-5.1,5.2-11.4,5.2s-11.4-2.3-11.4-5.2s5.1-5.2,11.4-5.2S11.5,560.4,11.5,563.3z"/>
					<path d="M0.1,555.7c-8.9,0-16.1,3.7-16.1,8.2s7.2,8.2,16.1,8.2s16.1-3.7,16.1-8.2C16.2,559.3,9,555.7,0.1,555.7z M0.1,568.5
						c-6.3,0-11.4-2.3-11.4-5.2s5.1-5.2,11.4-5.2s11.4,2.3,11.4,5.2S6.4,568.5,0.1,568.5z"/>
					<path class="st93" d="M11.5,563.3L11.5,563.3H0.1v-5.2C6.4,558.1,11.5,560.4,11.5,563.3z"/>
					<path class="st94" d="M0.1,558.1v5.2h-11.4l0,0C-11.3,560.4-6.2,558.1,0.1,558.1z"/>
					<path class="st93" d="M0.1,563.3v5.2c-6.3,0-11.4-2.3-11.4-5.2H0.1z"/>
					<path class="st94" d="M11.5,563.3c0,2.9-5.1,5.2-11.4,5.2v-5.2H11.5z"/>
				</g>
			</g>
		</g>
	</g>
	<g>
		<path class="st95" d="M364.9,291.1c0,0-9.4-31.7-0.5-62c8.9-30.2,56.7-28.4,85.1-7.2c0,0-7.5-10.9-3.4-12.7s7.3,15.5,7.3,15.5
			s10.5-1.1,11.4,2.2s-11,2.7-11,2.7s18,15.1-12.3,71.1L364.9,291.1z"/>
		<path class="st66" d="M366.5,268.8c0,0-9-13.3-12.9-0.5c-4.5,14.8,8,23.5,11.6,19.2S366.5,268.8,366.5,268.8z"/>
		<path class="st66" d="M447.4,280.7c0,0,13.3-9,12.2,4.3c-1.3,15.4-16.2,18.8-18,13.5C439.9,293.2,447.4,280.7,447.4,280.7z"/>
		<path class="st66" d="M392.8,336.7c-20.2-4.6-31.9-31.8-28-74.1c2.4-25.4,23-38.3,50.8-33c27.8,5.4,41,24,33.7,48.4
			C434.6,326.7,415.6,341.8,392.8,336.7z"/>
		<g>
			<g>
				<path class="st95" d="M429.2,266c-0.3-0.1-0.6-0.3-0.8-0.6c-2.7-4.3-8.8-5.3-8.9-5.3c-0.7-0.1-1.2-0.8-1-1.4
					c0.1-0.7,0.8-1.2,1.4-1c0.3,0,7.3,1.2,10.6,6.4c0.4,0.6,0.2,1.4-0.4,1.7C429.9,266,429.6,266,429.2,266z"/>
			</g>
		</g>
		<g>
			<g>
				<path class="st95" d="M382.6,256.9c-0.3-0.1-0.6-0.2-0.8-0.5c-0.4-0.6-0.3-1.4,0.3-1.8c5-3.6,12-2.1,12.2-2
					c0.7,0.2,1.1,0.8,1,1.5c-0.2,0.7-0.9,1.1-1.5,1c0,0-6.1-1.3-10.2,1.6C383.2,256.9,382.9,257,382.6,256.9z"/>
			</g>
		</g>
		<path class="st96" d="M427.7,278.7c-0.6,3.1-2.5,5.3-4.2,5s-2.6-3.1-2-6.2s2.5-5.3,4.2-5C427.4,272.9,428.3,275.6,427.7,278.7z"/>
		<path class="st96" d="M391.5,272.3c-0.6,3.1-2.5,5.3-4.2,5s-2.6-3.1-2-6.2s2.5-5.3,4.2-5C391.1,266.5,392.1,269.2,391.5,272.3z"/>
		<path class="st93" d="M385.1,305.2c0,0,21.3,7,33.6,3.8c0,0-9.2,13.7-20.9,10C386.1,315.4,385.1,305.2,385.1,305.2z"/>
		<path class="st95" d="M441.5,293.5c0,0,4.4-27.1-2.1-49.9c0,0-20.2,5-23.8,2.2c-3.7-2.8,5.1-5.8,5.1-5.8s-32.5,4.2-33.9,1.8
			s11.7-6.1,11.7-6.1l-20.3,2.9c0,0-10.5,23.1-11.4,40.5c0,0-5.5-15.7-4.6-25.6s10.5-36.9,39.5-33.4s43.9,13.1,48.4,27.6
			C454.8,262.2,450.8,278.2,441.5,293.5z"/>
		<g>
			<path class="st97" d="M404.5,300.9c-2.4-0.5-4.7-1.6-5.4-1.9l1.2-2.4c2.5,1.2,6.5,2.4,7.6,1.6c0.4-0.3,0.4-1.2,0.1-2.4
				c-2.1-8.3,0.9-27.7,1-28.6l2.7,0.4c0,0.2-3,19.7-1,27.5c0.6,2.4,0.3,4.1-1,5.1C408.3,301.3,406.4,301.3,404.5,300.9z"/>
		</g>
		<g>
			
				<linearGradient id="SVGID_00000152951898028949701060000017776922569636685730_" gradientUnits="userSpaceOnUse" x1="290.9135" y1="714.9994" x2="291.5359" y2="714.9994" gradientTransform="matrix(0.9899 0.1422 0.1422 -0.9899 59.9128 949.2604)">
				<stop  offset="0" style="stop-color:#000000"/>
				<stop  offset="0.371" style="stop-color:#383838"/>
				<stop  offset="0.5484" style="stop-color:#383838"/>
				<stop  offset="1" style="stop-color:#000000"/>
			</linearGradient>
			<path style="fill:url(#SVGID_00000152951898028949701060000017776922569636685730_);" d="M450.5,280.5c-0.4,1.5-0.8,3.1-1.3,4.8
				C449.7,283.7,450.1,282,450.5,280.5z"/>
			
				<linearGradient id="SVGID_00000006668096832188059700000005830801240891417223_" gradientUnits="userSpaceOnUse" x1="407.3535" y1="716.6317" x2="407.3535" y2="686.9982" gradientTransform="matrix(0.9904 0.1384 0.1384 -0.9904 -93.9213 914.0486)">
				<stop  offset="0" style="stop-color:#000000"/>
				<stop  offset="0.371" style="stop-color:#383838"/>
				<stop  offset="0.5484" style="stop-color:#383838"/>
				<stop  offset="1" style="stop-color:#000000"/>
			</linearGradient>
			<path style="fill:url(#SVGID_00000006668096832188059700000005830801240891417223_);" d="M454.8,270.3c-3-1.2-16.1-3.3-24.7-4.2
				c-0.1,0-15.1-1.6-21.7-2.5c-6.7-1-21.4-3.7-21.6-3.7c-8.5-1.6-21.7-3.3-24.9-3c-0.9,0.1-1.2,2.1-1.3,3.5
				c-0.1,0.6,0.2,1.2,0.7,1.5c4.5,3.1-1.8,15.3,5.8,21.9c3.8,3.2,23.2,7.4,28.1,2.8c8.2-7.6,6.4-19,12.4-18.1
				c6.1,0.9,1.2,11.3,6.8,20.9c3.4,5.8,23.2,7.2,27.7,5.2c9.2-4.1,6.5-17.7,11.7-19.4c0.6-0.2,1-0.7,1.1-1.3
				C455.3,272.7,455.6,270.7,454.8,270.3z M393.5,284.8c-3.8,3.4-16.5,1.3-24.3-2c-4.4-1.8-3.2-12.6-3.3-18.1c0-4,5.5-3.5,12-2.7
				c9.6,1.1,18.9,2.7,21.7,4C404,268.2,396.6,282.1,393.5,284.8z M448.7,276.7c-1.6,5.2-3.5,15.9-8.2,16.4c-8.4,0.9-21.2-0.6-23.9-5
				c-2.1-3.5-5.3-18.9-0.6-19.7c3-0.5,12.4,0.6,21.9,2.2C444.4,271.8,449.8,272.9,448.7,276.7z"/>
			
				<linearGradient id="SVGID_00000004507894674753621140000007946393501741931153_" gradientUnits="userSpaceOnUse" x1="260.788" y1="695.9511" x2="275.3923" y2="723.6337" gradientTransform="matrix(0.9899 0.1422 0.1422 -0.9899 59.9128 949.2604)">
				<stop  offset="0" style="stop-color:#000000"/>
				<stop  offset="0.371" style="stop-color:#383838"/>
				<stop  offset="0.5484" style="stop-color:#383838"/>
				<stop  offset="1" style="stop-color:#000000"/>
			</linearGradient>
			<path style="fill:url(#SVGID_00000004507894674753621140000007946393501741931153_);" d="M416.4,288.8c2.7,4.3,15.4,5.9,23.9,5
				c3.2-0.3,5.1-5.2,6.5-10c-1.4,4.5-3.2,9-6.3,9.3c-8.4,0.9-21.2-0.6-23.9-5c-1.6-2.6-3.9-12.3-2.7-17
				C412.3,275.6,414.7,286,416.4,288.8z"/>
			
				<linearGradient id="SVGID_00000117678206410023080080000013822249826231560090_" gradientUnits="userSpaceOnUse" x1="204.7865" y1="703.892" x2="229.4902" y2="717.697" gradientTransform="matrix(0.9899 0.1422 0.1422 -0.9899 59.9128 949.2604)">
				<stop  offset="0" style="stop-color:#000000"/>
				<stop  offset="0.371" style="stop-color:#383838"/>
				<stop  offset="0.5484" style="stop-color:#383838"/>
				<stop  offset="1" style="stop-color:#000000"/>
			</linearGradient>
			<path style="fill:url(#SVGID_00000117678206410023080080000013822249826231560090_);" d="M365.8,265.5c0.1,5.4-1.1,16.2,3.3,18.1
				c7.8,3.2,20.5,5.4,24.3,2c1.9-1.7,5.5-7.9,6.9-12.7c-1.5,4.7-4.9,10.4-6.7,12.1c-3.8,3.4-16.5,1.3-24.3-2
				c-4.4-1.8-3.2-12.6-3.3-18.1c0-0.2,0-0.5,0.1-0.7C365.8,264.5,365.8,265,365.8,265.5z"/>
			
				<linearGradient id="SVGID_00000139252464226218903760000018183818211674841481_" gradientUnits="userSpaceOnUse" x1="232.8234" y1="726.558" x2="267.0234" y2="726.558" gradientTransform="matrix(0.9899 0.1422 0.1422 -0.9899 59.9128 949.2604)">
				<stop  offset="0" style="stop-color:#000000"/>
				<stop  offset="0.371" style="stop-color:#383838"/>
				<stop  offset="0.5484" style="stop-color:#383838"/>
				<stop  offset="1" style="stop-color:#000000"/>
			</linearGradient>
			<path style="fill:url(#SVGID_00000139252464226218903760000018183818211674841481_);" d="M454.8,270.3c-3-1.2-16.1-3.3-24.7-4.2
				c-0.1,0-15.1-1.6-21.7-2.5c-6.7-1-21.4-3.7-21.6-3.7c-8.5-1.6-21.7-3.3-24.9-3c-0.5,0-0.8,0.8-1,1.6c0.2-0.5,0.5-0.9,0.8-1
				c3.2-0.3,16.3,1.4,24.9,3c0.1,0,14.9,2.7,21.6,3.7s21.6,2.5,21.7,2.5c8.6,0.9,21.8,3,24.7,4.2c0.8,0.3,0.6,2.2,0.3,3.5
				c0.1-0.1,0.1-0.3,0.1-0.4C455.3,272.7,455.6,270.7,454.8,270.3z"/>
			
				<linearGradient id="SVGID_00000078039066145168262500000007121686229134585527_" gradientUnits="userSpaceOnUse" x1="223.2016" y1="731.2747" x2="223.2016" y2="701.7774" gradientTransform="matrix(0.9899 0.1422 0.1422 -0.9899 59.9128 949.2604)">
				<stop  offset="0" style="stop-color:#000000"/>
				<stop  offset="0.371" style="stop-color:#383838"/>
				<stop  offset="0.5484" style="stop-color:#383838"/>
				<stop  offset="1" style="stop-color:#000000"/>
			</linearGradient>
			<path style="opacity:0.8;fill:url(#SVGID_00000078039066145168262500000007121686229134585527_);enable-background:new    ;" d="
				M399.6,266.1c-2.7-1.3-12-2.9-21.7-4c-6.6-0.7-12.1-1.2-12,2.7c0.1,5.4-1.1,16.2,3.3,18.1c7.8,3.2,20.5,5.4,24.3,2
				C396.6,282.1,404,268.2,399.6,266.1z"/>
			
				<linearGradient id="SVGID_00000063613884168725862340000017838968939462196907_" gradientUnits="userSpaceOnUse" x1="271.5551" y1="731.2744" x2="271.5551" y2="701.7771" gradientTransform="matrix(0.9899 0.1422 0.1422 -0.9899 59.9128 949.2604)">
				<stop  offset="0" style="stop-color:#000000"/>
				<stop  offset="0.371" style="stop-color:#383838"/>
				<stop  offset="0.5484" style="stop-color:#383838"/>
				<stop  offset="1" style="stop-color:#000000"/>
			</linearGradient>
			<path style="opacity:0.8;fill:url(#SVGID_00000063613884168725862340000017838968939462196907_);enable-background:new    ;" d="
				M437.9,270.7c-9.5-1.7-18.9-2.8-21.9-2.2c-4.7,0.8-1.6,16.2,0.6,19.7c2.7,4.3,15.4,5.9,23.9,5c4.8-0.5,6.7-11.2,8.2-16.4
				C449.8,272.9,444.4,271.8,437.9,270.7z"/>
			<g class="st105">
				
					<linearGradient id="SVGID_00000145776670017998151660000000325643350510509476_" gradientUnits="userSpaceOnUse" x1="218.2928" y1="711.7482" x2="204.4877" y2="727.7329" gradientTransform="matrix(0.9899 0.1422 0.1422 -0.9899 59.9128 949.2604)">
					<stop  offset="0" style="stop-color:#000000"/>
					<stop  offset="1" style="stop-color:#FFFFFF"/>
				</linearGradient>
				<path style="fill:url(#SVGID_00000145776670017998151660000000325643350510509476_);" d="M369.2,278.9
					c0.8-5.5,3.7-10.5,8.2-13.8c1.4-1,2.9-1.9,4.5-2.6c-1.3-0.2-2.6-0.3-3.9-0.5c-6.6-0.7-12.1-1.2-12,2.7c0,5.3-1.1,15.8,3,17.9
					C368.9,281.5,369,280.2,369.2,278.9z"/>
				
					<linearGradient id="SVGID_00000088116974993033666040000001664092828091667105_" gradientUnits="userSpaceOnUse" x1="273.6729" y1="703.6755" x2="250.7131" y2="728.3792" gradientTransform="matrix(0.9899 0.1422 0.1422 -0.9899 59.9128 949.2604)">
					<stop  offset="0" style="stop-color:#000000"/>
					<stop  offset="1" style="stop-color:#FFFFFF"/>
				</linearGradient>
				<path style="fill:url(#SVGID_00000088116974993033666040000001664092828091667105_);" d="M418,283.6c0.8-5.5,3.7-10.5,8.2-13.8
					c0.3-0.2,0.7-0.5,1-0.7c-5.1-0.6-9.3-0.9-11.2-0.6c-4.7,0.8-1.6,16.2,0.6,19.7c0.3,0.5,0.8,1,1.4,1.5
					C417.7,287.6,417.7,285.6,418,283.6z"/>
			</g>
		</g>
	</g>
</g>
</svg>
