<?xml version="1.0" encoding="utf-8"?>
<!-- Generator: Adobe Illustrator 26.5.0, SVG Export Plug-In . SVG Version: 6.00 Build 0)  -->
<svg version="1.1" id="PMA__x28_Logo_x29_" xmlns="http://www.w3.org/2000/svg" xmlns:xlink="http://www.w3.org/1999/xlink" x="0px"
	 y="0px" viewBox="0 0 48 18.3" style="enable-background:new 0 0 48 18.3;" xml:space="preserve">
<style type="text/css">
	.st0{fill:#FFFFFF;}
	.st1{fill:#F5CF3D;}
</style>
<g>
	<path class="st0" d="M5.4,3.3H0v15h2.8v-5.5h2.6c3.3,0,5.5-1.9,5.5-4.8C10.9,5.1,8.7,3.3,5.4,3.3z M8,8c0,1-0.3,2.3-3,2.3H2.8V5.7
		H5C7.7,5.7,8,7,8,8z"/>
	<path class="st0" d="M42.2,3.3h-2.7l-5.7,15h2.9l1.4-3.8h5.4l1.5,3.8h3L42.2,3.3z M42.6,12H39l1.7-4.7L42.6,12z"/>
	<polygon class="st1" points="22.2,12.6 16.9,3.3 13.6,3.3 21.6,17 22.9,17 32.9,0 29.4,0 	"/>
	<polygon class="st0" points="16.3,11.6 13.6,6.9 13.6,18.3 16.3,18.3 	"/>
	<polygon class="st0" points="28.2,11.6 30.9,6.9 30.9,18.3 28.2,18.3 	"/>
</g>
</svg>
