<?xml version="1.0" encoding="utf-8"?>
<!-- Generator: Adobe Illustrator 26.5.0, SVG Export Plug-In . SVG Version: 6.00 Build 0)  -->
<svg version="1.1" id="Layer_1" xmlns="http://www.w3.org/2000/svg" xmlns:xlink="http://www.w3.org/1999/xlink" x="0px" y="0px"
	 viewBox="0 0 604.6 431.8" style="enable-background:new 0 0 604.6 431.8;" xml:space="preserve">
<style type="text/css">
	.st0{fill:#EEDFF7;}
	.st1{fill:#AC83EE;}
	.st2{fill:none;stroke:#C9C2F6;stroke-width:0.75;stroke-miterlimit:10;}
	.st3{fill:none;stroke:#C9C2F6;stroke-width:0.75;stroke-linecap:round;stroke-linejoin:round;stroke-miterlimit:10;}
	.st4{fill:none;stroke:#D2C7E1;stroke-width:0.5;stroke-linecap:round;stroke-linejoin:round;stroke-miterlimit:10;}
	.st5{fill:#E3CAFD;}
	.st6{fill:#DABBFD;}
	.st7{fill:#D2C7E1;}
	.st8{fill:#D1C8FB;}
	.st9{opacity:0.5;fill:url(#SVGID_1_);enable-background:new    ;}
	.st10{fill:#351E6A;}
	.st11{fill:#FFFFFF;}
	.st12{fill:#A97FFF;}
	.st13{opacity:0.2;}
	.st14{fill:none;stroke:#A97FFF;stroke-width:0.5;stroke-miterlimit:10;}
	.st15{fill:#1D1236;}
	.st16{fill:none;stroke:#A97FFF;stroke-width:0.5;stroke-linecap:round;stroke-linejoin:round;stroke-miterlimit:10;}
	.st17{opacity:0.8;fill:#EEDFF7;}
	.st18{opacity:0.6;fill:#FFFFFF;enable-background:new    ;}
	.st19{opacity:0.6;fill:#A97FFF;enable-background:new    ;}
	.st20{opacity:0.2;fill:#A97FFF;enable-background:new    ;}
	.st21{opacity:0.7;fill:#FFFFFF;}
	.st22{opacity:0.3;}
	.st23{fill:#FBB473;}
	.st24{opacity:0.2;fill:#FFFFFF;enable-background:new    ;}
	.st25{fill:none;stroke:#A97FFF;stroke-width:0.25;stroke-miterlimit:10;}
	.st26{opacity:0.6;enable-background:new    ;}
	.st27{opacity:0.2;enable-background:new    ;}
	.st28{opacity:0.4;fill:#FFFFFF;enable-background:new    ;}
	.st29{opacity:0.2;fill:#1D1236;enable-background:new    ;}
	.st30{opacity:0.7;fill:#FFFFFF;enable-background:new    ;}
	.st31{fill:none;stroke:#000000;stroke-width:0;stroke-linecap:round;stroke-linejoin:round;}
	.st32{fill:#ED883E;}
	.st33{opacity:0.4;fill:#FFFFFF;}
	.st34{opacity:0.1;fill:none;stroke:#000000;stroke-width:0.5;stroke-miterlimit:10;}
	.st35{fill:#DD5753;}
	.st36{fill:none;}
	.st37{fill:#B77964;}
	.st38{fill:none;stroke:#FFFFFF;stroke-width:2;stroke-linecap:round;stroke-linejoin:round;}
	.st39{opacity:0.4;fill:#1D1236;enable-background:new    ;}
	.st40{fill:#A14E3F;}
	.st41{fill:none;stroke:#1D1236;stroke-width:0.5;stroke-linecap:round;stroke-linejoin:round;}
	.st42{fill:none;stroke:#1D1236;stroke-miterlimit:10;}
	.st43{opacity:0.3;fill:#FFFFFF;}
</style>
<g>
	<g>
		<g>
			<path class="st0" d="M575.1,363.1c2.4-2.9,7-4.9,12-5.8c-0.4,1.4-0.1,2.8,0.8,3.1c1,0.4,2.2-0.7,2.9-2.3c0.2-0.5,0.3-0.9,0.3-1.3
				c5.1-0.4,10.2,0.2,13.6,1.8c0,0-3.3,3-7.1,10.9c-0.1,0-0.2,0-0.3,0c-2.4,0-4.4,1.2-4.4,2.6c0,1,1.1,1.9,2.6,2.3
				c-0.2,0.5-0.4,1-0.6,1.6c-3.6,9.7-13.2,2.7-13.1-4C581.7,371.9,569.7,369.7,575.1,363.1z"/>
			<g>
				<path class="st0" d="M563.3,350.6c-2.9-3.2-8.3-5-14.1-5.7c0.6,1.6,0.3,3.2-0.6,3.6c-1.1,0.5-2.6-0.6-3.4-2.4
					c-0.2-0.5-0.4-1-0.5-1.5c-5.8-0.1-11.6,1-15.3,3.1c0,0,4,3.2,8.9,11.9c0.1,0,0.3,0,0.4,0c2.8-0.2,5.1,1,5.2,2.7
					c0.1,1.2-1.1,2.3-2.8,2.8c0.3,0.6,0.5,1.1,0.8,1.7c4.8,10.8,15.2,2.1,14.6-5.5C556.4,361.2,569.8,357.6,563.3,350.6z"/>
				<g>
					<g>
						<g>
							<path class="st1" d="M556.2,348.2c1.2-6.1,6.5-12.4,13.1-17.6c0.5,2.4,2,4.1,3.4,3.9c1.7-0.2,2.7-2.6,2.4-5.5
								c-0.1-0.8-0.3-1.5-0.6-2.2c7.1-4.5,15-7.5,21.1-7.7c0,0-2.6,6.9-2.1,21.2c-0.2,0.1-0.3,0.2-0.5,0.3c-3.5,1.9-5.5,5.1-4.4,7.2
								c0.8,1.5,3,2,5.5,1.4c0.1,0.9,0.2,1.8,0.3,2.7c2.1,16.9-17.1,13.9-22,4.1C572.5,356.1,553.4,361.8,556.2,348.2z"/>
						</g>
					</g>
				</g>
				<path class="st2" d="M570,386.7c-3.2-17.8,1.6-36.9,12.8-51.2"/>
				<path class="st3" d="M546.2,352.4c13.5,7,20.9,22,22.9,27.9c0,0,16.5-12,24.5-17.1"/>
				<g>
					<polygon class="st0" points="589.8,392.4 549.3,392.4 549.3,384.9 589.8,384.9 					"/>
					<polygon class="st0" points="552.2,389.9 558.6,416.3 581.9,416.3 587.5,389.9 					"/>
				</g>
			</g>
		</g>
		<path class="st4" d="M551.5,383.4c1.2,0,2.4,0,3.6,0"/>
	</g>
	<path class="st0" d="M22.5,204.1c-2.2,3.4-3.7,7-4.5,10.8l-6.1,0.6l0,11.7l6.1,0.6c0.8,3.8,2.3,7.5,4.5,10.8l-3.9,4.7l8.3,8.3
		l4.7-3.9c3.4,2.2,7,3.7,10.8,4.5l0.6,6.1l11.7,0l0.6-6c3.8-0.8,7.5-2.3,10.8-4.5l4.7,3.9l8.3-8.3l-3.9-4.7c2.2-3.4,3.7-7,4.5-10.8
		l6-0.6l0-11.7l-6.1-0.6c-0.8-3.8-2.3-7.5-4.5-10.8l3.9-4.7l-8.3-8.3l-4.7,3.9c-3.4-2.2-7-3.7-10.8-4.5l-0.6-6.1l-11.7,0l-0.6,6.1
		c-3.8,0.8-7.5,2.3-10.8,4.5l-4.7-3.9l-8.3,8.3L22.5,204.1z M60.1,210.1c6.2,6.2,6.2,16.2,0,22.4c-6.2,6.2-16.2,6.2-22.4,0
		c-6.2-6.2-6.2-16.2,0-22.4C43.9,203.9,53.9,203.9,60.1,210.1z"/>
	<path class="st0" d="M184.2,348.4c-1,1.5-1.6,3.1-2,4.8l-2.7,0.3l0,5.2l2.7,0.3c0.3,1.7,1,3.3,2,4.8l-1.7,2.1l3.7,3.7l2.1-1.7
		c1.5,1,3.1,1.6,4.8,2l0.3,2.7l5.2,0l0.3-2.7c1.7-0.3,3.3-1,4.8-2l2.1,1.7l3.7-3.7l-1.7-2.1c1-1.5,1.6-3.1,2-4.8l2.7-0.3l0-5.2
		l-2.7-0.3c-0.3-1.7-1-3.3-2-4.8l1.7-2.1l-3.7-3.7l-2.1,1.7c-1.5-1-3.1-1.6-4.8-2l-0.3-2.7l-5.2,0l-0.3,2.7c-1.7,0.3-3.3,1-4.8,2
		l-2.1-1.7l-3.7,3.7L184.2,348.4z M200.8,351.1c2.7,2.7,2.7,7.2,0,9.9c-2.7,2.7-7.2,2.7-9.9,0c-2.7-2.7-2.7-7.2,0-9.9
		C193.6,348.4,198.1,348.4,200.8,351.1z"/>
	<path class="st0" d="M374.3,312.5c-0.9,1.3-1.4,2.7-1.7,4.2l-2.3,0.2l0,4.5l2.3,0.2c0.3,1.5,0.9,2.9,1.7,4.2l-1.5,1.8l3.2,3.2
		l1.8-1.5c1.3,0.9,2.7,1.4,4.2,1.7l0.2,2.3l4.5,0l0.2-2.3c1.5-0.3,2.9-0.9,4.2-1.7l1.8,1.5l3.2-3.2l-1.5-1.8
		c0.9-1.3,1.4-2.7,1.7-4.2l2.3-0.2l0-4.5l-2.3-0.2c-0.3-1.5-0.9-2.9-1.7-4.2l1.5-1.8l-3.2-3.2l-1.8,1.5c-1.3-0.9-2.7-1.4-4.2-1.7
		l-0.2-2.3l-4.5,0l-0.2,2.3c-1.5,0.3-2.9,0.9-4.2,1.7l-1.8-1.5l-3.2,3.2L374.3,312.5z M388.8,314.9c2.4,2.4,2.4,6.3,0,8.7
		c-2.4,2.4-6.3,2.4-8.7,0c-2.4-2.4-2.4-6.3,0-8.7C382.5,312.5,386.4,312.5,388.8,314.9z"/>
	<path class="st0" d="M535.3,289.1c-0.9,1.3-1.4,2.7-1.7,4.2l-2.3,0.2l0,4.5l2.3,0.2c0.3,1.5,0.9,2.9,1.7,4.2l-1.5,1.8l3.2,3.2
		l1.8-1.5c1.3,0.9,2.7,1.4,4.2,1.7l0.2,2.3l4.5,0l0.2-2.3c1.5-0.3,2.9-0.9,4.2-1.7l1.8,1.5l3.2-3.2l-1.5-1.8
		c0.9-1.3,1.4-2.7,1.7-4.2l2.3-0.2l0-4.5l-2.3-0.2c-0.3-1.5-0.9-2.9-1.7-4.2l1.5-1.8L554,284l-1.8,1.5c-1.3-0.9-2.7-1.4-4.2-1.7
		l-0.2-2.3l-4.5,0l-0.2,2.3c-1.5,0.3-2.9,0.9-4.2,1.7L537,284l-3.2,3.2L535.3,289.1z M549.9,291.4c2.4,2.4,2.4,6.3,0,8.7
		c-2.4,2.4-6.3,2.4-8.7,0c-2.4-2.4-2.4-6.3,0-8.7C543.6,289,547.5,289,549.9,291.4z"/>
	<path class="st0" d="M264.3,41.4c-2.8,3.9-4.7,8.3-5.8,12.8l-7.3,0.4l-0.5,14.1l7.2,0.9c0.8,4.6,2.4,9.1,4.9,13.2l-4.8,5.4
		l9.6,10.3l5.8-4.4c3.9,2.8,8.3,4.7,12.8,5.8l0.4,7.3l14.1,0.5l1-7.2c4.6-0.8,9.1-2.4,13.2-4.9l5.4,4.8l10.3-9.6l-4.4-5.8
		c2.8-3.9,4.7-8.3,5.8-12.8l7.3-0.4l0.5-14.1l-7.2-1c-0.8-4.6-2.4-9.1-4.9-13.2l4.8-5.4L322.8,28l-5.8,4.4
		c-3.9-2.8-8.3-4.7-12.8-5.8l-0.4-7.3l-14.1-0.5l-0.9,7.2c-4.6,0.8-9.1,2.4-13.2,4.9l-5.4-4.8l-10.3,9.6L264.3,41.4z M309.1,50.3
		c7.2,7.7,6.7,19.8-1,26.9c-7.7,7.2-19.8,6.7-26.9-1c-7.2-7.7-6.7-19.8,1-26.9C289.9,42.2,302,42.6,309.1,50.3z"/>
	<path class="st5" d="M159.2,283.1c-2,3.1-3.4,6.5-4.1,10l-5.6,0.5l0,10.8l5.6,0.5c0.7,3.5,2.1,6.9,4.1,10l-3.6,4.3l7.6,7.6l4.3-3.6
		c3.1,2,6.5,3.4,10,4.1l0.5,5.6l10.8,0l0.5-5.6c3.5-0.7,6.9-2.1,10-4.1l4.3,3.6l7.6-7.6l-3.6-4.3c2-3.1,3.4-6.5,4.1-10l5.6-0.5
		l0-10.8l-5.6-0.5c-0.7-3.5-2.1-6.9-4.1-10l3.6-4.3l-7.6-7.6l-4.3,3.6c-3.1-2-6.5-3.4-10-4.1l-0.5-5.6l-10.8,0l-0.5,5.6
		c-3.5,0.7-6.9,2.1-10,4.1l-4.3-3.6l-7.6,7.6L159.2,283.1z M193.8,288.7c5.7,5.7,5.7,14.9,0,20.6c-5.7,5.7-14.9,5.7-20.6,0
		c-5.7-5.7-5.7-14.9,0-20.6C178.8,283,188.1,283,193.8,288.7z"/>
	<path class="st0" d="M180.4,47.3c-1.4,2.1-2.3,4.4-2.8,6.8l-3.8,0.4l0,7.4l3.8,0.4c0.5,2.4,1.4,4.7,2.8,6.8l-2.4,2.9l5.2,5.2
		l2.9-2.4c2.1,1.4,4.4,2.3,6.8,2.8l0.4,3.8l7.4,0l0.4-3.8c2.4-0.5,4.7-1.4,6.8-2.8l2.9,2.4L216,72l-2.4-2.9c1.4-2.1,2.3-4.4,2.8-6.8
		l3.8-0.4l0-7.4l-3.8-0.4c-0.5-2.4-1.4-4.7-2.8-6.8l2.4-2.9l-5.2-5.2l-2.9,2.4c-2.1-1.4-4.4-2.3-6.8-2.8l-0.4-3.8l-7.4,0l-0.4,3.8
		c-2.4,0.5-4.7,1.4-6.8,2.8l-2.9-2.4l-5.2,5.2L180.4,47.3z M204.1,51.1c3.9,3.9,3.9,10.2,0,14.1c-3.9,3.9-10.2,3.9-14.1,0
		c-3.9-3.9-3.9-10.2,0-14.1C193.8,47.2,200.2,47.2,204.1,51.1z"/>
	<g>
		
			<rect x="421.6" y="41.8" transform="matrix(0.9992 4.103488e-02 -4.103488e-02 0.9992 3.7819 -19.5515)" class="st6" width="113.2" height="81"/>
		<path class="st1" d="M419.9,120.5l0.5-12.2c7.5-11.8,25.6-27.8,31.5-27.8c9.8,0,24.2,18.2,24.2,18.2s26.7-26.2,33.3-27.4
			c10.4-1.8,24.8,25.2,24.8,25.2l-1.2,28.7L419.9,120.5z"/>
		<path class="st1" d="M486.3,68.1c-0.7,5.5-5.7,9.3-11.1,8.7c-5.5-0.7-9.3-5.7-8.7-11.1c0.7-5.5,5.7-9.3,11.1-8.7
			C483.1,57.6,487,62.6,486.3,68.1z"/>
	</g>
	<g>
		
			<rect x="512.2" y="210.4" transform="matrix(0.9862 -0.1657 0.1657 0.9862 -31.6435 94.2731)" class="st7" width="73.8" height="52.8"/>
		
			<rect x="515.1" y="212.4" transform="matrix(0.9862 -0.1657 0.1657 0.9862 -31.6434 94.273)" class="st8" width="68" height="48.7"/>
		<path class="st1" d="M519.6,266.4l-1.2-7.2c2.9-7.9,11.6-19.5,15.1-20.3c5.7-1.2,16.5,7.7,16.5,7.7s12.5-18.7,16.2-20.2
			c5.9-2.3,17.7,11.7,17.7,11.7l2.9,17L519.6,266.4z"/>
		<path class="st1" d="M552.1,227.4c0.3,3.3-2.2,6.2-5.5,6.5c-3.3,0.3-6.2-2.2-6.5-5.5s2.2-6.2,5.5-6.5
			C549,221.6,551.9,224.1,552.1,227.4z"/>
	</g>
	<g>
		
			<rect x="36.6" y="272.7" transform="matrix(0.9892 -0.1463 0.1463 0.9892 -42.1897 12.6741)" class="st6" width="57" height="40.8"/>
		<path class="st1" d="M39.9,317.5l-0.9-6.1c2.6-6.5,10-16.2,12.9-16.7c4.8-0.9,13.7,6.7,13.7,6.7s10.8-15.5,13.9-16.7
			c5-1.9,14.6,10.1,14.6,10.1l2.1,14.3L39.9,317.5z"/>
		<path class="st1" d="M67.7,285.3c0.2,2.8-1.9,5.2-4.7,5.3c-2.8,0.2-5.2-1.9-5.3-4.7c-0.2-2.8,1.9-5.2,4.7-5.3
			C65.2,280.5,67.6,282.6,67.7,285.3z"/>
	</g>
	<path class="st0" d="M551.6,102.9c-1,1.6-1.7,3.3-2.1,5.1l-2.9,0.3l0,5.6l2.9,0.3c0.4,1.8,1.1,3.6,2.1,5.1l-1.8,2.2l3.9,3.9
		l2.2-1.8c1.6,1,3.3,1.7,5.1,2.1l0.3,2.9l5.6,0l0.3-2.9c1.8-0.4,3.6-1.1,5.1-2.1l2.2,1.8l3.9-3.9l-1.8-2.2c1-1.6,1.7-3.3,2.1-5.1
		l2.9-0.3l0-5.6l-2.9-0.3c-0.4-1.8-1.1-3.6-2.1-5.1l1.8-2.2l-3.9-3.9l-2.2,1.8c-1.6-1-3.3-1.7-5.1-2.1l-0.3-2.9l-5.6,0l-0.3,2.9
		c-1.8,0.4-3.6,1.1-5.1,2.1l-2.2-1.8l-3.9,3.9L551.6,102.9z M569.5,105.7c2.9,2.9,2.9,7.7,0,10.7c-2.9,2.9-7.7,2.9-10.7,0
		c-2.9-2.9-2.9-7.7,0-10.7C561.8,102.8,566.5,102.8,569.5,105.7z"/>
	<path class="st5" d="M454.5,158.5c-1.8,2.7-3,5.7-3.6,8.7l-4.9,0.5l0,9.4l4.9,0.5c0.6,3.1,1.8,6,3.6,8.7l-3.1,3.8l6.7,6.7l3.8-3.1
		c2.7,1.8,5.7,3,8.7,3.6l0.5,4.9l9.4,0l0.5-4.9c3.1-0.6,6-1.8,8.7-3.6l3.8,3.1l6.7-6.7l-3.1-3.8c1.8-2.7,3-5.7,3.6-8.7l4.9-0.5
		l0-9.4l-4.9-0.5c-0.6-3.1-1.8-6-3.6-8.7l3.1-3.8l-6.7-6.7l-3.8,3.1c-2.7-1.8-5.7-3-8.7-3.6l-0.5-4.9l-9.4,0l-0.5,4.9
		c-3.1,0.6-6,1.8-8.7,3.6L458,148l-6.7,6.7L454.5,158.5z M484.8,163.3c5,5,5,13.1,0,18.1c-5,5-13.1,5-18.1,0c-5-5-5-13.1,0-18.1
		C471.7,158.3,479.8,158.3,484.8,163.3z"/>
	<path class="st5" d="M5,159.4c-1,1.6-1.7,3.3-2.1,5.1L0,164.8l0,5.6l2.9,0.3c0.4,1.8,1.1,3.6,2.1,5.1L3.2,178l3.9,3.9l2.2-1.8
		c1.6,1,3.3,1.7,5.1,2.1l0.3,2.9l5.6,0l0.3-2.9c1.8-0.4,3.6-1.1,5.1-2.1l2.2,1.8l3.9-3.9l-1.8-2.2c1-1.6,1.7-3.3,2.1-5.1l2.9-0.3
		l0-5.6l-2.9-0.3c-0.4-1.8-1.1-3.6-2.1-5.1l1.8-2.2l-3.9-3.9l-2.2,1.8c-1.6-1-3.3-1.7-5.1-2.1l-0.3-2.9l-5.6,0l-0.3,2.9
		c-1.8,0.4-3.6,1.1-5.1,2.1l-2.2-1.8l-3.9,3.9L5,159.4z M22.8,162.2c2.9,2.9,2.9,7.7,0,10.7c-2.9,2.9-7.7,2.9-10.7,0
		c-2.9-2.9-2.9-7.7,0-10.7C15.1,159.3,19.9,159.3,22.8,162.2z"/>
	<path class="st5" d="M219.4,11.6c-1.3,2-2.2,4.1-2.6,6.4l-3.6,0.3l0,6.9l3.6,0.3c0.5,2.2,1.3,4.4,2.6,6.4l-2.3,2.8l4.9,4.9l2.8-2.3
		c2,1.3,4.1,2.2,6.4,2.6l0.3,3.6l6.9,0l0.3-3.6c2.2-0.5,4.4-1.3,6.4-2.6l2.8,2.3l4.9-4.9l-2.3-2.8c1.3-2,2.2-4.1,2.6-6.4l3.6-0.3
		l0-6.9l-3.6-0.3c-0.5-2.2-1.3-4.4-2.6-6.4l2.3-2.8l-4.9-4.9l-2.8,2.3c-2-1.3-4.1-2.2-6.4-2.6L238.4,0l-6.9,0l-0.3,3.6
		c-2.2,0.5-4.4,1.3-6.4,2.6l-2.8-2.3l-4.9,4.9L219.4,11.6z M241.6,15.1c3.7,3.7,3.7,9.6,0,13.2c-3.7,3.7-9.6,3.7-13.2,0
		c-3.7-3.7-3.7-9.6,0-13.2C232,11.5,237.9,11.5,241.6,15.1z"/>
	
		<linearGradient id="SVGID_1_" gradientUnits="userSpaceOnUse" x1="0" y1="-572.9457" x2="592.7097" y2="-572.9457" gradientTransform="matrix(1 0 0 -1 0 -147.7453)">
		<stop  offset="0" style="stop-color:#351E6A;stop-opacity:0"/>
		<stop  offset="0.1081" style="stop-color:#664D93;stop-opacity:0.2213"/>
		<stop  offset="0.2337" style="stop-color:#967DC1;stop-opacity:0.4786"/>
		<stop  offset="0.3436" style="stop-color:#BC9EE2;stop-opacity:0.7036"/>
		<stop  offset="0.4321" style="stop-color:#D2B3F6;stop-opacity:0.885"/>
		<stop  offset="0.4883" style="stop-color:#DABBFD"/>
		<stop  offset="0.5566" style="stop-color:#D5B6F9;stop-opacity:0.8666"/>
		<stop  offset="0.6368" style="stop-color:#C8A9EC;stop-opacity:0.7098"/>
		<stop  offset="0.7231" style="stop-color:#B092D7;stop-opacity:0.5412"/>
		<stop  offset="0.8136" style="stop-color:#8F75BA;stop-opacity:0.3642"/>
		<stop  offset="0.9068" style="stop-color:#6A5293;stop-opacity:0.1821"/>
		<stop  offset="1" style="stop-color:#351E6A;stop-opacity:0"/>
	</linearGradient>
	<rect y="423.6" class="st9" width="592.7" height="3.3"/>
	<g>
		<g>
			<path class="st0" d="M450.2,292.9H143.1c-8.6,0-15.5-6.9-15.5-15.5v-208c0-8.6,6.9-15.5,15.5-15.5h307.1
				c8.6,0,15.5,6.9,15.5,15.5v208C465.7,286,458.8,292.9,450.2,292.9z"/>
			<path class="st10" d="M465.7,84H127.6V69.6c0-8.7,7-15.7,15.7-15.7h307c8.5,0,15.4,6.9,15.4,15.4V84z"/>
			<g>
				<circle class="st11" cx="149.6" cy="69.6" r="4.7"/>
				<circle class="st11" cx="161.1" cy="69.6" r="4.7"/>
				<path class="st11" d="M177.6,69.6c0,2.6-2.1,4.7-4.7,4.7c-2.6,0-4.7-2.1-4.7-4.7s2.1-4.7,4.7-4.7
					C175.5,64.9,177.6,67,177.6,69.6z"/>
			</g>
		</g>
		<g>
			<g>
				<path class="st12" d="M264.1,197.5H157.5c-1.9,0-3.4-1.5-3.4-3.4V102c0-1.9,1.5-3.4,3.4-3.4h106.6c1.9,0,3.4,1.5,3.4,3.4v92.1
					C267.5,196,266,197.5,264.1,197.5z"/>
				<path class="st13" d="M154.1,181.6l29.4-28.9c2.7-2.7,6.9-3.3,10.3-1.5l23.3,12.2l20.7-22.5c3.6-3.9,9.7-4.3,13.8-0.8l15.9,13.5
					v37.7c-0.5,3.5-4.4,6.3-6.8,6.3h-99.4C151.9,197.5,153.6,184.1,154.1,181.6z"/>
				<path class="st13" d="M229.9,126.6c0,6.8-5.4,12.3-12,12.3c-6.6,0-12-5.5-12-12.3c0-6.8,5.4-12.3,12-12.3
					C224.5,114.4,229.9,119.9,229.9,126.6z"/>
			</g>
		</g>
		<g>
			<g>
				<rect x="158" y="210.7" class="st14" width="109.6" height="8.6"/>
				<rect x="158" y="226.9" class="st14" width="109.6" height="8.6"/>
			</g>
			<g>
				<rect x="158" y="242.8" class="st14" width="109.6" height="8.6"/>
				<rect x="158" y="258.9" class="st14" width="109.6" height="8.6"/>
			</g>
		</g>
		<g>
			<g>
				<g>
					<path class="st14" d="M364.1,151.6h-48.5c-1.9,0-3.4-1.5-3.4-3.4v-41.4c0-1.9,1.5-3.4,3.4-3.4h48.5c1.9,0,3.4,1.5,3.4,3.4v41.4
						C367.6,150.1,366,151.6,364.1,151.6z"/>
					<path class="st14" d="M312.2,143.9l14.3-14.1c1.3-1.3,3.4-1.6,5-0.7l11.4,5.9l10.1-11c1.8-1.9,4.8-2.1,6.7-0.4l7.8,6.6v18.4
						c-0.2,1.7-2.2,3.1-3.3,3.1h-48.5C311.2,151.6,312,145.1,312.2,143.9z"/>
					<path class="st14" d="M346.6,117.1c0,3.3-2.6,6-5.8,6c-3.2,0-5.8-2.7-5.8-6c0-3.3,2.6-6,5.8-6
						C343.9,111.1,346.6,113.8,346.6,117.1z"/>
				</g>
			</g>
			<rect x="314.4" y="158.3" class="st14" width="30.8" height="6.7"/>
			<rect x="314.4" y="174.9" class="st14" width="55.2" height="6.7"/>
			<rect x="314.4" y="187.3" class="st14" width="55.2" height="6.7"/>
			<rect x="314.4" y="200.4" class="st14" width="32.2" height="6.7"/>
		</g>
		<g>
			<g>
				<g>
					<path class="st14" d="M437.1,151.6h-48.5c-1.9,0-3.4-1.5-3.4-3.4v-41.4c0-1.9,1.5-3.4,3.4-3.4h48.5c1.9,0,3.4,1.5,3.4,3.4v41.4
						C440.6,150.1,439,151.6,437.1,151.6z"/>
					<path class="st14" d="M385.2,143.9l14.3-14.1c1.3-1.3,3.4-1.6,5-0.7l11.4,5.9l10.1-11c1.8-1.9,4.8-2.1,6.7-0.4l7.8,6.6v18.4
						c-0.2,1.7-2.2,3.1-3.3,3.1h-48.5C384.2,151.6,385,145.1,385.2,143.9z"/>
					<path class="st14" d="M419.5,117.1c0,3.3-2.6,6-5.8,6c-3.2,0-5.8-2.7-5.8-6c0-3.3,2.6-6,5.8-6
						C416.9,111.1,419.5,113.8,419.5,117.1z"/>
				</g>
			</g>
			<rect x="387.3" y="158.3" class="st14" width="30.8" height="6.7"/>
			<rect x="387.3" y="174.9" class="st14" width="55.2" height="6.7"/>
			<rect x="387.3" y="187.3" class="st14" width="55.2" height="6.7"/>
			<rect x="387.3" y="200.4" class="st14" width="32.2" height="6.7"/>
		</g>
		<rect x="310.9" y="225.7" class="st14" width="131.6" height="6.5"/>
		<rect x="310.9" y="236.8" class="st14" width="131.6" height="35.8"/>
	</g>
	<g>
		<g>
			<g>
				<path class="st12" d="M353.6,288.6c-14,16.3-18,40.5-10.2,60.5c8.7-7.8,14.8-19.6,15.2-30C359,308.8,356.3,298.6,353.6,288.6z"
					/>
			</g>
			<g>
				<path class="st12" d="M351.2,351c-4.7,7.3-7,16.1-6.3,24.7c7.5-2.6,14.2-11.2,18.2-18.1c4-6.9,6.2-14.7,8.2-22.4
					C363.1,338.1,355.9,343.8,351.2,351z"/>
			</g>
			<g>
				<g>
					<path class="st10" d="M349.4,317.1c-5.6,20.2-8.5,41.1-8.4,62c0,6,0.2,11.9,0.7,17.8c0,0.5,0.8,0.5,0.8,0
						c-1.6-20.9-0.4-41.9,3.6-62.5c1.1-5.8,2.5-11.5,4.1-17.1C350.2,316.8,349.5,316.6,349.4,317.1L349.4,317.1z"/>
				</g>
			</g>
			<g>
				<g>
					<path class="st10" d="M342,382.6c5.7-13.6,13.3-26.4,22-38.3c0.3-0.4-0.4-0.8-0.6-0.4c-8.7,12-16.3,24.8-22,38.5
						C341.1,382.8,341.8,383,342,382.6L342,382.6z"/>
				</g>
			</g>
			<g>
				<path class="st12" d="M333.8,362.3c3.9,6.1,5.8,13.4,5.3,20.6c-6.3-2.2-11.8-9.3-15.2-15.1c-3.3-5.8-5.2-12.3-6.9-18.7
					C323.8,351.6,329.8,356.3,333.8,362.3z"/>
			</g>
			<g>
				<g>
					<path class="st10" d="M341.8,387.7c-4.7-11.2-10.9-21.6-18.1-31.3c-0.3-0.4-0.9,0-0.6,0.4c7.1,9.7,13.3,20,18,31.2
						C341.3,388.3,342,388.1,341.8,387.7L341.8,387.7z"/>
				</g>
			</g>
			<g>
				<g>
					<path class="st10" d="M342,391.5c8.9-9.1,17.9-18.1,26.8-27.2c0.3-0.3-0.2-0.9-0.5-0.5c-8.9,9.1-17.9,18.1-26.8,27.2
						C341.1,391.3,341.7,391.8,342,391.5L342,391.5z"/>
				</g>
			</g>
			<g>
				<path class="st12" d="M369.1,360c-7.7,7.4-14.7,15.6-20.9,24.3l1.4,0c5.9-0.3,11.6-3.2,15.2-7.7
					C368.5,372,370.1,365.8,369.1,360z"/>
			</g>
			<g>
				<g>
					<g>
						<path class="st15" d="M332.5,342.3c3.3,5.4,6.4,10.9,9.3,16.6c0.2,0.4,0.9,0,0.6-0.4c-2.9-5.6-6-11.2-9.3-16.6
							C332.9,341.5,332.3,341.9,332.5,342.3L332.5,342.3z"/>
					</g>
				</g>
				<g>
					<path class="st12" d="M324.6,315c-1.3,5.7-2.5,13.1-2.5,19c0,5.9,1.8,11.7,5.1,15.6c3.4,4,10.1,5.7,12.9,3.4L324.6,315z"/>
				</g>
			</g>
		</g>
		<rect x="324.5" y="394.1" class="st10" width="33.7" height="6.2"/>
		<polygon class="st10" points="352.7,422.5 331.8,422.5 328,398.9 355.7,398.9 		"/>
	</g>
	<g>
		<g>
			<g>
				<path class="st12" d="M550.3,176.2c7.8-8.7,7.1-22.1-1.7-30c-8.7-7.8-22.1-7.1-30,1.7c-6,6.7-6.9,16.3-3,23.9l-2.3,5.9l6.7-0.1
					c0.1,0.1,0.2,0.2,0.3,0.2C529.1,185.7,542.5,185,550.3,176.2z"/>
			</g>
			<path class="st16" d="M546.5,141c6.2,3.1,10.6,9.4,11.3,16.3"/>
			<path class="st16" d="M558,160.5c0.2,1,0.2,2.1-0.1,3.1"/>
		</g>
		<g>
			<polygon class="st11" points="534.1,171.1 524.4,163.9 526.9,160.5 533.4,165.4 542.4,154.7 545.6,157.4 			"/>
		</g>
	</g>
	<g>
		<g>
			<g>
				<g>
					<path class="st11" d="M355.1,84c5.3,9.4,2,21.6-7.3,27.2c-7.2,4.3-15.8,3.5-21.8-1.4l-5.7,1l1.4-6.2c-0.1-0.1-0.1-0.2-0.2-0.3
						c-5.3-9.4-2-21.6,7.3-27.2C338.1,71.6,349.9,74.6,355.1,84z"/>
				</g>
			</g>
		</g>
		<path class="st12" d="M333.6,93.8c0,1.4-1.2,2.6-2.7,2.6c-1.5,0-2.7-1.2-2.7-2.6c0-1.4,1.2-2.6,2.7-2.6
			C332.4,91.2,333.6,92.3,333.6,93.8z"/>
		<path class="st12" d="M341.7,93.8c0,1.4-1.2,2.6-2.7,2.6c-1.5,0-2.7-1.2-2.7-2.6c0-1.4,1.2-2.6,2.7-2.6
			C340.6,91.2,341.7,92.3,341.7,93.8z"/>
		<path class="st12" d="M349.9,93.8c0,1.4-1.2,2.6-2.7,2.6s-2.7-1.2-2.7-2.6c0-1.4,1.2-2.6,2.7-2.6S349.9,92.3,349.9,93.8z"/>
	</g>
	<g>
		<g>
			<path class="st0" d="M50.2,128c0.7,0.5,15.2,15.2,15.2,15.2V128H50.2z"/>
			<path class="st17" d="M50.2,128c0.7,0.5,15.2,15.2,15.2,15.2V128H50.2z"/>
			<path class="st0" d="M99.7,129.8H13.4c-4,0-7.2-3.2-7.2-7.2V43.2c0-4,3.2-7.2,7.2-7.2h86.3c4,0,7.2,3.2,7.2,7.2v79.3
				C106.9,126.5,103.7,129.8,99.7,129.8z"/>
			<path class="st17" d="M99.7,129.8H13.4c-4,0-7.2-3.2-7.2-7.2V43.2c0-4,3.2-7.2,7.2-7.2h86.3c4,0,7.2,3.2,7.2,7.2v79.3
				C106.9,126.5,103.7,129.8,99.7,129.8z"/>
		</g>
		<g>
			<g>
				<path class="st15" d="M54.6,47.7c1.7-1.7,8,1.7,14.3,7.7c6.2,6,9.9,12.3,8.2,14c-1.7,1.7-8-1.7-14.3-7.7
					C56.6,55.7,52.9,49.4,54.6,47.7z"/>
				<path class="st12" d="M62.8,61.7c-6.2-6-9.9-12.2-8.2-14L35,68.1c-1.7,1.7,2,8,8.2,14c6.2,6,12.6,9.5,14.2,7.7l19.7-20.4
					C75.4,71.1,69.1,67.7,62.8,61.7z"/>
				<path class="st18" d="M62.8,61.7c-6.2-6-9.9-12.2-8.2-14L35,68.1c-1.7,1.7,2,8,8.2,14c6.2,6,12.6,9.5,14.2,7.7l19.7-20.4
					C75.4,71.1,69.1,67.7,62.8,61.7z"/>
				<path class="st12" d="M90.9,62.6c-3.7,6.6-9.4,8.6-15.9,7.1h0c-2.8-0.6-7.5-3.6-12.1-8.1c-2.4-2.2-4.5-4.7-6.3-7.4
					c0.2-2.3,3.3-4.2,6-4.5c3.6-0.4,8.3,0.4,12.8,6.7c5.5,7.6,11.2,6.3,12.1,3.5C88.9,55.1,94.3,56.7,90.9,62.6z"/>
				<path class="st12" d="M85.7,58c0.2-2.1-1.5-2.9-1.4-0.9C84.4,59.1,85.6,59.5,85.7,58z"/>
				<path class="st12" d="M89.9,67.9c1.5-0.5,1.5-1.9,0.1-1.2C88.7,67.4,88.8,68.3,89.9,67.9z"/>
			</g>
			<path class="st12" d="M28.9,97.8c-3.6,3.5-3.5,9.4,0.1,13.1c3.6,3.7,9.5,3.9,13.1,0.3c3.6-3.5,3.5-9.4-0.1-13.1
				C38.4,94.4,32.5,94.3,28.9,97.8z"/>
			<path class="st19" d="M51.6,98.8c-3.6,3.5-3.5,9.4,0.1,13.1c3.6,3.7,9.5,3.9,13.1,0.3c3.6-3.5,3.5-9.4-0.1-13.1
				C61,95.4,55.2,95.2,51.6,98.8z"/>
			<path class="st20" d="M80.8,114.8c4.9,0.2,9-3.6,9.3-8.5c0-0.2,0-0.3,0-0.5c0-5.2-4.1-9.4-9.3-9.6c-4.9-0.2-9,3.6-9.3,8.5
				c0,0.2,0,0.3,0,0.5C71.5,110.3,75.6,114.5,80.8,114.8z"/>
		</g>
		<circle class="st14" cx="35.5" cy="104.5" r="11"/>
	</g>
	<g>
		<g>
			<g>
				<g>
					<g>
						<path class="st12" d="M549.8,423.2h-99.6c-1.9,0-3.4-1.5-3.4-3.4v-78.9c0-1.9,1.5-3.4,3.4-3.4h101.7c1.9,0,3.4,1.5,3.4,3.4
							v76.8C555.4,420.7,552.9,423.2,549.8,423.2z"/>
					</g>
				</g>
				<path class="st21" d="M481.9,380.3v-17.9c0-1.8,2-2.9,3.5-2l15.5,9l15.5,9c1.6,0.9,1.6,3.2,0,4.1l-15.5,9l-15.5,9
					c-1.6,0.9-3.5-0.2-3.5-2V380.3z"/>
				<path class="st22" d="M549.9,423.2h-14.2v-85.7h16.4c1.8,0,3.3,1.5,3.3,3.3v77C555.4,420.7,552.9,423.2,549.9,423.2z"/>
			</g>
		</g>
		<g>
			<g>
				<g>
					<g>
						<g>
							<polygon class="st23" points="415.7,369.4 404.7,389.6 395,386.7 403.8,363.3 							"/>
						</g>
					</g>
				</g>
			</g>
			<g>
				<g>
					<g>
						<g>
							<g>
								<g>
									<g>
										<g>
											<g>
												<g>
													<g>
														<g>
															<path class="st15" d="M402.2,400.5l-6.9-1.5c0,0-0.4-1.4-1.8-1.8c-0.8-0.2-3,0.5-3,0.5l-19-3.9c0,0,0.3-1.3,0.6-1.8
																c0.4-0.6,0.8-1.2,1.2-1.6c1.5-1.5,3.8-1.8,5.5-1.9c2.9-0.3,11.1-2.5,11.1-2.5s2.1-0.8,3.9-3.2c1-1.4,2.3-2,3.1-2
																c1.7,0.1,2.4,1.3,2.4,2.9l-0.1,1.9c1.1,1.3,2.8,1.6,4.3,0.6c0,0,4-1.4,3.4,0.4c-0.3,1-2,5.4-3.1,8.9
																c-0.3,0.8-0.5,1.6-0.8,2.3l0,0C402.6,399.4,402.2,400.5,402.2,400.5z"/>
														</g>
													</g>
												</g>
											</g>
										</g>
									</g>
									<g>
										<g>
											<g>
												<g>
													<path class="st12" d="M385.5,387.1c0.1-0.1,0.2,0,0.3,0c0.4,0.4,0.7,0.9,0.8,1.4c0.1,0.3-0.4,0.5-0.5,0.2
														c-0.1-0.5-0.4-0.9-0.7-1.2C385.4,387.3,385.4,387.2,385.5,387.1C385.5,387.1,385.5,387.1,385.5,387.1z"/>
												</g>
											</g>
										</g>
									</g>
									<g>
										<g>
											<g>
												<g>
													<path class="st12" d="M387.2,386.6c0.1-0.1,0.2,0,0.3,0c0.4,0.4,0.7,0.9,0.8,1.4c0.1,0.3-0.4,0.5-0.5,0.2
														c-0.1-0.5-0.4-0.9-0.7-1.2C387,386.9,387,386.7,387.2,386.6C387.2,386.6,387.2,386.6,387.2,386.6z"/>
												</g>
											</g>
										</g>
									</g>
									<g>
										<g>
											<g>
												<g>
													<path class="st12" d="M388.8,386.2c0.1-0.1,0.2,0,0.3,0c0.4,0.4,0.7,0.9,0.8,1.4c0.1,0.3-0.4,0.5-0.5,0.2
														c-0.1-0.5-0.4-0.9-0.7-1.2C388.7,386.4,388.7,386.3,388.8,386.2C388.8,386.2,388.8,386.2,388.8,386.2z"/>
												</g>
											</g>
										</g>
									</g>
								</g>
							</g>
						</g>
					</g>
				</g>
			</g>
			<path class="st24" d="M393.5,397.2c-0.8-0.2-3,0.5-3,0.5l-19-3.9c0,0,0.3-1.3,0.6-1.8c0.2-0.3,0.4-0.6,0.6-0.8l30.5,6.3
				c0,0.1-0.1,0.3-0.1,0.4l0,0c-0.5,1.5-0.9,2.5-0.9,2.5l-6.9-1.5C395.3,399,394.9,397.6,393.5,397.2z"/>
			<path class="st25" d="M389,386.4c0.2-0.6,0.4-1.3,0.5-2c0.1-0.7,0-1.4-0.2-2c-0.1-0.3-0.3-0.6-0.6-0.6c-0.3,0-0.6,0.2-0.8,0.5
				c-0.3,0.5-0.4,1.2-0.2,1.8C387.7,384.8,388.6,385.9,389,386.4"/>
			<path class="st25" d="M389,386.4c0.4-0.6,0.8-1.1,1.2-1.6c0.5-0.5,1-0.9,1.7-1.1c0.3-0.1,0.7-0.1,0.9,0.1
				c0.2,0.2,0.2,0.6,0.1,0.9c-0.2,0.6-0.7,1.1-1.3,1.3C391.1,386.4,389.7,386.4,389,386.4"/>
		</g>
		<g>
			<g>
				<g>
					<g>
						<g>
							<polygon class="st23" points="461.3,384.2 466.4,406.6 457.2,410.9 448.4,387.5 							"/>
						</g>
					</g>
				</g>
			</g>
			<g>
				<g>
					<g>
						<g>
							<g>
								<g>
									<g>
										<g>
											<g>
												<g>
													<g>
														<g>
															<path class="st15" d="M471.7,416.4l-6.1,3.5c0,0-1.2-0.8-2.6-0.1c-0.7,0.4-1.9,2.4-1.9,2.4l-16.8,9.6
																c0,0-0.7-1.2-0.8-1.8c-0.1-0.7-0.2-1.4-0.1-2c0.2-2.1,1.7-3.8,2.8-5.1c2-2.1,6.7-9.2,6.7-9.2s1.1-2,0.8-5
																c-0.2-1.7,0.4-3,1.1-3.6c1.4-1,2.7-0.6,3.7,0.6l1.2,1.5c1.6,0.2,3.1-0.7,3.7-2.4c0,0,2.1-3.7,2.8-2
																c0.4,1,2.1,5.4,3.5,8.8c0.3,0.8,0.7,1.6,0.9,2.2l0,0C471.3,415.4,471.7,416.4,471.7,416.4z"/>
														</g>
													</g>
												</g>
											</g>
										</g>
									</g>
									<g>
										<g>
											<g>
												<g>
													<path class="st12" d="M450.4,417.4c0-0.1,0.1-0.2,0.3-0.2c0.5,0,1.1,0.2,1.6,0.5c0.3,0.2,0,0.6-0.2,0.4
														c-0.4-0.3-0.9-0.4-1.4-0.4C450.4,417.7,450.3,417.6,450.4,417.4C450.4,417.4,450.4,417.4,450.4,417.4z"/>
												</g>
											</g>
										</g>
									</g>
									<g>
										<g>
											<g>
												<g>
													<path class="st12" d="M451.3,416c0-0.1,0.1-0.2,0.3-0.2c0.5,0,1.1,0.2,1.6,0.5c0.3,0.2,0,0.6-0.2,0.4
														c-0.4-0.3-0.9-0.4-1.4-0.4C451.3,416.3,451.2,416.1,451.3,416C451.3,416,451.3,416,451.3,416z"/>
												</g>
											</g>
										</g>
									</g>
									<g>
										<g>
											<g>
												<g>
													<path class="st12" d="M452.2,414.5c0-0.1,0.1-0.2,0.3-0.2c0.5,0,1.1,0.2,1.6,0.5c0.3,0.2,0,0.6-0.2,0.4
														c-0.4-0.3-0.9-0.4-1.4-0.4C452.3,414.8,452.2,414.7,452.2,414.5C452.2,414.6,452.2,414.6,452.2,414.5z"/>
												</g>
											</g>
										</g>
									</g>
								</g>
							</g>
						</g>
					</g>
				</g>
			</g>
			<path class="st24" d="M463,419.8c-0.7,0.4-1.9,2.4-1.9,2.4l-16.8,9.6c0,0-0.7-1.2-0.8-1.8c-0.1-0.3-0.1-0.7-0.1-1l27.1-15.5
				c0.1,0.1,0.1,0.3,0.2,0.4l0,0c0.6,1.5,1,2.5,1,2.5l-6.1,3.5C465.6,419.9,464.3,419.1,463,419.8z"/>
			<path class="st25" d="M452.5,414.7c-0.3-0.6-0.6-1.2-1-1.8c-0.4-0.6-0.9-1-1.5-1.3c-0.3-0.1-0.6-0.2-0.9,0
				c-0.3,0.2-0.3,0.6-0.3,0.9c0.1,0.6,0.5,1.2,1,1.5C450.4,414.3,451.9,414.6,452.5,414.7"/>
			<path class="st25" d="M452.6,414.6c-0.1-0.7-0.2-1.3-0.1-2c0-0.7,0.2-1.4,0.6-1.9c0.2-0.3,0.4-0.5,0.7-0.5c0.3,0,0.6,0.3,0.7,0.6
				c0.2,0.6,0.2,1.3-0.1,1.8C454.1,413.2,453,414.2,452.6,414.6"/>
		</g>
		<g>
			<g id="freepik--Character--inject-281_00000005252941569225955230000005281706764941849498_">
				<path class="st15" d="M425.7,326.3c0.4,3.6,1.1,8.5,2.1,12c2.6,9.9,5.5,19.3,9.1,29.1c7.1,19.4,12.8,37.3,12.8,37.3l18-5.4
					c0,0-11.9-56-19.9-61.7H497c0.9,0,1.8-0.1,2.7-0.2c-8.5-1.1-21.7-6.3-33.9-11.5c-10.8-4.6-21-9.3-26.4-11l0,0
					C432.7,317.8,425.2,320.7,425.7,326.3z"/>
				<path class="st26" d="M439.4,315c5.5,1.8,15.6,6.4,26.4,11c12.3,5.2,25.5,10.4,33.9,11.5c14.3-1.9,19.6-18.9,4.7-38.5
					c-9.7,0-19.4,9.3-19.4,9.3S455.8,308.1,439.4,315z"/>
				<path class="st15" d="M399.3,375.3l11.9,7.2c0,0,9.9-20.8,19.4-44.4c-0.9-3.5-1.6-7.1-2-10.7c-0.5-5.6,4-9.6,10.7-12.4l0,0
					c5.5,1.8,15.6,6.4,26.4,11c12.3,5.2,25.5,10.4,33.9,11.5c1,0.1,2,0.2,2.9,0.2c16.3,0,21.9-14.3,15.3-38.5c-9.7,0-26.3-1-26.3-1
					s-32-7.7-55.1-5.1c-11.2,1.3-20.3,9.7-22.5,20.8C408.3,343.4,399.3,375.3,399.3,375.3z"/>
				<path class="st15" d="M397.4,376.1l13.8,6.3c0,0,9.9-20.8,19.4-44.4c-0.9-3.5-1.6-7.1-2-10.7c-0.5-5.6,4-9.6,10.7-12.4l0,0
					c5.5,1.8,15.6,6.4,26.4,11c12.3,5.2,25.5,10.4,33.9,11.5c1,0.1,2,0.2,2.9,0.2c16.3,0,21.9-14.3,15.3-38.5c-9.7,0-26.3-1-26.3-1
					s-32-7.7-55.1-5.1c-11.2,1.3-20.3,9.7-22.5,20.8C408.3,343.4,397.4,376.1,397.4,376.1z"/>
			</g>
			<path class="st27" d="M425.7,326.3c0.4,3.6,1.1,8.5,2.1,12c2.6,9.9,5.5,19.3,9.1,29.1c7.1,19.4,12.8,37.3,12.8,37.3l18-5.4
				c0,0-11.9-56-19.9-61.7H497c0.9,0,1.8-0.1,2.7-0.2c-8.5-1.1-21.7-6.3-33.9-11.5c-10.8-4.6-21-9.3-26.4-11l0,0
				C432.7,317.8,425.2,320.7,425.7,326.3z"/>
		</g>
		<g>
			<path class="st12" d="M481.4,223.2l5.5-4.4l15.6-1c0,0,3.9,3.2,4.1,3.2c0.2,0,2.5,0.9,2.5,0.9l-1.5,3.8L481.4,223.2z"/>
			<path class="st23" d="M466.6,245.6c0,0-8.2,25.7-8.9,27.1c-2.7,4.8-20.4,13-20.4,13l-9.1-1.9l-6.5,5.4l4.3,3.3l5-1.9
				c2.7,0.5,5.5,0.7,8.3,0.7c4.7,0,27.2-5.7,31-12c3.8-6.3,5.5-35.4,5.5-35.4L466.6,245.6z"/>
			<g id="freepik--group--inject-39">
				<path class="st12" d="M519.2,304.2l-54.3-8.2c0.8-35.2,8.9-72.1,8.9-72.1c15.7-1.8,31.5-1.8,47.2-0.2
					C513.6,246.3,519.2,304.2,519.2,304.2z"/>
				<path class="st18" d="M514.6,303.6l-49.7-7.6c0.8-35.2,8.9-72.1,8.9-72.1c15.7-1.8,31.5-1.8,47.2-0.2
					C513.6,246.3,514.6,303.6,514.6,303.6z"/>
				<path class="st12" d="M520.9,223.7c-2.9,25.5,4.7,79.9,4.7,79.9c-3.4,7.4-12.6,8.8-23.5,8.4c-9.7-42,4.2-91,4.2-91L520.9,223.7z
					"/>
				<path class="st12" d="M473.7,223.9c-7.2,19.1-11.6,71.5-11.6,71.5l4.3,1c5.6-63.3,17.7-74.8,17.7-74.8L473.7,223.9z"/>
				<g>
					<path class="st12" d="M478.7,246.2l0.5-7.3c0-0.4,0.3-0.7,0.7-0.7l17.8,0.6c0,0,0,0,0,0c0.4,0,0.7,0.4,0.6,0.8l-0.4,7.5
						l-0.4,7.5c0,0,0,0,0,0c0,0.4-0.3,0.8-0.7,0.7l-18-1.3c0,0,0,0,0,0c-0.4,0-0.7-0.4-0.6-0.9L478.7,246.2z"/>
					<path class="st28" d="M478.7,246.2l0.5-7.3c0-0.4,0.3-0.7,0.7-0.7l17.8,0.6c0,0,0,0,0,0c0.4,0,0.7,0.4,0.6,0.8l-0.4,7.5
						l-0.4,7.5c0,0,0,0,0,0c0,0.4-0.3,0.8-0.7,0.7l-18-1.3c0,0,0,0,0,0c-0.4,0-0.7-0.4-0.6-0.9L478.7,246.2z"/>
					<path class="st29" d="M478.7,246.2c3.1,0.8,8.6,2,8.7,1.6c0.1-0.6,0.1-2.9,0.4-3.5c0.3-0.7,3.3,6.1,4.3,5.1s0.1-8.2,2-8.3
						c1.1,0,2.6,3.1,3.8,6l-0.4,7.5c0,0,0,0,0,0c0,0.4-0.3,0.8-0.7,0.7l-18-1.3c0,0,0,0,0,0c-0.4,0-0.7-0.4-0.6-0.9L478.7,246.2z"/>
				</g>
				<path class="st12" d="M454,259.3l10.9,3.1h0.9l3.8-20l4.1-18.4C463.4,225.4,454,259.3,454,259.3z"/>
				<polygon class="st12" points="502.4,217.8 503.4,234 506.6,221 				"/>
			</g>
		</g>
		<g>
			<g>
				<path class="st15" d="M450.3,293.2h16.3H484c0,0,0,0,0,0c0,1.3-1.4,2.3-3.2,2.3h-17.3h-9.9c0,0,0,0,0,0c0,0,0,0,0,0h-27.6
					c-1.7,0-3.2-1.1-3.1-2.3H450.3z"/>
			</g>
			<path class="st15" d="M425.4,295.4h30.8c0.5,0,1-0.4,1-0.8c0-0.1,0-0.2,0-0.2L443.4,263c-0.3-0.9-1.4-1.5-2.5-1.5H410
				c-0.5,0-0.9,0.3-0.9,0.8c0,0.1,0,0.2,0.1,0.3l13.7,31.4C423.2,294.8,424.2,295.4,425.4,295.4z"/>
			<path class="st30" d="M410,261.5h30.8c1.2,0,2.2,0.6,2.5,1.5l13.2,30.2h10.1H484c0,0,0,0,0,0c0,1.3-1.4,2.3-3.2,2.3h-17.3h-9.9
				c0,0,0,0,0,0c0,0,0,0,0,0h-27.6c-0.6,0-1.1-0.1-1.5-0.3c-0.7-0.2-1.3-0.7-1.5-1.3l-13.7-31.4c0-0.1-0.1-0.2-0.1-0.3
				C409.1,261.9,409.5,261.5,410,261.5z"/>
			<path class="st11" d="M428.5,278.2c0.7,1.5,2,2.5,3,2.3s1.3-1.6,0.6-3.1s-2-2.5-3-2.3C428.1,275.4,427.8,276.7,428.5,278.2z"/>
			<g class="st22">
				<line class="st31" x1="457.1" y1="293.2" x2="456.5" y2="293.2"/>
				<path d="M443.4,263l13.2,30.2h-1.4l-14.3-31.7C442,261.5,443,262.1,443.4,263z"/>
			</g>
		</g>
		<g>
			<g>
				<path class="st23" d="M513,240.8c0,0-2.2,31.6-4.7,34.3c-4.3,4.6-27.8,14.7-27.8,14.7l-10.6-3.7c-0.7-0.2-1.6-0.1-2.2,0.4
					l-7.3,5.5l0.7,0.6c0.3,0.3,0.7,0.3,1.1,0.1l1.1-0.6l-1.3,1.2l0.4,0.3c0.4,0.3,0.9,0.5,1.5,0.3l3.2-0.9l-3,2
					c0.7,0.6,1.6,0.8,2.5,0.5l4.8-1.4c3.2,0.7,6.5,1.2,9.9,1.4c5.6,0.3,33.4-4.8,38.4-11.5c4.9-6.8,8.6-39,8.6-39L513,240.8z"/>
			</g>
			<path class="st12" d="M520.9,223.7c0,0,8.9,1.1,8.9,10.6c0,8.2-3,29.5-3,29.5l-18.8-3.5l4.1-23.6
				C513,231.4,516.2,226.6,520.9,223.7L520.9,223.7z"/>
		</g>
		<g>
			<g>
				<path class="st15" d="M479.5,183.4c0.4-0.5-0.7-11.3,18-5.9c13.9,4,8.6,14.9,8.6,14.9l-15.9-11.5L479.5,183.4z"/>
				<path class="st23" d="M502.1,222.9c-1.4-0.8-1.6-1.4-2-2.9c-1.1-3.7,0.1-16.4,0.1-16.4l-13.8,5.7c0,0,0.1,0.3,0.3,0.8
					c0.4,1.5,1.3,4.6,1.6,7.2c0.2,1.6,0.1,3.1-0.4,3.8c-0.6,0.7-2.2,1.8-3.3,2.1c0,0,1.8,3.8,8,3.3
					C498.6,226.1,502.1,222.9,502.1,222.9z"/>
				<path class="st27" d="M497.9,210.6c0,0-3,6.2-9.8,6c-0.3-2.6-1.2-5.7-1.6-7.2c0.5-0.2,0.8-0.3,0.8-0.3L497.9,210.6z"/>
				<path class="st15" d="M480.2,181.1c0,0-4,11.4,1.3,17.1c5.4,5.7,9.5-16.1,9.5-16.1L480.2,181.1z"/>
				<path class="st23" d="M497.9,211c-4.2,3.2-9,4-13,1.8c-2.6-1.4-4.7-3.8-5.7-6.8c-0.1-0.4-0.2-0.8-0.3-1.2
					c-1.7-7.8-0.3-20.5,8.2-23.7c6-2.4,12.9,0.6,15.2,6.7c0.7,1.7,0.9,3.6,0.8,5.4C502.3,201.7,502.8,207.3,497.9,211z"/>
				<path class="st15" d="M489.9,195.7c0,0.9-0.5,1.6-1.1,1.6c-0.6,0-1-0.8-1-1.7c0-0.9,0.5-1.6,1.1-1.6
					C489.5,194.1,489.9,194.8,489.9,195.7z"/>
				<path class="st15" d="M482.1,195.7c0,0.9-0.5,1.6-1.1,1.6c-0.6,0-1-0.8-1-1.7c0-0.9,0.5-1.6,1.1-1.6
					C481.6,194.1,482.1,194.9,482.1,195.7z"/>
				<path class="st32" d="M484.5,195.5c-0.9,2.1-2,4.1-3.5,5.9c1,0.7,2.2,1,3.3,0.7L484.5,195.5z"/>
				<path class="st15" d="M479.1,191.7c0.1,0.1,0.3,0.1,0.4,0c0.9-0.6,2-0.7,3-0.3c0.2,0.1,0.4,0,0.5-0.2c0.1-0.2,0-0.4-0.2-0.5
					c0,0,0,0,0,0c-1.2-0.5-2.6-0.4-3.7,0.3c-0.2,0.1-0.3,0.4-0.2,0.6c0,0,0,0,0,0C479,191.6,479.1,191.6,479.1,191.7z"/>
				<path class="st15" d="M491.5,192.1c0.1,0,0.2,0,0.2-0.1c0.2-0.2,0.1-0.4,0-0.6c0,0,0,0,0,0c-1-0.9-2.3-1.3-3.6-1
					c-0.2,0.1-0.3,0.3-0.3,0.5l0,0c0.1,0.2,0.3,0.3,0.5,0.3l0,0c1-0.2,2.1,0.1,2.9,0.8C491.3,192.1,491.4,192.2,491.5,192.1z"/>
				<path class="st15" d="M496.9,182.3l-0.7,3.7c1.2,0.7,1.8,2.2,1.2,3.6c-1.4,3.1,0,8.1,2.3,10.3c0,0,0.2-1.4,1.3-1
					c1.1,0.4,0,6.2-1.2,9.7c0,0,2.6-1.8,5.1-9.2c2.3-6.8,2.9-12.6,1.6-15.4L496.9,182.3z"/>
				<path class="st33" d="M496.9,182.3l-0.7,3.7c1.2,0.7,1.8,2.2,1.2,3.6c-1.4,3.1,0,8.1,2.3,10.3c0,0,0.2-1.4,1.3-1
					c1.1,0.4,0,6.2-1.2,9.7c0,0,2.6-1.8,5.1-9.2c2.3-6.8,2.9-12.6,1.6-15.4L496.9,182.3z"/>
				<path class="st23" d="M506.6,200.2c-1,1.9-2.7,3.4-4.8,4c-2.7,0.9-4.2-1.6-3.5-4.2c0.6-2.3,2.8-5.7,5.6-5.4
					C506.7,195,507.8,197.8,506.6,200.2z"/>
				<path class="st34" d="M500.1,200.7c0.3-1.4,1.2-2.7,2.5-3.5c0.5-0.3,1.3-0.5,1.7-0.1"/>
				<g>
					<path class="st15" d="M477.2,184.2c-1.6,0.4-3.3-0.1-4.5-1.3c2.2-0.1,4.4-0.8,6.4-2c-2,0.5-4.2,0-5.7-1.3
						c3-0.5,5.7-1.9,8.5-2.9c6.3-2.3,13.3-2.5,19.5-0.1c1.5,0.6,2.9,1.3,3.9,2.5c1,1.2,2,3.6,1.2,4.9l-10.1,0.5
						c-1.6-3-4.2-1.9-7.9,0.3c-1.5,0.9-4.9,2.6-6.6,3c-2.1,0.5-3.8,0.8-5.1,0.7c-2.3-0.1-3.2-0.8-4.6-1.8
						C474.3,186,475.6,185.7,477.2,184.2z"/>
				</g>
			</g>
			<g>
				<path class="st15" d="M487.5,203.3c1.6-0.5,3.1-1.3,4.4-2.4c0.1,0.3,0.2,0.5,0.3,0.8c0.1,0.5,0.1,1,0,1.5
					c-0.3,1-1.1,2.1-3.5,2.8c-0.2,0.1-0.4,0.1-0.5,0.2c-0.4-0.9-1-1.9-1.5-2.7C486.7,203.6,487,203.5,487.5,203.3z"/>
				<path class="st11" d="M491.9,201c0.1,0.3,0.2,0.5,0.3,0.8c-0.5,0.9-2,1.7-4.3,2.3l-0.5-0.8C489.1,202.9,490.6,202,491.9,201z"/>
				<path class="st35" d="M489.8,204.6c0.8-0.6,1.6-1,2.5-1.3c-0.3,1-1.1,2.1-3.5,2.8C488.9,205.5,489.3,205,489.8,204.6z"/>
			</g>
		</g>
	</g>
	<g id="freepik--character-1--inject-2_00000169534973332008825670000001233928088400013704_">
		<g>
			<path class="st36" d="M250.8,195.7l-7.3,5.9l-8,38.3l5.2,10.2l-2.5-0.4c-0.2,0.2-0.4,0.4-0.6,0.6l9.2,1.5c0-1.7,0-3.3,0-4.8
				c-1.4-0.2-2.2-0.3-2.2-0.3l0.8-4c-0.3-0.1-0.5-0.1-0.8-0.2c0,0,3-18.2,7.1-37.2c0.1-0.3,0.1-0.7,0.2-1c0.3-1.3,0.6-2.6,0.9-3.9
				c0.5-2,0.9-4,1.4-6c-1,0.6-2,1.3-3,1.9L250.8,195.7z"/>
			<path class="st22" d="M252.9,200.5c-0.3,1.3-0.6,2.6-0.9,3.9c-0.1,0.3-0.1,0.7-0.2,1c-4.1,19-7.1,37.2-7.1,37.2
				c0.3,0.1,0.5,0.1,0.8,0.2l-0.8,4c0,0,0.8,0.1,2.2,0.3c0,1.5,0,3.1,0,4.8l-9.2-1.5c0.2-0.2,0.4-0.4,0.6-0.6l2.5,0.4l-5.2-10.2
				l8-38.3l7.3-5.9l0.5,0.7c1-0.6,2-1.3,3-1.9C253.8,196.5,253.3,198.5,252.9,200.5z"/>
		</g>
		<g>
			<polygon class="st37" points="283,419.5 292,418.6 293.7,399.3 281.7,400.9 			"/>
			<g>
				<g>
					<path class="st15" d="M293.2,412.6h-3.1c-0.7,0-1.4,0.4-1.8,0.9c-1.8,2.5-3.2,1.5-5.1-0.8c-1.2-0.1-1.6,1.3-1.7,1.7l-2.3,8.5
						c-0.2,0.7,0.2,1.5,0.9,1.7c0.1,0,0.3,0.1,0.4,0.1c3.8,0,5.6,0,10.3,0h14.5c3.9,0,4.8-4,3.1-4.3c-7.3-1.6-12.5-3.8-14.8-5.9
						C293.3,414.1,293.7,413.8,293.2,412.6z"/>
					<path class="st12" d="M300,415c0.3-0.2,0.5-0.6,0.5-1c0-0.2-0.1-0.4-0.3-0.6c-1-0.7-4.9,1.1-5.3,1.4c0,0-0.1,0.1-0.1,0.1
						c0,0.1,0,0.2,0.1,0.2c1,0.2,1.9,0.4,2.9,0.4C298.6,415.6,299.4,415.4,300,415z M300.1,413.8c0.1,0,0.1,0.1,0.1,0.2
						c0,0.3-0.2,0.6-0.4,0.7c-0.9,0.7-3,0.4-4.2,0.2C297.2,414.2,299.5,413.4,300.1,413.8z"/>
					<path class="st12" d="M295.1,415.2c1.2-0.5,3.6-2.4,3.5-3.4c0-0.2-0.2-0.5-0.7-0.5c-2.1-0.2-3.1,3.6-3.1,3.8
						c0,0.1,0,0.1,0.1,0.2C294.9,415.2,295,415.2,295.1,415.2L295.1,415.2z M297.8,411.5c0.4,0,0.4,0.2,0.4,0.2
						c0.1,0.6-1.7,2.2-3,2.9c0.3-0.9,1.1-3.2,2.4-3.2L297.8,411.5z"/>
					<path class="st16" d="M295.4,415c-1.1,0.1-2.1,0.8-2.7,1.7"/>
					<path class="st16" d="M297.4,416.5c-1.1,0.1-2.1,0.8-2.7,1.7"/>
					<path class="st16" d="M299.8,417.7c-1.1,0.1-2.1,0.8-2.7,1.7"/>
				</g>
			</g>
		</g>
		<g>
			<polygon class="st37" points="238.9,419.6 247.4,419.6 251.5,399.9 239.4,399.9 			"/>
			<g>
				<g>
					<path class="st15" d="M249.2,413.9H246c-0.7,0-1.4,0.4-1.8,0.9c-1.8,2.5-3.2,1.5-5.1-0.8c-1.2-0.1-1.6,1.3-1.7,1.7l-2.3,8.5
						c-0.2,0.7,0.2,1.5,0.9,1.7c0.1,0,0.3,0.1,0.4,0.1c3.8,0,5.6,0,10.3,0h14.5c3.9,0,4.8-4,3.1-4.3c-7.3-1.6-12.5-3.8-14.8-5.9
						C249.2,415.3,249.6,415,249.2,413.9z"/>
					<path class="st12" d="M256,416.3c0.3-0.2,0.5-0.6,0.5-1c0-0.2-0.1-0.4-0.3-0.6c-1-0.7-4.9,1.1-5.3,1.4c0,0-0.1,0.1-0.1,0.1
						c0,0.1,0,0.2,0.1,0.2c1,0.2,1.9,0.4,2.9,0.4C254.6,416.8,255.3,416.7,256,416.3z M256,415c0.1,0,0.1,0.1,0.1,0.2
						c0,0.3-0.2,0.6-0.4,0.7c-0.9,0.7-3,0.4-4.2,0.2C253.2,415.4,255.5,414.6,256,415z"/>
					<path class="st12" d="M251.1,416.4c1.2-0.5,3.6-2.4,3.5-3.4c0-0.2-0.2-0.5-0.7-0.5c-2.1-0.2-3.1,3.6-3.1,3.8
						c0,0.1,0,0.1,0.1,0.2C250.9,416.4,250.9,416.4,251.1,416.4L251.1,416.4z M253.8,412.7c0.4,0,0.4,0.2,0.4,0.2
						c0.1,0.6-1.7,2.2-3,2.9c0.3-0.9,1.1-3.2,2.4-3.2L253.8,412.7z"/>
					<path class="st16" d="M251.4,416.3c-1.1,0.1-2.1,0.8-2.7,1.7"/>
					<path class="st16" d="M253.3,417.7c-1.1,0.1-2.1,0.8-2.7,1.7"/>
					<path class="st16" d="M255.7,419c-1.1,0.1-2.1,0.8-2.7,1.7"/>
				</g>
			</g>
		</g>
		<g>
			<path class="st15" d="M242.1,226.6h45.2c2.7,14.8,8.8,53.1,9.6,97.9c0.5,30.8,1.3,80.5,0,83.2l-18,0.1c0,0-0.8-38.4-3.2-76.6
				c-1.4-22-5.1-59.2-5.5-60.5c-1.6,19.4-4.2,54.4-5.8,65.4c-3.9,27.1-8.6,72.2-8.6,72.2H237c0,0,1.5-48.2,2.9-74.8
				C241.5,304.5,242.1,232.5,242.1,226.6z"/>
			<path class="st29" d="M270.1,270.7c0,0,1.8,16.5,2.5,23.1c1.3-17.2,2.6-29.6,2.6-29.6L270.1,270.7z"/>
		</g>
		<path class="st37" d="M345.3,189.7c-0.6,0.9-17.6,17.2-18.4,16.8c-0.8-0.5-7.3-21-7.3-21l-14.7,1.6c0,0,10.9,34.5,18.4,36.8
			s25.8-29.2,25.8-29.2"/>
		<g>
			<path class="st12" d="M240.8,234.4l-1,5.5c0,0,31.6,4.1,51.3,4l-0.7-3.7L240.8,234.4z"/>
			<path class="st12" d="M298.8,183.2l1.3,2.4l6.2,11.5l1.3,2.4l17.5-6.1c0,0-7.3-27.1-9.8-29.9L298.8,183.2z"/>
			<path class="st28" d="M298.8,183.2l1.3,2.4l6.2,11.5l1.3,2.4l17.5-6.1c0,0-7.3-27.1-9.8-29.9L298.8,183.2z"/>
			<path class="st29" d="M300.1,185.6l6.2,11.5c3.9-7.6,2.7-17.9,2.7-17.9L300.1,185.6z"/>
			<path class="st12" d="M315.3,163.5c-6.6-7.7-16.2-12.3-26.3-12.8c-17.1-0.8-22.5,0.9-28.7,6.5c-9.1,8.2-20.5,78.4-20.5,78.4
				c16.7,4.6,34,6.5,51.3,5.6c0,0,0.2-19.5,6.4-32.7C304.4,194,310.4,178.9,315.3,163.5z"/>
			<path class="st28" d="M239.8,235.7c16.7,4.6,34,6.5,51.3,5.6c0,0,0-2.4,0.3-6.1c0.1-1.7,0.3-3.8,0.6-6c0.3-2.2,0.7-4.7,1.1-7.2
				c0.3-1.3,0.6-2.7,0.9-4c0.8-3.2,1.9-6.3,3.3-9.3c0.8-1.6,1.5-3.2,2.2-4.8c1.2-2.7,2.4-5.4,3.4-7.9c2.3-5.3,4.3-10.2,5.9-14.5
				c1.1-3.1,2.2-5.8,3-8.2c0.9-2.6,1.7-4.8,2.2-6.4c0.7-2.1,1-3.3,1-3.3c-0.6-0.7-1.2-1.4-1.8-2c-6.4-6.3-14.9-10.1-23.9-10.7h-0.6
				c-13-0.6-19.3,0.2-24.2,3.1c-1.6,1-3.1,2.1-4.5,3.4c-1.3,1.4-2.3,3-3,4.8c-2.1,4.9-3.9,10-5.2,15.2l-0.8,2.8
				c-1.1,4.3-2.2,8.8-3.3,13.4c-0.3,1.3-0.6,2.6-0.9,3.9c-0.4,2-0.9,4-1.3,6c-1,5-2,9.8-2.8,14.1c-1.1,6.2-2.1,11.4-2.6,14.6
				C240,234.4,239.8,235.7,239.8,235.7z M290,151.4c1.2,0,2.3,0.1,3.4,0.3c4.6,0.6,11.7,4.3,11.5,6.1c-0.2,1.7-2.9,6.2-9.7,5.1
				c-2.4-0.4-4.7-1.4-6.7-2.8c-3.8-2.5-6.6-5.9-6.8-7C281.4,151.8,285.8,151.3,290,151.4L290,151.4z"/>
			<path class="st29" d="M247,197.5c10.9-4.5,19.4-23.1,19.4-23.1l-6.2-3.7l-8.4,6.7l-0.8,2.8c-1.1,4.3-2.2,8.8-3.3,13.4
				C247.6,194.9,247.3,196.2,247,197.5z"/>
			<polygon class="st12" points="306.8,199.5 325.5,192.6 326,194.2 307.3,200.9 			"/>
			<path class="st10" d="M203.9,238.9l55.8,8.8c2.9,0.5,4.8,3.2,4.4,6l-4.8,30.4c-0.5,2.9-3.2,4.8-6,4.4l-55.8-8.8
				c-2.9-0.5-4.8-3.2-4.4-6l4.8-30.4C198.3,240.4,201,238.4,203.9,238.9z"/>
			<polyline class="st38" points="223.3,256 212.2,261.7 220.9,270.5 			"/>
			<polyline class="st38" points="233.8,272.5 244.8,266.8 236.1,258 			"/>
			<line class="st38" x1="224.8" y1="271.1" x2="232.3" y2="257.4"/>
			<path class="st37" d="M253.8,160.3c0,0-25.4,23-28.2,26.9c-2.8,4-2.6,44.1-2.6,44.1s-1.2,2.5-1.3,4.3c0,1-0.5,6.8-0.4,7.4
				c0,0,3.4,9.4,11.9-0.1l2.5,0.4l-5.2-10.2l8-38.3l19.9-16.1L253.8,160.3z"/>
			<path class="st12" d="M269.5,152c3,6.3,0.7,19.6-4.8,24.3c-5.8,4.8-12,9.2-18.4,13.2l-10-13.1c0,0,10.7-10.4,17.1-16.4
				C257.8,155.7,263.4,152.9,269.5,152z"/>
			<path class="st28" d="M269.5,152c3,6.3,0.7,19.6-4.8,24.3c-5.8,4.8-12,9.2-18.4,13.2l-10-13.1c0,0,10.7-10.4,17.1-16.4
				C257.8,155.7,263.4,152.9,269.5,152z"/>
		</g>
		<g>
			<path class="st37" d="M284,153.2c1.9,5.3,8.7,7.7,12.3,8c2.7,0.4,5.4-1,6.6-3.5c0,0-4.1-2.1-3.7-4.4c0.3-1.4,0.9-2.8,1.7-3.9
				c0.4-0.7,0.9-1.3,1.4-1.9l-6.6-14.2C294.2,139.4,289.7,151.2,284,153.2z"/>
			<path class="st29" d="M295.4,139.8c-3.1,6.9,1.3,11.6,3.8,13.5c0.3-1.4,0.9-2.8,1.7-3.9L295.4,139.8z"/>
			<path class="st37" d="M317.6,121.4c0,0,2.1,11.7-4,16.4c-6.1,4.7-6.7-17.1-6.7-17.1L317.6,121.4z"/>
			<path class="st39" d="M317.6,121.4c0,0,2.1,11.7-4,16.4c-6.1,4.7-6.7-17.1-6.7-17.1L317.6,121.4z"/>
			<path class="st37" d="M295.8,147.6c2.8,3.9,7.8,5.4,12.3,3.8c2.9-1,5.2-3.1,6.6-5.7c0.2-0.4,0.4-0.7,0.5-1.1
				c2.9-7.3,3.4-25-4.2-24.3c-6.3,0.5-12.6-1.4-15.8,4.1c-0.9,1.6-1.5,3.3-1.6,5.1C293,137.8,292.2,142.7,295.8,147.6z"/>
			<path class="st15" d="M306,133.5c-0.1,0.7,0.2,1.3,0.6,1.3c0.4,0.1,0.9-0.4,1-1.1c0.1-0.7-0.2-1.3-0.6-1.3
				C306.5,132.3,306.1,132.8,306,133.5z"/>
			<path class="st15" d="M313.7,134.6c-0.1,0.7,0.2,1.3,0.6,1.3c0.4,0.1,0.9-0.4,1-1.1c0.1-0.7-0.2-1.3-0.6-1.3
				C314.2,133.4,313.8,134,313.7,134.6z"/>
			<path class="st40" d="M311.2,134.6c0.5,2.2,1.3,4.3,2.4,6.3c-1,0.5-2.3,0.6-3.4,0.1L311.2,134.6z"/>
			<path class="st15" d="M304,130.7c0.1,0,0.3,0,0.4-0.1c0.7-0.7,1.7-1.1,2.7-1c0.2,0,0.4-0.1,0.5-0.3c0-0.2-0.1-0.4-0.3-0.5
				c0,0,0,0,0,0l0,0c-1.3-0.2-2.5,0.2-3.4,1.1c-0.2,0.2-0.2,0.4,0,0.6l0,0C303.9,130.6,303.9,130.7,304,130.7z"/>
			<path class="st15" d="M317.4,132.4c0.1,0,0.2,0,0.2,0c0.2-0.1,0.3-0.3,0.3-0.5c0,0,0,0,0,0l0,0c-0.4-1.2-1.3-2.2-2.6-2.6
				c-0.2-0.1-0.4,0.1-0.5,0.3c0,0,0,0,0,0l0,0c-0.1,0.2,0.1,0.4,0.3,0.5l0,0c1,0.4,1.7,1.1,2,2.1
				C317.1,132.3,317.2,132.4,317.4,132.4z"/>
			<path class="st41" d="M304.9,141.3c0,0,1.4,3,4.3,2.9"/>
			<path class="st37" d="M301.2,119.8l0.1,3.7c-1.4,0.5-2.1,2-1.7,3.3c0.9,3.2-1.3,7.9-3.9,9.6c0,0,0-1.4-1.1-1.1
				c-1.1,0.2-1.5,7.3,0.4,10.8c0,0-4.1-3.7-5.3-11.3c-1.1-7-0.9-11.4,0-14.7L301.2,119.8z"/>
			<path class="st39" d="M301.2,119.8l0.1,3.7c-1.4,0.5-2.1,2-1.7,3.3c0.9,3.2-1.3,7.9-3.9,9.6c0,0,0-1.4-1.1-1.1
				c-1.1,0.2-1.5,7.3,0.4,10.8c0,0-4.1-3.7-5.3-11.3c-1.1-7-0.9-11.4,0-14.7L301.2,119.8z"/>
			<path class="st15" d="M289.1,124.3c4.1,0.4,8.2,0.1,12.3-0.7c11.6-2.3,16.5,2,16.5,2c1.6-1.5,2.5-3.6,2.4-5.7
				c-0.3-3.3-5-3.9-5-3.9s-1.4-3.8-4.5-4.9c-3.1-1.1-6.2,1.7-6.2,1.7s-3.8-3.7-8.3-2.6c-3.1,0.6-5.3,3.3-5.3,6.5
				c0,0-5.2,0.5-5.1,3.2C286.1,122.5,289.1,124.3,289.1,124.3z"/>
			<path class="st41" d="M306.9,129.8c2.1,0,3.8,1.9,3.8,4.3s-1.7,4.3-3.8,4.3c-2.1,0-3.8-1.9-3.8-4.3S304.8,129.8,306.9,129.8z"/>
			<path class="st41" d="M320.1,134.7c-0.3,2.1-2.2,3.5-4.3,3.2c-2.1-0.3-3.5-2.2-3.2-4.3c0.3-1.9,1.9-3.3,3.8-3.3
				C318.6,130.6,320.2,132.5,320.1,134.7z"/>
			<path class="st41" d="M310.6,134.6c0,0,1.2-0.8,1.9,0.1"/>
			<path class="st41" d="M303.1,134.1l-6.6-0.9c-0.9-0.1-1.7,0.1-2.4,0.7l-0.3,0.2"/>
			<path class="st37" d="M289,135.7c0.7,2,2.1,3.7,4,4.7c2.5,1.3,4.3-0.9,4.1-3.5c-0.2-2.4-1.8-5.9-4.6-6.1c-2-0.1-3.6,1.5-3.7,3.5
				C288.8,134.7,288.8,135.2,289,135.7z"/>
		</g>
		<path class="st37" d="M358.5,174.2c0.2-1.1-0.9-2.2-1.6-1.6c-0.7,0.6-2.8,2.4-4.4,4c-0.7,0.7-1.6,1.6-2.6,2.5
			c-0.1,0.1-0.2,0.2-0.4,0.3l-0.9,0.9c-0.5,0.4-0.9,0.8-1.1,1.1l-1.1,1c-0.6,0.6-1.1,1.4-1.5,2.2l-2.2,7.8l3.4,3.4c4.2,1.4,8-6,8-6
			l2.7-3.6c0.9-1.2,0.8-2.9-0.2-4.1l-2.6-2.7c0,0,0,0,0,0C355.2,178.2,358.3,175.3,358.5,174.2z"/>
	</g>
	<g>
		<g>
			<path class="st15" d="M75.1,180.3C71,185,50,225.5,54.1,234.9c4.1,9.4,37.7-1.4,37.7-1.4l-2-13.3c0,0-13.1,0.5-14.3-0.8
				c-1.3-1.2,17.7-20.1,17.7-20.1L75.1,180.3z"/>
			<g>
				<path class="st10" d="M54.1,235c0.5,1.1,1.4,2,2.5,2.5l0,0l0.7,0.3h0.1c0.2,0.1,0.4,0.2,0.6,0.2c0.9,0.3,1.9,0.5,2.9,0.6
					l0.8,0.1c0.4,0,0.8,0.1,1.3,0.1h1.2c11.3,0.1,27.6-5.2,27.7-5.3l-2-13.3c0,0-3.4,0.1-6.9,0.1c-3.4,0-6.8-0.2-7.4-0.9
					c-0.3-0.3,0.6-1.6,2.1-3.5l0,0c3.7-4.5,11.1-12.1,14.2-15.2l1.4-1.4l-18-18.9C71,185.1,50,225.5,54.1,235z"/>
			</g>
			<polygon class="st29" points="82,236.1 83.3,231.2 82.4,220.2 85.8,220.2 87.7,232.2 85.9,235.2 			"/>
			<polygon class="st29" points="82.4,210.4 78.2,198 79.2,213.9 			"/>
			<path class="st29" d="M75.6,219.5c0,0-1.8,4.6-5.4,7.5c0,0,5.8-2.3,6.8-7.2L75.6,219.5z"/>
		</g>
		<g>
			<path class="st23" d="M106.8,404.7l5.8,0.1c5.9-27.8,10.1-62.2,12.7-88.1c0.4-4.1,0.8-7.9,1.2-11.5c0.2-1.7,0.3-3.3,0.4-4.9
				c0.7-7.8,1.2-13.9,1.5-17.8c0.2-2.8,0.3-4.3,0.3-4.3h-21.1l0.2,5.4l0.7,17.7l0.1,2l0.4,11.7l0.7,19.9
				C102.5,362.7,106.8,404.7,106.8,404.7z"/>
			<path class="st23" d="M59.6,403.2l5.7,1.1c11.5-28.7,22.2-65.4,29.2-91c1.1-4,2.1-7.7,3-11.1c0-0.2,0.1-0.3,0.1-0.5
				c1.8-6.7,3.1-12,4-15.4l1-4.1L82,278.6l-1.2,8.7l-1.7,12.8l-0.3,2.5l-1.2,8.7l-3.1,23.4C62.5,361.1,59.6,403.2,59.6,403.2z"/>
			<path class="st15" d="M124,424c-1.1-0.9-2.3-1.6-3.6-2l0,0c0,0-4-3.9-5.9-15.8l-5.2-1.4c-1.8-0.4-3.7,0.3-4.7,1.8
				c-0.1,0.2-0.3,0.4-0.3,0.7c-0.3,1.3-0.5,2.6-0.6,3.8c-0.3,4.3-0.3,8.7-0.1,13h0.9l0.4-8.1c0.1-2.8,2.3,0.5,2.9,3.5
				c0.6,3,1.9,6.1,8,6.3C122.8,426,125.8,425.7,124,424z"/>
			<path class="st15" d="M104.4,406.9c-0.3-2.8-0.4-7.6-0.4-7.6l11.5,1.3c0,0-1.4,5.5-0.2,9.6C109.4,408.6,104.4,406.9,104.4,406.9z
				"/>
			<path class="st15" d="M77.1,424c-1.1-0.9-2.3-1.5-3.6-2l0,0c0,0-4-3.9-5.9-15.8l-5.2-1.4c-1.8-0.4-3.7,0.3-4.7,1.8
				c-0.1,0.2-0.3,0.4-0.3,0.7c-0.3,1.3-0.5,2.6-0.6,3.8c-0.3,4.3-0.3,8.7-0.1,13h0.9l0.4-8.1c0.1-2.8,2.3,0.5,2.9,3.5
				c0.6,3,1.9,6.1,8,6.3C75.9,426,78.9,425.7,77.1,424z"/>
			<path class="st15" d="M57.5,406.9c-0.3-2.8-0.5-7.6-0.5-7.6l11.5,1.3c0,0-1.4,5.5-0.2,9.6C62.5,408.6,57.5,406.9,57.5,406.9z"/>
		</g>
		<path class="st29" d="M91.8,159.6c1.3,1,2.8,1.6,4.5,2c4.7,1.1,7.9,0.3,10-1.9c-2.8,0.7-5.8,0.5-8.4-0.7
			C95.8,158.3,93.6,158.5,91.8,159.6z"/>
		<g>
			<path class="st41" d="M107.2,144.8c0,2.4,1.1,4.4,2.3,4.4c1.3,0,2.4-2,2.4-4.4c0-2.4-1.1-4.4-2.4-4.4S107.2,142.4,107.2,144.8z"
				/>
			<path class="st23" d="M91.5,159.4c0.1,0.1,0.2,0.1,0.3,0.2c1.3,1,2.8,1.7,4.5,2.2c4.7,1.1,7.9,0.4,10-1.7l0,0
				c2.9-3.2,3.7-8.9,3.3-15.7c-0.1-2.7-0.6-5.4-1.5-8c0,0,0-0.1,0-0.1c0,0-0.1-0.2-0.1-0.3c-1.2-2.9-3.8-5.1-6.9-5.7
				c-1.3-0.3-2.7-0.4-4-0.5C83.7,129.8,81.3,151.8,91.5,159.4z"/>
			<path class="st23" d="M90.4,171.6c-0.8,3.8,4.1,5.3,4.1,5.3c8-3.5,9.5-7.7,9.5-7.7c-6.7-3.5-4.8-13.4-4.8-13.4l-1.4,0.7l-9.6,1.9
				c0,0,2.6,5.1,3,6.3l0,0C93.1,170.8,90.4,171.6,90.4,171.6z"/>
			<path class="st15" d="M108,136.4c0,0,0.7,9.3-8.1,13.4c0,0-3.8,9.7-9.4,9.8c-7.6,0.2-14.3-10.7-11.7-21.7
				C82.2,123.5,103.9,122.3,108,136.4z"/>
			<path class="st15" d="M91.8,126.4c0,0,8.9-2.3,13.8,1.3c5.8,4.2,7.9,8.5,1.2,15.2c0,0-15-4.8-19.9-3.8c-2.9,0.6-5.8,1.4-8.5,2.5
				C77.2,131.8,86.8,124.4,91.8,126.4z"/>
			<path class="st15" d="M104.4,144.8c0,0-2.3,10.8,1.3,19.9l-2.8,0.6l-0.7-2.6c-0.5,0.2-0.7,3.4-1.4,3.6
				c-6.5,1.9-18.3,4.7-23.6,1.8c-7.4-4-0.6-17.4-0.3-25.1c0.3-7.7,3.7-19.1,14.8-16.6C103,129,104.4,144.8,104.4,144.8z"/>
			<line class="st41" x1="111.6" y1="144.1" x2="103.1" y2="144.1"/>
			<g>
				<path class="st15" d="M82.8,134.1c0.9-2.4,0.5-5.2-1.1-7.2c-1.6-2-4.4-2.9-6.8-2.1c-2.4,0.8-4.2,3.3-4,5.8
					c0.1,1.7,1.1,3.2,2.5,4.2c1.4,1,3.1,1.5,4.7,1.5c-2.5,1.7-5.6,2.6-8.6,2.3c2.3,1.8,5.5,2.5,8.3,2c-1.6,1.2-3.4,2.1-5.3,2.7
					c2.1,0.9,4.5,1,6.7,0.2c2.1-0.8,3.9-2.5,4.8-4.6L82.8,134.1z"/>
			</g>
		</g>
		<g>
			<g>
				<path class="st12" d="M71.8,326.1c-6.5,12.6-9.8,45.4-13.3,70.1l11.1,1.8l15.2-46.5l15-54.2l4.5-16.5l0,0l1.2,45.8
					c-5.1,16.4-3.5,42.8-3.8,68.6l13.8,1.4l13.5-99.4c10.5-61.4-7.4-75.9-7.4-75.9l-31.9,6.4c-14.4,24.5-11,53.1-11,53.1L71.8,326.1
					z"/>
				<path class="st29" d="M99,297.2l0.8,0.1l4.5-16.5c0,0-9.7-16.5-6.6-25.1C97.2,256.3,86.8,271.7,99,297.2z"/>
			</g>
			<path class="st29" d="M86.6,233.6l41.9,0.5c0,0-0.5-2.4-1.2-3.5s-0.3,0-0.3,0l-39.7,1.5L86.6,233.6z"/>
		</g>
		<g>
			<g>
				<path class="st42" d="M178.5,159.4v-14c0-1-0.8-1.8-1.8-1.8h-15c-1,0-1.8-0.8-1.8-1.8v-4.3c0-1,0.8-1.8,1.8-1.8h33.2"/>
				
					<rect x="161.7" y="130.1" transform="matrix(-1 -1.224647e-16 1.224647e-16 -1 355.9029 271.3765)" class="st12" width="32.5" height="11.2"/>
				
					<rect x="161.7" y="130.1" transform="matrix(-1 -1.224647e-16 1.224647e-16 -1 355.9029 271.3765)" class="st43" width="32.5" height="11.2"/>
				<path class="st15" d="M177.9,177.3h1.2c2,0,3.6-1.6,3.6-3.6v-22.4h-8.3v22.4C174.4,175.7,176,177.3,177.9,177.3z"/>
				<g class="st22">
					<path class="st11" d="M161.7,134.5c0.4-0.2,1.2,0.1,1.5,0.6c0.2,0.4,0.3,0.9,0.5,1.3c0.5,1.1,2.2,1.5,3.1,0.7
						c0.7-0.6,1.1-1.7,2-1.7c0.8-0.1,1.4,0.6,1.7,1.4c0.3,0.7,0.5,1.5,1.1,2c0.5,0.5,1.3,0.6,1.9,0.6c0.9,0,1.9-0.1,2.7-0.7
						c0.7-0.5,1-1.3,1.4-2.1c0.3-0.8,0.7-1.6,1.4-2.1c0.7-0.5,1.7-0.7,2.3-0.1c0.4,0.4,0.5,1.1,0.9,1.6c0.4,0.5,1,0.7,1.6,0.6
						c0.6-0.1,1.1-0.6,1.2-1.1c0.1-0.5,0.1-1,0.4-1.3c0.5-0.4,1.3,0.1,1.5,0.7c0.2,0.6,0,1.3,0.1,2c0.1,1,0.6,2,1.6,2.4
						c0.9,0.4,2.1,0.1,2.6-0.8c0.4-0.8,0.2-1.8,0.7-2.6c0.4-0.7,1.6-1.3,2.3-1l0.1-4.7h-32.5L161.7,134.5z"/>
				</g>
			</g>
			<path class="st15" d="M117.1,170.8c0,0-10.6-3.8-26.7,0.8c-16,4.6-16.6,11.4-16.6,11.4s10.2,23,11.8,49.1l41.8-1.6
				C127.3,230.6,132.3,193.8,117.1,170.8z"/>
			<path class="st10" d="M73.8,183.1c0,0,10.2,23,11.8,49.1l41.8-1.6c0.5-4.2,0.8-8.5,0.8-12.8c0.1-6.3-0.3-12.5-1.2-18.7
				c-1.4-9.6-4.3-19.9-9.8-28.4c0,0-10.6-3.8-26.7,0.8C74.4,176.2,73.8,183.1,73.8,183.1z"/>
			<path class="st29" d="M117.6,200.8c0,0,1.7,10.6,10.5,17.1c0.1-6.3-0.3-12.5-1.2-18.7L117.6,200.8z"/>
			<path class="st23" d="M163.8,170.1l5.3-7.8c0,0,0.8-3.4,1.8-4.2c1-0.8,11.1-5.1,12.4-5.1c1.2,0,1.2,7.9,0,9.2
				c-1.2,1.3-7.6,4.2-9.3,4.5c-1.7,0.3-0.9,0-0.9,0l-4.6,9.3L163.8,170.1z"/>
			<path class="st15" d="M117.1,170.8c11.3,4.7,22.2,10.3,32.5,16.8l17-23.2c0,0,4.6,1.4,6.3,9.4c0,0-8.7,33.2-20.1,36.5
				c-11.3,3.3-35.2-9.6-35.2-9.6S110.7,183.4,117.1,170.8z"/>
			<path class="st10" d="M117.1,170.8c11.3,4.7,22.2,10.3,32.5,16.8l17-23.2c0,0,4.6,1.4,6.3,9.4c0,0-8.7,33.2-20.1,36.5
				c-11.3,3.3-35.2-9.6-35.2-9.6S110.7,183.4,117.1,170.8z"/>
			<path class="st29" d="M88.4,199c0,0,4.7,1.7,9-2.7c4.2-4.3,6.7-18.1,6.7-18.1L88.4,199z"/>
			<path class="st15" d="M106.2,169.3c0,0-4.2,28.4-17.6,29.6c-13.4,1.2-19.5-21.3-17.2-23.9C73.7,172.3,91,169.1,106.2,169.3z"/>
			<path class="st12" d="M106.2,169.3c0,0-4.2,28.4-17.6,29.6c-13.4,1.2-19.5-21.3-17.2-23.9C73.7,172.3,91,169.1,106.2,169.3z"/>
		</g>
		<path class="st23" d="M104.4,147c0-1.5-1.2-3.9-3.5-3.6c-2.3,0.3-3.6,6.1,2.1,7.4C103.9,151.1,104.4,150.1,104.4,147z"/>
	</g>
	<path class="st29" d="M149.6,187.6c0,0,4,2.7,4.3,4c0,0-0.2-3.3-3.5-5.1L149.6,187.6z"/>
</g>
</svg>
